<mxfile host="app.diagrams.net" modified="2023-08-31T17:59:47.323Z" agent="Mozilla/5.0 (Macintosh; Intel Mac OS X 10_15_7) AppleWebKit/537.36 (KHTML, like Gecko) Chrome/116.0.0.0 Safari/537.36" etag="Rw_B4AwWFaYARZbKE34B" version="21.3.6" type="github">
  <diagram name="Page-1" id="9WrCVH3vW1qZmjkZiC3y">
    <mxGraphModel dx="1358" dy="889" grid="1" gridSize="10" guides="1" tooltips="1" connect="1" arrows="1" fold="1" page="1" pageScale="1" pageWidth="1100" pageHeight="850" math="0" shadow="0">
      <root>
        <mxCell id="0" />
        <mxCell id="1" parent="0" />
        <mxCell id="c13vq_cIt79_5pJQ8C5g-4" style="edgeStyle=orthogonalEdgeStyle;rounded=0;orthogonalLoop=1;jettySize=auto;html=1;entryX=0;entryY=0.5;entryDx=0;entryDy=0;" edge="1" parent="1">
          <mxGeometry relative="1" as="geometry">
            <mxPoint x="117" y="437.5" as="sourcePoint" />
            <mxPoint x="172" y="437.5" as="targetPoint" />
          </mxGeometry>
        </mxCell>
        <mxCell id="c13vq_cIt79_5pJQ8C5g-1" value="" style="dashed=0;outlineConnect=0;html=1;align=center;labelPosition=center;verticalLabelPosition=bottom;verticalAlign=top;shape=mxgraph.weblogos.github" vertex="1" parent="1">
          <mxGeometry x="42" y="400" width="75" height="75" as="geometry" />
        </mxCell>
        <mxCell id="c13vq_cIt79_5pJQ8C5g-10" style="edgeStyle=orthogonalEdgeStyle;rounded=0;orthogonalLoop=1;jettySize=auto;html=1;entryX=0;entryY=0.5;entryDx=0;entryDy=0;exitX=1;exitY=0.5;exitDx=0;exitDy=0;endArrow=none;endFill=0;" edge="1" parent="1" source="c13vq_cIt79_5pJQ8C5g-2" target="c13vq_cIt79_5pJQ8C5g-6">
          <mxGeometry relative="1" as="geometry" />
        </mxCell>
        <mxCell id="c13vq_cIt79_5pJQ8C5g-2" value="" style="shape=image;imageAspect=0;aspect=fixed;verticalLabelPosition=bottom;verticalAlign=top;image=data:image/png,iVBORw0KGgoAAAANSUhEUgAAASwAAAEsCAMAAABOo35HAAAC9FBMVEVHcExQgL1Kfb9JfL5KfL1Jfr9Jfr9Jfb5Jfr5Jfr9Kfr5Kfr9KfsBJfb9KfsBKgMNLd75Mf8JKfsBJfb5Jfb9Jfr9Kfr9Ng8dQiM5Ph81OhcpJfr9Kf8BKfr9Jfr5IfL1LgMJKfsBKgMJOhMhOhMlMgsVMgcNLgMJLf8BOhclKgMJJfb9LgMJKfsBKfsBLgMNLgMJNhMhPh8xNg8ZKf8BKfsBKfsFJfr9Kf8FOhstMgcROhspKfr9KgMFZkcZIe7xKfsBJfr9PhstKfsBMgsRJfb9Jfr5KfcBKfsBJfb9Lf8FKfr9NgsVPhsxIe7lKfr9Jfr9NgsZLgMJLgMNJfb5GerlLgcRLgMNKf8FJfb1LgcRKfb5Jfr9LgcRJfb9Jfb5Jfb9KfsBJfb5Jfr9KfsFGfLpIfb5Kfb9Ke71IfbxJfb9IfL5LgMNLgcNJfb9Jfb5Jf71LgMJKgMJKfr9Kf8FJfsBKfsBLgMJJfb5MgcVKfr5Kf8JJfb5LgMNLfb9Jfb5Jfr9Jfb5Jfb9Jfb5JfsBJfb9LgcNLgMJLgMNKf79Jfr9GerlHe7tLgcRQh81JfL1JfsBJfb5KfsBKfr9LgMNLgMFEeLtJfr9JfsNKfr9LgMJPh8tJfb5Qic9Kfb9Jfr9MgsVJfb9Kfr9Jfb5TgbBJfr5Kfb9LgMJHfr5LgMNJfr9Jfb9MgcVLgcRKfb6Fs96Dsd6Es9+Es96Fs9+FtOGEst6Est6Es96GstyFtN+Fs9+Fs9+GteKGteGFtOCFs9+ItuOIuOWGtOCFtOCFs9+Es9+GtOGFtOCFtOGFtOCEst+KuuePwO+Nvu2KuuiHtuKGteGJueaLvOqOv+6FtOCFtOCEs96Fs+CFs9+HtuOFs9+DsduHtuOOwO+MveyDseGGteKHtuOGtOCEs+CEst6Ht+SFs9+HtuOFs9+It+WJuOaFs9+Es+CFs96Fs9+PwfGFs9+Est+Fst6Fs9+Fs+CHtuOFst+It+SFs9+Est6Qw/KFs+DyYsmOAAAA/HRSTlMABBw4UWJ+k6+0sqx7TjYZBi2NuuLy///////giF0oH5rX9P/////////w1ZdaabTt/////+yvSKT////poAMZcc/////JbRaC5f95F/8QZt3/1bouC/XIwzHy/fzu78GcRpi+2gkmhiotUkTj5qYhJOndVfi3vPxL9/+VPPkrLPRYPkB2gOvM0g/MDhT7/zTnOkJ0//8SqQxv4P+f/9LG/Y/3HgHZYI8Tr/mK/9myCRYpPFBVQTMeES9ji7DP7/z////24MOeeESW1v///////////+dzSZv/wG8bxv//Ddv4pzhb02mzI+b6f03/ov+zyr24rruF8ZHP/3sC67hSAAAqrUlEQVR4Aezd+VvT6P7w8Q87KEVGh09IFLc2TaMDY9MwQJAtBYRgQBRUHFEWQQdUcHBFUVEUB7GggCKDO6Kj4/kbH7/zHJo7TZcEevAq4+tnL5vrzZ19uWE54uITEpOSU1LT1n2Vtj4lPcmWsSEOAnyX+UPSxk0/ZiGVTTPUfzF0NoVZm9O25Gz1F/tuW872HTvt2Q7WyblQx8U5WT6b2rX7p9x4+A625f28xy14nCKG5HJStD3/l6R/ea/MgsL8IkYSMSJRKmb2lhSUwr9VWXkFK0teNEmsFNiq6n3wbxRfUyu7FbREsRdtrtsP/zb7ampVD1rn9aib6+rh3ySu4YDQiMvkEQ7mwL9HwiGGwhVw239ugn+H5prDsogroqi70jPhXyDjiODEsFzcVxFyVspHW2DNqz5WHPpYiuIZRlY9vx7/9VdKLWIYngp5sCrKrUmwttWXFLMhDqIcsvvEjpNt6Um29oSvCmwNyR2dp7Icsj3EoVijvaML1rDuI7QSrBRbzOd3nrad6YIAzb/1bDm5h2FYEY044eg2WLN6z6poxDHuc+dz+yCk/pz1FxwMhwZe+vcEWKMGWnk0kOiLl3LKIIL4pMtXVCcaMBeuwpqUc40aNKbKup4BptzYvkuVMMCg+3AirEG5Q43GjU7W9Ztg2q2U2yqHAahja7BWjqGVyFwpuQmWtJznGG9grbU3toavBbaS5KN3wLL2I4JkqHUV1pS7rRTqMTtHMmEZuu4N8ahnv58Ba0j/WX4QSYowmrDs8A8EBUmDzIF4WDP+GFP1rSR++0NYtvFCxok69MlmWCsKaS+SqEflsCLJlR5dfdHXAWtEHqPoj41abbBCuccoXS3OngNrwsROVr+FmXwMK/bkvl1Xy7PnFqwBXVXFulb8ZAZEwd09Dl0toTMOYt9pQb8Okq1WVosia4lFUxDzJoacSKB2ZUCUPDnMIoHd9QPEuNKT8iBqpEc2CKq+b9u2ZrAml51GgnAJYlxSkYiaGb4cgugr33Rq72TtwXV5/WBFsqygRnH3QEx7esCNBLUNjB7WXBAYimVZipHv/7QVLHgmIMGxuxliWTKNhKKKWTD4bdTH4hIpuzX5DzBtfIfuNEp9DjFs/6QHNZXHJsCgZU5FEiscHADT7up2H9SBeohdyQJqxD9HguTcoWIAu6ew2/KBSewPrX21HtQwVXFgMP8CDRT1fl0mmNO827FGhtZzFTXc0A0weHyFwyBYdawAzLkqcahhkiBGdb20o0aYB6NCHwblZa5s3wampApkrFelEJtslIJ+0u1+MNi3l8UQOHrO3ChpuuhEv5nXTyA2nVdRo74Bo0RWwZAo5tIEmJDyJ2qENohJ205IxMDK6gOj0zKG4ZKP1TRDRFvfTqMfW7sPYlEDWYJOgSBKfOinONFAUkevQkSFAvp5+WGIRWnF6MddbIEg1slaq6wTzAwG8vLOkniI4C65S5XPQwx6d6IS/ZhNECGWZ3dLCeVAA06Yy4HwFl7x6Nc4OQ6xJ8ch4hLRnQPBpBKx3mfCwEHaiQaU45dbEFY1cZta8dgg9szT6MfuHYcgSi8zRKynAE83XisSgxzR7ymPgzC2ZUnoJ7yBmJO5wxNxQ9I15tbHArhzVGbRgGUOTUAYaQz62ccg5vz21olLRD7XbCyIK78vKBhIlHeeng234xWJg5R+iDWLDhcuqTzxznQsgK3PPO5gRxFH7kIoW287cYmL6oFY8yYb/RydYCEWQO7vwTb0/NCHpxDcQhWFfr57EGs28egnn7YWC8Y/DDFeDOSkHxRAcG8E9GPWQ4yJ28ziEtGeaC4W4cmrYBt6/tFPHyGYxWKtLbV7AWJLPLEVkbK2Wo4FXXX3BRcG4rIfTEAQE8TuRMp/B7El4TiHS6j3zaZjEc785abQQN5zF4zqa1kt6KfHEFsS3dqw4DvBfCzS4hzNYYBB+55gLarsuMTlGYDYspiNfkzbMmNB/PUrjKGWfKoMDM4z6JedB7Hlno+IlQ7BLXTy+lhG7aNqJQbI7gh/ZYyugdiSUox+RUkQwjo5UiyYvbdTFVHHebEJAlULMXx2mEqhn5BoPRah6Wfeg6RgVxJzyNX+PMSWNIrY4LZbi2XQcFblkGA3PtTQY3fFbqx1WizueMIKY8G2EkkaRD/u7U0I0DujfI+1ZHjPNPqJ1A0I0M59j6V5Rn+PZTZWQyu3dmORG3iqYKWxmv6iyG2W03iyOcCLWqxnEFvWu6N26ADNybsEBQn8WGbYM4bCWD4obVhRrPYjKos69GkINBXLB6XJ5OlO8gpibWtzMqgn7eyHQJ/l2LxUalwt5pcdayHvrPHCQ/ZpMHgWyyfSNoq4RHMyzB3+sLEmgnzhZ1AYexj2Eo3C9kBsySAu/nkO/AFBZVa5w8Wq/3w4yC3XonNnwGCcuPg3/SkBYsuGLCcucd7+YTnXswYOChIGEoW5x2CU8IkjLitvgNhSeoBFP2bAeqz+QtaBBqxwqA+CaBAwhm9YQBp5K+yz1ViZU/dVLtiXjUJ8NqtDxpg7JiVszEY/+yuLsZ4cZVg0YIsOtYQYxxUU+mUnQ6zJIe5YSCf6zMQibrEGe5ZG2PM8DoL7gbgTpry2Qaw5Qyw/MjkWYi3+LjjRgHL/1Q2hVKtIPFixDWJN3G4P+hWvh2DijjoMsX77y0EFfdB70eSzAvYqiD0dNPr9nV8W+Qi+/p/70K2qggaMtD0eQusnbn+j7zPEngFio+VlGiLGOtAMUDAm/I0GkhDhmeUp2UscvxdA7NmvewC3M1IsZWi4aZ7j0UCUL57+A8IpHbOjX2PtU4hBqUXkW04JEESajH6K91eeQwMPcygDwut9PYN+8jzEoiTZFeE1J0iVUaMEScWpZ/MWrLz867UPQCwqy2eROD+8CUYd2RiOl3GW9EEkGUNEZc/meohJJSpqfG1gNMKLGBqrHmm3+la5kAKx6Yk0QwytnTfB4O60ghrDEXtdF4C1gcUNZUBsihvjUfPnejCYfU9hCA7q2VYwY5OM5F53AWJUAyOiH/f6KhjU+DAoVnjQA6YMk2+Aiu5hiFVPf6RQwwT5qkN8LYVGM0Jr8iyY8vGAHTX2HbMQs0YEJNCfwWBR5jAQX3n+poWTKkJRHsSuj7qhNT10FwzaXiiB+8CKRDDLJpGt7e9nIYaVF3tRw5/aB4Ey51VWd3nhXHkzmPVuzo4akWmAWNa8m0cCvR6M6o75KvEf3kph6Kc+MK30Eo0EZiwTYtqAW0GNqN4Do5aSCzwjyzLjuF+SABa8UUUkd7cFEOPShEHUTFfmQBB9uRvXXVq/cbgPrMijOCTQ5yHWndnFIoG91g5R0vNIQkLjhT6IeXWCFzWDVOtdiIqrxzzkmFWKqyH2ZZ4sCnidJCq1CgI+6yqsW4A1YOseT0CtAlixHn2rQfu5d7AmLLo5XS33tUVYobxHnkEkTL/ugTUihfbqarFsDaxE6QdK0rUS6dOwVjR30qjDCX9tgGXru0RzqONblwlrRtkXGXVE4ctVWKbE3wUv6qgv62ENaTnnRj3HlQ9PYRn2/SQZ/qu5blhTnuykUG+aftADluUeFDjUs7cmwBqTeJjCAA5PWgJYcueQ3Y0B3K29QFiztRT5eGEGmHbjmUtW0DCu2mENSjzmxkCc8OlZ+wKYEHf1r+NCkKuq93thTbp7TkaDadlZVd4PEWytq2BlDg3UuQRYo5oO0iIaKHZ118/PWxYghIWJqUu7VLeCBiI92g1rVhl5OEmQGGFnxU9JN/ZDgA03Gra/fCvwTgzCKaz/CGtY6UaWwqCclCx/mqxYn1K3mGPr7bXlJNW9SX05+asqU9MYlPtRDUQUf2Mg7971tra2+ZTkvJ6MePjfiut/klte09H21ee6RVtLPazI8FlBxBA4luKLVNrXqCiebFqVeYrlMASFnrNBWKUZefMVk8ftPpX5P0VqtvvT5Nj2RXKFj6aHT6ZSd+SLMi0z/0dWafb25pMbh/th+bp/ZhoxPGVmxoXheRzr30EYme0fKi4KjJsl51gWp1l3kXy7ouZOHETZR1vJAYXmKYnzkp9e9djl4j2dIy2wXAvV9+kZXBGOPtcAYXSnv6wU3BwG5XQLM2NTfRBFEx82U7JnBoPxSryw8/LiH8seXIV/8yIumxjhk95N21t1O08jzi5f+HAGouTqX0OqR8QwnAxzKn0/LJNtlHHj8njtjqPtENrW7TsFCSNihWPX+yAK2g9JMoeReCl1Lv0pLE9zw3vZLaJlLodckZMJIdXXtNJONEWiL9TNwgr1lVyRFTTFI5zKgWX6WP7SznBoCVdkr2p4CKHZDgosmsYKo3dhJRbyLvg4NM1O/dUNy9Q1fPmK4HGhSQolXEzryYTQZj9IPFrCXKvJhGXb9hffiFYowoUkWLbHHw5QqkfBiGYoofH9lgwI5+YRmkOLJOFQPyyT7aygoEUe6nozLFu9bftmiXazSphQrMM3c+D61VkIy3auCK0Thbk7sCxTj+zLOuo52gcrUF9Q8+qCxA9iIHHGyVKyTznbmd7bDBE0XHNjSIqCIfGtw7AMKYyEoXgVEUOSf2+BlYm3zVOoGeQYQXjBKLdrx0qqC/ZBZOksO4hGMxLFCC98LOvLFhhKCtZskHqUBJa1ZXPBz9jcMv1ClqjsbJX3OIM2Kz7bCyvUK5C/OXl+45bnSQVN9WBODeNEA87t4/Krzp+uzuvpyXv+ufBlvtNHcWjAWq/VJhi7e508fXzyaNu96qTE3OqRN6m7s+x0kA3yINP6BFYmUUYNnwaWPOenDYvuES6+qrm6YQH8SuMTT1dcUVmvsdYiWLKdNjRQ3HLWpqm79aCJ61786T2rOg21+AstUYxlryoFC3JfSxiAkg9syVgAg7g7KZOyBwN4DheABVuyA1u5eGp0qhuMmm2FbwXJMLY290Uvlmd3F5iX4H/6aAmrHswbhxDK6uZUCfXs586AaXmGc3S3++hAJoTQ1JFlOCGSq+qjFqtxh4VY+08x+lYueU962GUp27JTFpE0KFQ8BJNuHGZRhxO+5C5AGL8VsnbUo+ejFks68RTMWkjNRh2J+eUmRDDRKThRx9cG5nzcwaAOJaWMQwS2L7QLSQrTEK1YzrfdYFZDsQtJ7mtTEFlpzRUKSYp9GEyZ96GOfNZmZvgHTtjvaT0TpVic2A4mde/xIEme6wVTelr1x8HU3H4wocfDIcGrvtoKpqQ/YpEkbCqNTiyRqQaT/iPoWx1sApMSahkk+TogsvpTDiSI9M/1YFLSkK6Wi2mITiykO8Acm/4PLYy+A9NaanVja/rRDYjoNI0kIW0WTEscakQCVVsWnVie910m32lkdEd71p4+arlgJ2oNFl2Ogwi2Zv2NBPXSLFiwqH8aPftzdGIpnqsmX2l0kYl3TYAlvdck1IjuHktvoQ0yD8bBkilGQQ2bvy0qsZDpNDeTKa97IWUYLKpmZlBTfHIBwurOIuM2traARfMCEnyfoxNL5OsgsgHKFf7T59ZeR5959ATC+uxDjeJYBKvqX/K6obUhKrHQ+boaItpUpHuPtR4sK9O9Eqk+g3Ce1rKoEdaDkaXJGFEdiU4srKyMOLZajhO/rLA2WIbFYheG/dIXIYm83cku72WhDgE17oq46MRCJ19SD2FtoVGjpoIJTxsKf04d6Qe/hZPFqJHLTQ9kIR3MmEi/3jFyE/ziyRmOuSt3oxQLFfpBL4SRWeGw+kkH2xdZFlS5lRi0V8nr/0y4TXxflhP9PLXjps5yrhQzjHxsozaC0gXU0BtXHIucTC3MImW4yC/2mBlYw9cYL37FvvhMDC1ivEzfvmluhk6UzQysd6MvOPxKevEs09+PHFrU7rioxcJp4UteM4RwT0Y/F9tuppVnaRX3FMCSXLeLaNAAIf2ikjuyeDOt6KWV5MU94u0c9OM+Zaw0FsnNjCaFyLWJWHh7RaaFVjgopMGShz+ypqZWeTpZSUSdN9PKh0sa9+4P+kEY31Q0Y6FodzwofwdG47XEqUfRPVOt/NjJDUF3UFTo86wnyozpgUyMK8O+emHMTkQ/H4VYJNEt750veAgBbjgVXDKjZERu1Yia6U8TsMRGbOKdt29BCFNFXm2g/PgRIogf9SHhxXNYkqyiX+P7hejF8n/EQDp1fWBDKRAaKJGYiqfLxLgiOLPOaEM0v1L7JYct9K1C9GNSI7eikSQ0wJK7j2aIP058lGKRFA/Nnnj1Ie9J3x9dmf/oKEI/4XykVkONSLKTV/nTHOhXvHHrD8HcaqqiiFjPLbbilDuw5GOttiwzMzdWGmvGGbSX5M62Y9belxUvv6o4wRHjYQR0FsK0Mn6B/7QPNcdvvw3uV/Jp0ccRWlXQqFNM7oA6efQrGlhhLOXECUbEoETOWemh/sENEhnbQfPkQ+erwoZ6XSv9zbLBos1l+llKyRDTwRFLJOX3gaYsb3taSd7+cK2c9h7QpJDzIkytMBZVNXFZrkTzlOPdsORpyetsu1sQHjwJ3Yq/kAFk3eMcWkKRs5XlzNECLwhzSUQrAXWm+WQgPC9GP/nNSmNVwMLIMQZNq9zr30xmbvr/B81eeVeBtg6GbQU3s6bREuYk+FW77V5E9NrtU+T2ijTtuAekHqIllbriWJkAN8Z802iSR7s6M5W9tLq4d9lCtUoAnfh8CS2RN8GSW/7XTp3/rVUW2MrJ3wv8sqqIS6i0aMSC5i3EbNLhURVd/s8Iuv1RPI8Wjesg2Uo7XfsbrSDnQbr+QovinvqnlS9CK8j4lZjed11UYgH0VsmUyVhL25AJ8gOVjVdyjK0chlZQutljMVaHduWDQqLWyNdWhu3VveBzIUc5FnSV/05TlkZWosdFhGHfdmSFGFeksr0SWkGcQY6fkFDjlGqOBmm1OrEAxpO/MPwMRuA59XRpx0bGwkGO4SK3gneWt1mXtRmsK5GgODzGbbtBgd0b3W2W33helSK7FQzH6b9gEn+iEo2IVo/BqOm2Ey3hX2kzFssYxrQ9GYyG/0Q/+7MoxCKU3vjwgJMZT+hgiug//Z1/YbkVtCtWj7Pe/6HNYiOiEbkOGo2Qx1mfoxKL1Pw4/fJmTmZ4B8VK3FfOSpZop/ztP/3t38sPWmwFDQJqnFQICnka3u1fsio6dCtHMgTTxpBXI6IWi7TvzuLGdWOn9p44/uvx41l7934ScYmXOEJuP+YetNYK3tBE9/zd74PZ8f6tC5eInl5Y0vdAxuCc5PaK9MpBPB4ysNJYY3EQSn3f1ozHCY9v9fV1uL24RP2F/A6ZfTBoq3NkK9JJcurKuq7ZoB6Sp79MOhC1iE1QmOOroDd4ODFhWXcfZyw+rLxIXM9qJCdvK7jvsNQqnrgp7wr9kEUKeT3rEpC1VCvjCq4SbydKWeNgXQJxVMuvAxMmOIW47HAXNAlnmSCtEkJPqEQu/FYIodqhrYfs3g0AYddEJ58c+pOhutPgZXhMxDI3suo3N4Y6eZ8gahnGlcEzcgvwMi7kEnpn0M8xDLpagmFchWzVRX7YXZhfnViQSp68H5gNVytcqzLiqjIWdUAos5tZ4t/9B/S16LDbK1KvU4suytWrFGuKCCLahyF0LSZMK3gue4ndai6EVEKHnpTj3VEh+PUro0IZ/ZyfmlYp1m/kNTvmZKmxlol1ELp2O9Dv73BPhizavaHnFP7YSZtr1b1TMkzWtQqxMsccxmcFiVoyOa7MPRrDhPtlcq+JbP470Bk/SYvht+3GG9JIJ69WLKiTUcO8ygSdli8vJEVUnC/Ohms1u9uOGjkJwlivosaXAnrjnS9YlygqPHMv3Oqw02m4e7kqsfrfOjHMhGTvSvZIdvb2+TMQRrKAmsbJfRDGgJ085Tk8Edj98x6Kd1Q+WIQwUlXD5elViGX4U3sm4w0rTk/1QDeE07SrEjVCB5DC7vSxqDMOArzLKX9e0Axh5OgmKGGSVjFWL6ugRrX+feXMozJqpi+2QFh1Pi8xlIVksKpvksxNHXi4irFKXzGoEYtHwKKNPhE1QiqEVzbpQY3zWgFYk3lZRoIvGVYjFjkTukZ61AOWNFAcarjIr1jcE1Az6D53BixJIUcmen7cv3qxDBcqB6nWx2DBwBCLBOE8RLK/lkICf3AbWJBeNIMEoRxWNRbcucKRtRznEiy0uqi7mSHd3goRVcteJNBH4sG0atapK717dlVjGaYpGuTvXwWThvWtkL4HkWW+KkKScPAMmHSakpDAvbbBasfat9muq+U+nAemjDxiyVaDTEWzqeW8IiGJP9sOZjycl6eRRBfCqseCnkZOV4ultn+EiMoC3yyVhu6YHCCqiCT74ZFSiGjiCK3o/6hzG75BLEjJ9iKJE3bYIILcOVpEkldNB3PiOgUkDUp//twE4XWN7CpGHcl5Fb5FrOaTquH76YVnIIyM9R4K9bLXlYJJ3efcg0gS5V01+yEMWxXDoo5LqIFvEgv65phB1OHU1g9NIX+p8KKsoF7Rg31gWsEQi3qSMJe+DYLrsl1yMiLq+dYvfKNYcKOVGjQs/sX/5MaDwbukTUE+aM2fuwUWNLidGMAjX5hv/wgGZ+pG2WIFA6hHZ+FbxYJE/2wpGq7Yvnf9VEZZpn+vH/94JC3fwXAYyHH/BlgyUsRhIFZmT80nNe3zr86z29pPX/7E2F0YSNixAb5dLMgdMtZCr6S6ub2vUks+Jye/KVlXlT/tkCUvBml1Byza+CeHBi6PSnk3H302fzr5XkrJpZdZLMNwaER/6YZvGQtydwa9Dy0qkl3OlnlezZbtkiJiEEVEK9PqKBaDEGdYXsiWeUbIZiiny4tBCKPd8G1jQW+4r9h5vRgS/SUDluH5FQpD8Yb5PcXXWQbfOhbcHKUVtIzzHe2HZUm8IHvRMlZum4VvHwv2lfAsWkRR15e97LeO+qbRouLD5QDfLhapYY+goAUzvrM5sHyzG6cZL1rgpI/cgG8ai9RyyeFGs7x847N+WJH2UYFFsxTh4umHEBUJK4lFzmKkerymUrnV0R5Yqea6C3SluVS851ICREnvayUasWB25KzsdmEEikN+kNcFUdC/cY+v0YsRcMWeIzaImh4BVxCLtL/8QaMsiRiSKAnsaF4zREn/57NMMYehuTyC95AtE6InUV5ZLFLzwC/5DpVVvGjgVTyqO/+8rQuiaDzv0PEiWRK9wY6K3QL7e8oNIHzjWEbvGlJ/lBwCz864xP9ycSwvOLgD5xfjIeqa0i/lexjVLSnE7zUygttV0WF7CvDtY4W3/87Is1e1yHrc/4dqZI//+Or8yONx+B95V7AltSKfW/o9lv104HJbQ0szkFY/lnlxZbeeDD+vrq5+Xj1w90xZHPyPNW9rac/55/caEh9vHQfCqsb6buWxvsf6D3xnOtYm+M766yjffY+19mPFZqzvbOZjfZdkPtZ35f+bWJn7+jIKhgcGhgsy+v5fdfcB3cSVLgD4N708ON42QgLSbFmr5KRIdopFngljqngmoe2hp1DTCzU9sPSa5ofh5NCetrCcjbstU+yRG8UalRkbhuJxN9WYDtvT4/+qeYos/L7DqdT5uf+dOzP/vf+fo6HDpWdkZmXnfCs3L9+eBB1kGwqW/tdp4YjTvcvnb13/9J7pqZZvWWfsGTPiqVX97k3qsDgV7D9w8FBhURHjYByO4qKS0rLyw0fsHR0sy6xxoNLcz/eN+GS4NkVjMRis3zMYhpvMZstvpsxfEQ1hZ885eqykwsm6GLfb8x23m/FyTt5debAq09aRaWh5XGWw+g96KFVrQoeHoAOfYrVLd4yeCuFkO36issLpYjyCr2K3g+VLTp463YEj6/ENoMIrjy4ya1KpoAwa7Z4nXoRwse8/w1R7yUBhxYzIVh7NgzBaSKThUBWhmqJpv+9nHG2ZuAzCoaaqVuTcQmjF3uq6+gYIm346tC1kz8ug0IqJJp2VksCaqN/bH1RrbOJdxYIETHXd0XwIkw8oQ1ueTP89KDK0ZzstUrFU86JBKufGzIMc116oULgqmyE85qHDc6z65aDEk3+VV31gMa/5AFQ4Vch7BBlc7NlzEA5pczSoHHYVyBc1elMsJZNu0VgbKJRRz1YI8niqz+dAODyPDuSgtypIwSfMcZRsliFvrANF8pqcHkE214WLEAa70Qw/fmAayPTx2s2/pRSwbp7yf6DApUJRUKCF4S+ng2qDE9FKaEZ/kKfrdjMVkEEfk0jrdLTOpA+y9EqZ8BHI1njB1RJ4UVXBsaz47Q/O4Qmciq1XakCtSXvaJudkeqXMspLHAh0EZYjV6ahfr5+95I03lsweNobS6WIMAVvKfiQ/VhUBYsWIIldSevXa9fIbN8uOVTpE0eUJEM/qkxmgUtQwtGPJOMUGMmxZ7R8rq4mesf6lh/v/9GV1bpf+D780bEaKJoHylYijJS1WXr9YuUW2sOzWpYKMJPhezbms5vraCtYr+Gm9rjoTe9JK8/Ce7Ua/UOn0O3ps8Yt4dP/598cY/ZZi5rVDQYbj/uOK4YuuNWeCL/u3T42i/6rVecMG6ryoRzO0uSdItnFNos+4StDpJwYrlElbPnt8bLJvtJbMBcnyCn3nKzd7u7wBAjt96pjo8s1E/g6os+45DUWcuSRV3wEUabxx9jII4ZU1Oj1FGvACSJXRxPrEinPUF0Bw9lOl1W7fnG0GTGX/HvN8kGilzxNOQsrbI6MgpLljH6QpgkH6EQv1rQLW4nY2HYfQTh91cALBW5IHqnwQl6qgj1bXRcPJyzY/Ok/CvddnsyQ1Xmrbz2bWQ8TK67pjh3ZlV/JkiNlDNaBG1E4jJXvWmrw+kdwqGb8vCiRIu08XR/b7nS3l99nOFVYQF83d3g9SnLvp8xzpPACqdNfhV07S9uGu0ibjS45f+ghINFZvoZBkaed+XeGJWInnc0Ga9HIyWkxdVvimeMo4LA3ateABPRGractBspFktMY/3QXa1ch5yFjlgVRJ5dVEtNiyKLXvlhHzPmjXVi2FWDY9DDKMjP+Skpf4Ncc4IgelxApFi8UrrmJ2P6ixgRhaX25aCO34DHdHolJjR4Isq4i3qnG/mwrtqOKLUawqbsvLpKQbTgHhjqWHcWhpZvaX0hhZRevMrVpZPdbtpS68WHLJHRr2Q2ILGlqiuqE1eZiROJjinTchlP6LDOhX0zsng0zjHjLiLP7NPAipmcd55DwKcuXd9uKh9bdoUKMf+SKFDn0yzgtafKkPTgLZVnwYh4dW6Fky6m8cvlQlK6VTIgq3h8sGZVBiICmhojV0lh7f+v8LFNiNE1kzcB2EcAR/RmUuHAf5kspEfEO8orL0/m0NhdFrg4+XR/C6LEbZoUEbfx2PdtmYFkIIl/H8zNeDElkXGBTwkkxQZXCMgWy+9PYyCMz2Kxo9EcY+DIpsS0yW+PLfXunF11kAitTzOOJVoM5XmykiWpoPxyZBIG/hbgqx66MVroQHavDCdCgElVPhQZdZDsrk1aGhxZWBOuN20OTrqbjEvW8FzEIjGhNDngWF8NF0Cainl58TTvywkgcKXWGFnzkKz4E6kx7UkNFKSFm9cnLoe4EeNd+V6S3cxJfuCcGkH0OLLPEaKJXt8qheaiHd/E7G0dMjFtqAlIZPDaVfAMX6oPcWpvW2oPlThPJHxUXWlLrItZpK20xfUqTkWM2UhdGAfTTDSjYIUKo7OoRoePCTqPejZ2hGTfocRXnIXQXVeqQY/D9BxK9fiY8wXI76EenROb+y4RuF1fIkBHGnFQ2sMhsols0Vo0nLDqrt1v4cLbQK0v1m8TNTN8APRqN7fkpvUAE3EN38CCCoDaftOlpOsrdAuXOFjrbny6I8UG++yUL5i9MZkx/q1XPsyG/tiG9L0sRBQMg/fPDkjap88JN75/rN8pxoIPRMQd8QewIh88DZsh8UonmZOw4qXOXa/iTXJQiDL3ahtoRtklM1KUNiNCaTKQ61GdUvBKz5PM+LPH++GUj2ei/PstXcmQLARqKVXezXgJ267eTFH7hbwrXyvozGaGszhMPgB3RUEMkJ38LzmXUqIFXsD/ebCrYKsJqyv7uFb3mclcTFLjNY0e0QkP1ihRBARa0dVPgHmuH5WxAWKyZoJRbGxM3qQqyRf7pCL7l0vNX608zaeg1P0FtQmYUGd8HOqORahAC4qzZQoRHfDi9DeHR5IlFPSRH/HF6Snmi7bTlPAL70n4eJpyIX2tz7uCXw6raZFwJir4Eax1Eauq5AuGwLfW4R6pyJ35O70Ou1dFRShYqA+ItEPypL4E/h9awQkHgD1GgocndEsGBSn1hTsrxg2Uu9bZNLaQYaJ2h9I+IhFz0wHq3YULCuc0GCdaITBQt7eG3oc4twm1G/YLlK7Wi2dqFgHcCP7mP0gYN1JViwyjtpsGDDyu0pmtAzffxD6A1n0jU28ORSgB7u+P1km9HAaXjAGWTOug5q5Do84Q0WNmrbBE1KXIjhNfzTofh+//PHzGIiJrZr1T/PZZUZuKx8lgWVs6KMznIwgYNVBmpk8x0ywaNzi35D05Zg48vwF/zCK73s7z/GqrUsnXyl+2NaMWwzIB9Mx0sHQG78XcDwfUOFZhZl9B3oAPO+2DtrvHmI3hDgtFGr5XNATp/5O+fxuLnWM/lAaLztdHg8DF9xEbCHjW3/C7GzAck/9Hev50e4YKgyH1S4g1fwh6FjdOn2y4m/nm4x0QPMuiE0Ovs+wTQSsJqLTR5GaPpHOvjIqy9kmJKb2UAYPYBoPo5lHD3PMO7vMMV4Z1wDqIAfyZ2N0HFGLej2zL6v+i5e3Ps5A/pi9gKQagqOFNRAAKcbcs+Bj17oucqvmc7prCPfyT3yN/TOTlWZQk1p2zOUh8mFSNiGGl7GqNlVnYZWDsn0wxBEuTNMa4eGOjd6JM+HSPgctXMyLPoYFHtxqQHdKrpCEIfxPexYDShWxaPZrzQKImEoWh0l6FaCYoM248ZBGyCI44wnPNlzjUP5fAMiwjY7ETdYt4FCc/8QL+noroxCBl3kHVAqs4RB8/s/IDL2paDSrKVdQaF+49GzunYbBHWdRXlYmgEK3UJZ6PbkQmR8Hoeukv4KFOqdgvvQbYGgDuOCI7E5HF/CKkrTITLSBqL8sexRNsWTDbRiRyQBhP5wqLa26hRbrP6zoepdBgqHVm9aahM921UOrUsVDq2aWjSwPN7jECkrcB4aPvxMWfUcbh36wMuSKkrxrCV/xsIrkHSIlKQRuMhRNyUKZBt3P241lrgYQskvdOAqyTsgX0EJ8Ufcgsh5NjFZXekf2aj4t5pXAAtcR6Om9C+6jBXIGprI+d+BGqLt56sg0yu7DMQ2hbkyaqtauNLT8pMQV/BWX4ZIWqklO7u9CbJMXR1P7FL8o4SyPaT6erTcHbCMQNZ4RdK45zQUQu9cBzK8eb+OkjOw8NBSUv6Xe5vY1elEvztisxaSslhGtO7dQVOINaYfYMFmLcTDHwDp8s5zOFbeSM1YaNsdccHJm5cMlTyuyFhR5q+hfacrXQLi5o4mSR5XKFYRfSzEu3csPs2lPgJJuv6VjJX+wQUK9ma6+Xq7xPnqNhGrFvFQDUTcaG0yhdGvLwQJus/UkcVfic+AJNedAlbsPCRlmk6/5SB37DMXciHy5u40UwSNZfdGaEeX/zb5FDSZpfaCP+dbLMLePtXub807yTMtRIz5i3A3LHhcQxEM2gnLIZSoZ7ebU8li+9iBXUCi7AuMgLV4xZtZEIr9VglbLBD46zaIILyytFCkGE2IQ+qiX5kSq6FI+t/9XubKEitm68rzQpxUUMs7BEKLWHsa7pKVOoNfta5lyrP/E/AeuG29xphAkSwx3UGGy62CD4avO5hTAwEU3CplXQKpxXW7Ae6a3f7d+qxG3Wtv/PGjJECSpnbv83aiye/XfmkaC3Kkn20VfDGsq/RE9jnAarKqrpX4nwnYUoGfKiPO9lKKlfKVrNfRv9nRd9Uf+63o33VFv+6je+3YQ+uGB+pxuA/ksZ9pFfx4Kliu8urlfzReamhoOJLdfOB6bRHPofmtLVaNcFe9hFr4InEmo46mrTNmWGlaZ0RbERCLZj7IlXGy2iP4K3ZwIsuLRUVFDp4VOZdb8NfiutuxAtv8WD0VTKrBkEoF8V78rpUg3+Qb5PEyWLHbzZChxMTbx+Gue+RdE6UAPW0wKBF9VPS2CLIV87UN0Am8uH1zAiWTVbv2M1Co+bao4MS/s6ehU7h3r3E8JYvG+NRGUCzrkJORN7jEuotR0EnYRj6uNVCSfal9fTCoYT9wgS0WJPM6D+VCJzLvKYvOSkliSNl0372gUu5JkROkYZyFF2ugc3lxikZnkBAqOm7vClAvan9TNecR2uXg68ozodOxLZxoMOtDTvUJevOHez+H8KhpPsSxjBCKx+UsLG+Azunz+5420sODpKNVTxvHvP8ZhE96ztmSag6XUWLuimrvsVuZ0Hl16b738fGbY4YbrEScvtQbB1ie3jp4FIRZZlVZoejkHG4iIz2MV3R6ao9eSodObujCfbMf/0v8ALNR8z2dVmvZM2bJoG5/hg5xbv/Rq4VFrlaec32PbeWZktIb/ziSDv8/pH28rPuqF3r36dOn99cv9ej+4ry50KHsednNty5f+d6dw425+VHQvm8AyMyZjy3COasAAAAASUVORK5CYII=;" vertex="1" parent="1">
          <mxGeometry x="172" y="402.5" width="70" height="70" as="geometry" />
        </mxCell>
        <mxCell id="c13vq_cIt79_5pJQ8C5g-5" value="" style="shape=image;imageAspect=0;aspect=fixed;verticalLabelPosition=bottom;verticalAlign=top;image=data:image/png,iVBORw0KGgoAAAANSUhEUgAAAt4AAAE0CAMAAAAsfcQUAAAAQlBMVEUNnOz///+XzfbM5/tftfEtou7z+f8+qe9Qr/F7wvSKyPVuvPPa7f2y2/mm1Pcgn+3l8/3A4fo1pe5XsvCQy/Ztu/Ml7oOuAAASuklEQVR4nO2d6ZaqOhBGuxFEnFq79f1f9SogGSoTs8e791rnx7ETEuBLqFQqydcXAAAAAAAAAAAAAAAAAAAAAAAAAAAAAAAAAAAAAAAAAAAAAAAAAAAAAAAAAAAAAAAAAAAAAAAAAAAAAAAAAAAAAAAAAAAAAAAAAAAAAAAAAAAAAAAAAAAAAAAAAAAAAAAAAAAAAAAAAAAAAAAAAAAAAAAAAAAAAAAAAAAAAAAAAAAA/FOUuWDtKgFMRfYtWLtKAFOBvOGDQd7wwSBv+GCQN3wwyBs+GOQNHwzyhg8GecMHg7zhg0He8MEgb/hgkDd8MMgbPhjkDR8M8gYAAAAAGEGV2TwXUIofs/LrK5e/rl17gCAbMVx8alYOInOGlvDvgbzhg0He8MEsJO9yvjsA8LKMvKvtfsZ7APCwiLzL7ff3hg4cFmcRedeFbKs57wPAwRLyrrQrAyzIAvIutq/kp3nvBcBiAXmfVXr0DYsyv7xLPQP6hiWZX95mNvQNCzK/vLdmFhzgsByzy/tg59nNfUsAL2aX98nOc5z7lgBezC7vrcg0rft7V1UrfA+KPMuL5YuFN2Mn28R2Ql0U1+cVr0sr7fBstJf3PTnrt1yn7ZXlzyrlrkYl5T1l991+fDbTXTGFvL2RNx1G/N2yLNv/Ll3sz/25gOvwvxK4w6KZsPvuxq3L+mNeBtd10VJT+WsWCt4W/6Q15a7kGqs2gsevZ/HjM/JJJt31u0CHtO0fTBZc1TWe81RXTEFNVC1Zaio/t3Yh7GHZcsvXAty/ZcttcY8MRw8t3RfocMp7srmdrkqLWid5dyNLlppKudJC726l+TqRoevI26Xu7+3k94S8O/KV5F0h7xdTjcmQtwR5ry7vLN9ntdF+zrL7CP8a8pYg79XlbXE8D5Q48pYg73eT94PLoIeCvCXIO6pOmXRSz4mTywBHFvKWIO+oOmXSofK+Jor7Sf+5deQtQd5RdcqkQ+XtmrX0su3rUUHeEuQdVadMOlTeuczkp/dsPfKWIO+oOmXSofJOHlvKnH3uCXl3IO+oOmXSwfIWyxn89A+1Qt4S5B1Vp0w6WN5iMZqf/u8DeUuQd1SdMulgeX9dEsU9JE4WeUuQd1SdMulwebsWNDjB7z0J/1N5rxPv/ZXcfQ9ZG4C8Jf9Tea9FfkxS96AlPMhb4pP378yrd/6P8i73qaZ3JKiqrLLHh+H4+Jft1U7hcXnn2anJd83uPd7vbt8Wd8oqsTF5iryL7JE78KLzOmLy8qyXLEBd5bw5nvS5rqLKrnU2//1Iee/uVaO9W1XlkZmzXX7/i6+WdKVyyfuRrtrXP+4P+e6jVmEW+f6UPKwMr0/bnc0LXU5tYwjLu6iskIDjPmkP/fvJ3L3iYgU0Jsg7byrsXpYk6nXJ3PXabY1nU56tD+HR9dQsef/eb5nB7e5fZPxTa/QWaQK/e1cqIe/ivrdLnnbttcNaXoh0XcfVfXeFZTURhiF5l2e5xcpDcNEnXLnqvtEFHpV30W2K61hXW2Suem0cX6+irUkTq5A7H4O8HUPeO0thDXvfp/Il0fAq+70zlSVvT8lTCjw9XG9dtgHLZOe7iWeEYUDe3mCXU9BGyX0N86jqGJP3Qen3Iv64d4n7yVX04N2UQRZ4DOLRafL+ObgkVsvM+RC6ZZpBJ9bOncqQ9488DvhV8nQbVKQN6lYnFCkYCsm6Fl557wKfj63/5RWhOdbOlg3LuzAsD7tegVciTmfR7s7/GEQDUvIunR1og9MA6bIGN3PwpNLlvbvZ5UVKHkTgXb0PoTjvIvz9uXRKsuQd8bX7to0Iie9bnX4VlPfB7J2tevm67gbrw9Jp+hKql60Wx9noThz77aT5FD2plLz9H42Ge+jqPQg+y/cg5F2IyU2/jJHvHE3u/F7swuJ79K+NvgPyLu3BrPHX6AzX0ahXWjCxbZ2kytvRRU8k78BHoy15Gh9K0uNZkU3YkxGVm3YlPV9CFNfRoe+E4hq1+uUtDGtDe9FWZ9UrTd72I0yWt+xFp5F3ApPsoPWT9HiWZlu7Vs5ZdGPXIl3dhrwTVOSaI01qTLVcffIubVPKtKaTohP07j5J3mJQnS7vzG/XhN5LX3nfHL35FDu1vae8Uye1CtsyOW5OWbZxW+PaS7ZV9GhOWXYVrkrb/i5tdR+fu1RsrErUr8Ujb9F1m0NmETr5vJ1M1Etzlbvl/ewazt1jkAucpLxvh11ZPreN3VmeaLsTnVze+7+ydpQU5c768wT291vKO3mHKtPEUDMyYlLkiZK3uePy9tQNXO25IauZmTreVEVXnN6g6qs55S27bnPIbDWfU2e2lJYfXHVsDnlfVb0Oz8mna8jv3WB+JXfGsG/vyypfRzSVlPfBKLkw55fG+0/eUt6pgT5GZ2d5V+wBnC5vQ8Nns3sy+1fDaDWkZM2xaBMqzQRL919P/ie2t9NoPpnxR2uiJ/de0zX3IzDlfRMbWpY3r8gmlfdNOLgNj8pt/PDSfjxvQGrklGF4y6edW4ZAJ29dEkcxcDX82vqMuX46oeN08NdVG4tGylu4eMTW9nu9XqLnMurlvBd3vVwY8nZN3+gq23uyphVg/GzJ2+kd0es2PvIqILO1SN2pWBsfOl9raRkTr5+135yzRbpkNAlqloVzuX4T9tj6pYW8RTd7tovWW6uzXrq+X58q87Kp2wjkMY19/WgW+M6dNa0A42dT3p7JDP3TkRT/EyKutsVJvCddDu7Xao48X/LWVOKJH69kJsNg33pqmCspWPIWEb+OU0k0pXp2f9ZqfpGZ/PVyVdRvHzQUN7cMp5O3t2veJaRJpW9g0/yk7uytvVnfUzAcea1StVbh8mzXaDrKHb8l9JGGvAvhhxRd95d+gFZKvSrxEHpsqqvJ22uqK5Hd3FnTCjB+1uUd8GtrltHY6JO3C6lK7oJUw/Qv4tG3UGnlrVm4fjmozvbV2AqVLcUhq8tbhGBJw/pL/2QEnoB6W63zW5d3uqNYqS8welPdd+nMmlaA8bMu70Bb1Cyjsc7BPjugLUKq20QJKNQgtNbbyvuYUpK6+MsKUOpLOnRTXUB23e5yr5G/12iuw+amNXnLyEN/7VLkc3f28FPJOxy83yUbO7fTawe0BUhecKYqHnrQWvfdyLtIK8ny8+nqS9qIWWsf1g06u+4vbRAU9PqrttLoQ3t9PZZZK/UFDrkpukT6laeSd9iQUt33SOskeZH6QiQ3VyXAYINQnXUjb+UrDzpoDnaFum4z7cRk38ZyW58qVIZgvZTbp7GalLx7dN56QGwgVWed6D3tRPK+eTK2uL8cA+i1wd/8pL+kLktYb8rUbuSt9BDuP7ZmNiWrNOPJ81gvXjmpep6yEFYzU7fT5+A3pb5Q16DE6MyaVoDnipFPjfvLMYShQpyH5LtRegv39ypdo9POyIjM/HdOCjsCMM094ZG33zGdFORlUGdT8u7TzaVpdE55x/wHnXUy1vh+q+U66RuZKP1E3qvVDW/M/3pRuqn/uzf/26N6Jl599/dglY5qJpKm0bsr1UTyjpnUzqY1hB77V85Oj41MlH4iHYGl5641R56bNS/TySgx3Mtr8108t9hf3rlRrxnk7Uw1kbxjNXQ2rSG809iyxySVqnYkoSXvLluyvM1eMnEzIP+QxjNnM1beaSPeV+3eXt6T7aNVhh7hsvTZRyq52xotb1NGo+XtucJYeffag2t1eUf7MeX5Hjtv+TbT8snzlU+Sdzmz5N2Z4snyrq3lccbJ2YjuckYd9Jd3YdTr35J3dMD4111gbFBs/zH7TPSKn0l2ZXTCalS1Mf/rxTJ++tq4uryf4VPGSgWXD6+3vK9mvf4JeaebHNNt8tlj8/hZSQ2lau+/yxfxJXbpmgc10HOiHlKaA06TdxM+ZUR3ORpy3+CIdoj6qfI+JKeM0mM57ox4w+Q8dBnDzULpstGU+laFy+s6fdvvneaZl35Lw1yRF+kXHLF5hRyuKO/Q84vKO2aHdmZMZHozgbdwDfY+0K8bMoQnOpWcG50pB3bQFlID7sYIUKEqaTpyDA10F5W8W/XXXjbaivIOKdRTQLeDW3QZZTetM37BjrmydiV6T76mxTgVauBs32xQEKozbUdBamyYNAB2jXz1xWZC36o99QkeWV7ef0kK9dgWP93Pkdet2sHImJMnbzBx2SdiosEOJnGTiVTKFAs8OW3NQ/sW1VcgaYzgdOzon0lhi6l22KfDWlzeacLzObhVJGDYNFTNY4LdBtef2ek3rKzR/PWB/S6VTF+iURoLKEIG4mmfuJTu2+23DOn7LIpMYXF5qw445NzLPAUo2QZ7ZVVIpBkk0Wevp1noO6ysUdaJb6Lb0NMrjeYo8r4gzc3RfVZU75pSW7e8jcWfVnyN1n56hBEtLm9tEY//MaiAP6uAxHUKeVqyVFZe0zBI3bpOfTPSmrWrvg/aNJanC9Gbe9dVx1f66nhmnYrA9I7m+U43T5aXt+qA/St9tMWS1l9uCbm/flX2wHKLdNbtvgedCPVl6NQtON3oKl2/ut01ugbVhfVn5C4uP22ur97Gu8egf28W3XPo1vfhvLFt0eXlrS0x9k0oap23XYAKlfJb1dpSywk28nmyZvfd2yX4Qp+Pcn0A9JvSBamp17U/irGtvWZnG5eTxbVb0h89+5x0V/dP72y8f6lpt3AzP9fLy1uziz2Wg75Hil2ApnzvUnmtCUzgN6lLXa/7Hqxuc6ZPbBxi7MJmfCCMCRaxJcPe27/qhoXYUL9rFFerDLvSRulGpY3gNtGAuj3vjTzLy1u3PNwGhrGbif1HffsrZ7TUj6buiTpv0ye7KCPUbW05aeyuV5pzVWZnaETZbI0hknkolPlNMOcHNroDRS+u/j0Q8eWf3jH35DHqpe1huHFmWU7eyjX40LfUn3XugviztgeV64yRQu/6J7G8a1byfQ8bVb6wwmUu5/tT4rt8b92NbStbf75Wefk8hdA+zc9uelYfcDnXJ0CWeWZcL7i/9xNdxWaUpBVXdW2OJyvvxml+F+e1lpO30TuLwwX+rCNzxFX11iGbh3Hizth1lvp1pfQWYJy6U8cMohSxUbcbYQAnhS9E5e13f4v9yp1343wAC8r711DwQTtqtfgT29DLy/4Zf9dP0Pwxs090/kjDGqNL9/k1fUgRnKMNJR2zMDCur04YDkfXL2OoNaVehr98DXnrmwDWVPf8r/zL7SNYfQVYp0bt7/mu/H3kt3737X44kOXNk/4z8ZK4vp1fiAQduZxzRVzfjTshcvDfUWRIr5fbXF9S3rpvI4bjuj/Rc6Nqpj2euM8pTJOQuBd1jNhXx/OFCJ1qGapdrDm1TTaymEjX99H7l4R6rSPvrzSB+gr4DRxp2THV0X8dy65rcJwFPbDawWbpfYHhjti3VVrEx9SdJhJbK6f3JVa9gg3IrtdK8i5SBOovwH8g8YvpDm5VLLksbbzZ3SGOrFE4ttFWeM+2dm9Q/CJwkqY660H5sH1X2XpTBNqr8IZ3jS19h5ivCeQdE6jq3aPXduefTh0aiy1s2E4SKtNxcFsa3g39Wnwd5SbSdezdxV10u8Gc5XHV+dubQm4q29ZLNtbO4dXrgSrnXChVN4J0rpj5c+qy7Xo79XoN0DLU/ztOQ56EhfS9GX2ohE0le/BLQjBleZI95SlhJriSPbh1dnJrnQRW/7fTO855rTKTLejkbHRtS+i1zYmaGg96ljsLxJ3q12eAP8TZBUX5n2XhPXZ7P4Nh0rKIvscvD3VQ7q+aVEXskZeDPmdyOVWJn8Uy08/aOVVCxvXZ8MEBRjiFWa/zwVevWt/Os3gCvHrXsO+t7aB9wSE/9kGUjbjrG2q1G3RduwU+o7i/lnAPxj79IyjyvMr2ed7347DLH+/7kPcN4CnzfP/M5n79Rb6PXLDMIzFDz3o9bif8wMoqenizpJ5cDJ9n3qUKtIHHPZra/GufRRM5EusrfnbCBz6ts1tWeOb++zKNOxDGUu5SlFSWsVS/j0Z+qPZVdc+NK/6Uu6RPSvl3r2oOeTmTyW0wZ3RVbLAHMDf2eafT4QiTBliYgGd3lLgn95cADCGbvAPfTrHmGWASAjOBQ0jxQQMsRziUoxenCePSASahqCbZ+fs4T/wAwFhGC/x4nnUOCmAU+YhDua9yphrgvSiqIQrfnLG34d+gqE49rJTLNRZrAfBmFIcs6is8brLKE18E8PYU+SE7bzbmpOZlszk/4+0YRAIAAAAAAAAAAAAAAAAAAAAAAAAAAAAAAAAAAAAAAAAAAAAAAAAAAAAAAAAAAAAAAAAAAAAAAAAAAAAAAAAAAAAAAAAAAAAAAAAAAAAAAAAAAAAAAAAAAAAAAAAAAAAAAAAAAAAAAAAAAAAAAAAAAAAAAAAAAAAAAAAAAAAAAAAAAAAAAAAAwGD+A8hMtco3TeasAAAAAElFTkSuQmCC;" vertex="1" parent="1">
          <mxGeometry x="830" y="397.5" width="190.83" height="80" as="geometry" />
        </mxCell>
        <mxCell id="c13vq_cIt79_5pJQ8C5g-11" style="edgeStyle=orthogonalEdgeStyle;rounded=0;orthogonalLoop=1;jettySize=auto;html=1;entryX=0;entryY=0.5;entryDx=0;entryDy=0;exitX=1;exitY=0.5;exitDx=0;exitDy=0;" edge="1" parent="1" source="c13vq_cIt79_5pJQ8C5g-6" target="c13vq_cIt79_5pJQ8C5g-5">
          <mxGeometry relative="1" as="geometry" />
        </mxCell>
        <mxCell id="c13vq_cIt79_5pJQ8C5g-18" style="edgeStyle=orthogonalEdgeStyle;rounded=0;orthogonalLoop=1;jettySize=auto;html=1;" edge="1" parent="1" source="c13vq_cIt79_5pJQ8C5g-17" target="c13vq_cIt79_5pJQ8C5g-1">
          <mxGeometry relative="1" as="geometry" />
        </mxCell>
        <mxCell id="c13vq_cIt79_5pJQ8C5g-17" value="" style="image;points=[];aspect=fixed;html=1;align=center;shadow=0;dashed=0;image=img/lib/allied_telesis/computer_and_terminals/Personal_Computer.svg;" vertex="1" parent="1">
          <mxGeometry x="56.69999999999999" y="580" width="45.6" height="61.800000000000004" as="geometry" />
        </mxCell>
        <mxCell id="c13vq_cIt79_5pJQ8C5g-19" value="" style="group" vertex="1" connectable="0" parent="1">
          <mxGeometry x="170" y="580" width="320" height="190" as="geometry" />
        </mxCell>
        <mxCell id="c13vq_cIt79_5pJQ8C5g-20" value="" style="rounded=0;whiteSpace=wrap;html=1;dashed=1;fillColor=none;" vertex="1" parent="c13vq_cIt79_5pJQ8C5g-19">
          <mxGeometry x="-58" width="320" height="160" as="geometry" />
        </mxCell>
        <mxCell id="c13vq_cIt79_5pJQ8C5g-24" value="Frontend" style="text;strokeColor=none;align=center;fillColor=none;html=1;verticalAlign=middle;whiteSpace=wrap;rounded=0;fontSize=14;" vertex="1" parent="c13vq_cIt79_5pJQ8C5g-19">
          <mxGeometry x="-48" y="25" width="60" height="30" as="geometry" />
        </mxCell>
        <mxCell id="c13vq_cIt79_5pJQ8C5g-25" value="Backend" style="text;strokeColor=none;align=center;fillColor=none;html=1;verticalAlign=middle;whiteSpace=wrap;rounded=0;fontSize=14;" vertex="1" parent="c13vq_cIt79_5pJQ8C5g-19">
          <mxGeometry x="-48" y="104" width="60" height="30" as="geometry" />
        </mxCell>
        <mxCell id="c13vq_cIt79_5pJQ8C5g-26" value="" style="shape=image;imageAspect=0;aspect=fixed;verticalLabelPosition=bottom;verticalAlign=top;image=data:image/png,iVBORw0KGgoAAAANSUhEUgAABKAAAAQCCAYAAACbjYBZAAAABGdBTUEAALGPC/xhBQAAACBjSFJNAAB6JgAAgIQAAPoAAACA6AAAdTAAAOpgAAA6mAAAF3CculE8AAAABmJLR0QA/wD/AP+gvaeTAACAAElEQVR42uz9eZwc1WHv/X9PVXVVz2j26RabAbMKsy8S0oykGSkXNCNhHt/neWLdX+4r93Vzf8+Tn++1jTQSICTNQmGDsQ1eYhs73nG8YFvG2CEONkYzEwEGOyFO4thOYgOS2ARoQcvsXXV+f8BNvLBomZrp0/15/5dYSDOf7qo653R1HbP8++/9hKR5AlD+pqw39t2nL7CJfGIA2fEK0V2P3Pbxd1MCwNFoW//Or6X7Sl2UADIUmqnat534z/I8SwzAAUZ/a5Z//5arpPSvqAG4YfLRvZr48R5CAFmKPNtwfv1Zgzd//HFiADgSCzevvTD5+f5/0GRqqAFkJ7+8qNyFTYQA3GCtNR3eUHfv96zsffQA3BAuaJJpCAgBZGkiNaP7pr5JCABHbM/EPSw+AdnyWiLlzm8kBOCOrwyv7HvIkySZYL2kKZoADvA95RcX6ABkrLR97NL23jVvowSAw7Wwf+0fJztHT6cEkK2ooyB5rPMCjhj1/aRPkjxJGu7a/C9W9g66AG4Izq6Xf1INIYAspVbJMxOfJwSAwxLHnp4c/RQhgIzHwWfUKTi1lhCAI4w1tz5wZbxTemUBSpIUpTdJepE8gBvynUXJ8MkPkKXk+bHWRRvefSMlALyRtpHdn0r2TNRRAshwIusZ5ZfwTQDAIU/NKZU+/L//j39fgBpeHr9kZAfoA7jBK0bKnVtPCCBj6Y6x3oVx3EAJAK9l4S1rj0ueHPl/KAFkK7ysWaYpRwjAEdZo/b1Xx6P/Pof9zf+x9cA5n5X0j2QCHLkItxdkIo8QQIbSA1M589LuL1MCwGsxu6a+nY4kPiWADI+z2kC5+c2EANzx0PCKvrt/8//xWzPXLatXJ9aqh06AG7xaX+GCFkIAGSs9eejqhZvXXkgJAL+rvXdtR2n7SDslgGzlF7fKhHzwCjgilbE9Msb+1vz1d//U8Mr+YcneTS/ADblLmuQ1hYQAsjSZGrNv8i5CAPhdyfPjX1PJEgLIkD83L/9cvg0POMPos0NdA4/97v/7VZeQfT9dL2mUaoADx7ZnFC1tJQSQsdL2kXMX9q/9Y0oA+N8Wb167Lnlm7CRKAFkOdo3CjoLYegdwxgFbSuJX+x9edQHqgSvjnUb6CN0ANwSn18lnO1ogeztG71Acc/8/AL09jsOpHaO3UALIeJw7r07BSTWEAFxhFA9fFe96tf/pNQfRc6aS90l6inqAG/IdRcnnsyEgS8mLEw2LRvd8kBIAnj7wwp3p3glmxUCWfE9Re4EOgDPMrwv7kzte6399zQWol7fKs30EBNzgtYQKL2gkBJCx9MlDPcviaxkNA1Ws/eZ3nVraPvZfKAFkK1rQJK8+IATgCmvXblkdT77mnPX1/tuhrv4vy+phKgJuCBe1yOTZBRrIUnoo8cf3jn+dEkAVnweeTe+xYwlfxwUyZOoD5S5jt2fAFVbmh0Mr+//69f7M6184jbHy7FpJKTkBBy7Uka+ojQeSA1krPXnoPy2Or1lECaD6LNy0flVp5+gllACylV9alAl4vATgyvDYKF33Rn/oDT+5eWXrvK/QE3BD7oIG+YWIEECml1ir0nOTXyMEUH3srkN3KrGEADLkn5hXcOYcQgDuXB0/NtQ98PM3+lOHdeuwF3gbJB0gKuAAYxR2FukAZCx5avy0hRvXvpMSQPVYtKEnTneNc5EFshzK6pXNdQx3PwGOeNFG6XsP5w8e1gLU1it6n7dG7PoDOCJ4U42CM+oIAWTJWtmnRm5bFsc8HRWoApfFcW2y8+AmSgAZj2PPb5R3XJ4QgDtD4v7h5fFLh/NnD/vhiTVJ4+2S+TV5ATdES4sS35sHMpXunawdP7jnU5QAKl9u/wtft/unQkoAWR5oHs8zBdzyj8WD8z53uH/4sBeg7lu1ZkLSRvoCbvAaA4UXNxECyFjpyZH/7x/0rjuJEkDlWhhfc27yxOhbKQFkK1rUIlPLjs6AK6xVz5bVq5PDnqMeyV8+1N13t5X5IZkBN4QLWuTVcREHMjVW8kb2T2whBFDBdk3dbSdTbisGMuQ15pS7qIkQgCOM1beGV/YPH9FxfsT/yMtb65XIDThwUgg9RW0FQgAZS54caVs8sPZKSgCVZ3Hv2v+S7Bw7hxJAtqLOoozPOi/giPGSpw1H+h8d8QLUUPfAz63M5+gNuCF4S73843mQI5Cp1Kr07MSdhAAqz9TTo38uawkBZMg/pVbBaXMIATjCGnv7tq7+J4/0v/OO5h+LVOqVtIfsgAOMUdTJVrZA1pJnRk9s27iGHbKACrJ4wzUfSV+YaKIEkCHPKN/BHfuAO/NLPaMw/cBRHe5H8x/9oDvea2RupjzgBv/4vIJ5dYQAMlbaPnrjsvhPuOUQqADL4p6mySdH3k0JIFvhRU3yWiNCAI6wqd04vDw+dDT/rXe0/2galT4h6efkB9yQX1KQyXmEALK8IO+fjMYP1n2REoD7xvZN3W0PlQJKANkxeU/hgmZCAM4ctHp0uLv/q0f7nx/1bHR4eVyyUg+vAODIuWJOoNx8LvBA1kqPH/ovHX1rzqIE4K4l/ddelj556A8oAWQrbCvI1LBjM+AIK9keGXPUD0Y8ptshhrv7H5Ds93gdADdElzbLNPBhLpCpidRM7J36JiEAd009f+hbdooHjwNZ8lpDhec3EAJwhdVfDHUN/PiYjvtj/xnSHkkTvBqAAwKjaAkPeQSyluwYvbitr+c/UwJwz9JNa/80eXr8zZQAshV1FCWPTXIARxwK/GTzsf4lx7wANdwd/1qyd/B6AG7InVUv/001hACylFqlz4x8nhCAY+LYm3h65COy3P0EZCk4s07BKbWEAFxh9b4froifPda/ZlqeSJxP05sk7eJVAdyQ7yhKhk+cgCwluyZaFm665iZKAO5oO7D7M+nuyTmUALJjPKP8Yu7IBxzypM0nH5mOv2haFqDuWxUfkLE38roAbvCKkXLn1xMCyJh9YnTTwjjmAReAAxbesva4ZOfIn1ACyFbusmaZphwhAGcGtLpueHk8Pi3z0On6mTofST8nq7/j1QHcELUVZCKPEECG0gNTOW//7q9SAih/Ztfkd9KRhO24gCyPs9pAIbsyA86wMkNDK/u/PV1/37TNPuM4TuXbHkl8aR5wYQBQ4ytc2EIIIGNTjx+8asHmnospAZSvpe9Z11naPrqIEkC2oiUFmZAPQAFHJL41PdP5F07r0T+0YuBhGX2L1wlwQ3hhk7zmkBBAlqasCfaOf50QQPma3DnyNZX4DBXIkj83UvAWHgEBOOQzW1f2/tN0/oXTvvycyFwraZTXCnBhJGAULeUhkEDWpnaMzmvvXfPfKAGUn/bN11ybPDN+IiWADBmjqLMotsABnLHPTiUD0/2XTvsC1LauvqckfYjXC3BDcNocBW9mG1wga6WdY3cojvneAVBG3h7HYbJ99GZKANnKzauXf2INIQBHWOmm4avj3dP992YyEB4/MOdWSTt52QA3REuLks9nUkCW0t0T9W1jez9MCaB8PH3wxS8n+6bylACyYwKjsL2VEIArx6z0y4OFuZ/M4u/OZAHqkdXrx6wxm3npADd4LaHCixoJAWSs9Pihdy+Lr+V7r0AZuLzv3aeVnhj9Q0oA2QoXtMirDwgBOCKV1j82/x1Tmcw7s/qhh1f0fk3SQ7x8gCODg8tbZWrYfRrIkh0p+eN7x75JCWD2eftK99jxhK/FAhky9YFylzYTAnDlmJX+ari7//uZXXuz+8mNNfLWSkp5GQEHTjaRp7CN26OBrJWeGFne1rumnRLA7Ll8oOeq0o6xiygBZCu/tCgT8JgHwBGT1uq6LP+BTD/1Gezu/Xsj8xe8joAbchc0yp8bEQLIUmJlX5z8KiGAWfTU6J1KLB2ADPkn1ig4cw4hAEdYaz82tLL/X7P8NzK/7dgEZqOkA7ycQPkzkqLOomT4pArIUunpsTe33bDmXZQAZl77Dde8N901zrPYAMaUAP7DC0EQZr4rbOYLUFuv6H3eGHMrryfgBv/EGgVn8GkVkClrlTw9etuyOOaprMAMWha/s25q++gGSgDZCrirHnCKkfoeuHLj/qz/nRl58GLr/tKHjfQrXlbADVEH39cHspbunayZOLjn05QAZs7EPn3dHpgKKQFkOJENPUWLeK4o4JB/aD0w7wsz8Q/NyALUltXxpKy5gdcVcIPHjiXAjJh6cuRPOnp7T6YEkL2F8TXnlraPrKIEkK1wYatMLTsrA85Ibc+W1auTGZlnztTvNLiy7x5Z3c+rCzgyeFjQIq+ebwcBmRoreZMH9n2TEED2zPOle+yk5fZeIMvJZVNOuYsbCQG44xtDqwb+ZsbOETN6QrL+OkklXmPAgYF6YBS2c/s0kLXSEyOLFg+svZISQHbaNl7zR6Udo2dTAshW1FmU8VjnBdyY8GnM2mTjTP6TM7oAtXXV5l/ImM/wSgNuyM2rl39inhBAllKr0rPjXyIEkJ3kufFPyVpCABkKTqlV8GY2sgGcYe1twyvj7TP5T3oz/TuGttQvaQ+vNuAAYxR1zhWfYwEZT46fGTth0Q3XbKYEMP0WXfuuj6UvTPCdICBLvlG0rEgHwJl5np7JmZoPzvQ/O+MLUD/ojvfKmvfwigOOjCfmRgreUk8IIGPJjrGBy+K4lhLA9GmL17WkO8f/FyWAbIUXNslrZoNJwBnWbri/6/qRmf5nvVn5XfOlT0r6Z151wA3RkoJM6BECyPLauH8yCg/svpMSwDQeV3sm704PTbGjBpAhU+MrXNhCCMCVa6P0yFBX/12z8W/PyoxyeHlckk17eOkBRwYWtYHC+c2EADJWevzQH3b0rTmLEsCxa+9/54Jkx6FllACyFbUVZCI+qAQckXoyPTJmVh6MOGtniqGVN2611t7L6w+4IXdps7ymHCGADNnJ1Ezum9pCCWAaRtjPp1vsFA8eBzKdTBYj5c7nUQ2AQ7402N33k1k7Z8zqCcuadZImeA8A5c/4RtHiAiGAjJWeHL1o0aae/4sSwNFbumntn5aeHjuVEkC28h1FybBdDeCIgyV5vbP5A8zqAtTgqv7HZfQx3geAG4Iz6xScwjOSgUxZK/vs6OcIARydZXEcTDw18hFZ7n4CspQ7q17+m2oIAbgyxJRuebC797nZ/Blm/cu6k+PheyU9x9sBcEPUUZQ8PukCspS8MN7cvmHNzZQAjtz4od2fSfdMzqEEkKHAKFrCnfGAM6x5oiZt/Ohs/xizvgD18NtuOGhlB3hHAG7wWkOF5zUQAshYacfIhoVxzMEGHIGlt2w+IXly9L9TAshWdEmzTAMbTAKusJ699r5Va2b98UdlsV3BskfTL1jpb3lbAG4I2wsyNT4hgAylB6ZyZv+Ld1ECOHxTz+27x46W2I4LyJCZEyjH7siAO6wGh7v6v1MOP0pZXKDjOE49Y3ok8WV9wIWBR95TuICBB5C10uOHVi7Y3HMxJYA3tnhg/fJk+8hCSgDZyi8pyISs8wKOSJLU9pTLD1M2Z47Brr4fSfom7w/ADeFFTfJaI0IAWZqyxtsz8Q1CAG+s9MzI12xCByBL/vF5BfPqCAG448+3XTXws3L5Ycpq6dqmyXWSRniPAA7wjPIdPHwSyFqyc+TsxZvW8Ewb4HW0b77m2uTZseMpAWTIGEWdRcmwGQ3giH12KonLagpZTj/M8Kr4aWN1O+8TwA3+KbUKTmOjISBrU8+MfVxxzPcdgFfx9jgOk+2j7BoJZCz3lnr5x+cJATjCGN04fHW8u5x+prIbzI4dnPMBSTt4uwBuiDqKMj6fhAFZSl+cqG87tOfPKAH8vqf3v/jVZN8Us2Igy4ls6Cls4853wJljVvrl/ta5f15uP1fZLUA9snr9mLFmE28ZwA1eU065i5oIAWSstH3kf7XH182lBPAfLu9792lT20f+b0oA2QoXtMirYwdkwBXWpusem/+OqbKbO5ZjrMGVfXdZ6UHeNoAbokUtMrUMSoBMBxIjJT/dO8pmHcBvDmT3Jt/ReMptuECGTGNO4cVNhADc8ZdDK2/8QVlet8u1WJratZJS3juAA3KeorZWOgAZKz0x0tnWu6adEoC0pPeaq0s7Ry+kBJCt/JKCFLDOCzhi0kv868v1hyvbBahtqwZ+Kpk7ef8AbgjOb5R3HI/gADKVWNkXJu8iBCBNPTfxBSWWEECW47s31Sg4s44QgDPsR7detfnfyvWnK+sddXKmtEnSft5EQPkzkvIdbM0LZK309Ogp7ZvXXEMJVLO2De9+X/LcOE9EBjId3BmFnUU6AO54wffD95XzD1jWC1D3d8UvSOZ9vI8AN/gn5hWcOYcQQMZKO0Y/8PY4DimBarQsfmddacfYtZQAspW7oEF+ISIE4ApjNz1w5cayvoHHK/eGhQOlj0r233g3AW7ILy3K8JwAIFPp3smap/a/+BlKoBqNv+R90x6YYgEWyHIeG/k83xNw6ZiVftr5SHpnuf+cZb8AtWV1PCl5G3hLAY6c/OoDhZc2EwLIWLJj9L919PaeTAlUk/Z4zfnJkwe7KQFkK1rUIpNnh2PAnUmY6YnjuOw3cfNcaDnU3fddyfyAdxXghvDyZnn1ASGADNmxxJs88NK3KIFqkjw3+W07abnNFshygtgSKndBIyEAd9w12NW3zYnzizMDDt+ukzTFewtwgO8paufZsEDWSk8curyjb90KSqAatG285o+SnaNnUQLIVr6jKPms8wJOMBozidnkyo/rzALUtiv7f2llPs07DHBDMK9OwUk1hACylFpNPDfyF4RAxYtjL31u4lOEALLlnzZH/qm1hAAcYVJ9cPCqvh2u/LyeS3FLJX9A0m7eZoALZ0OjsKMgPj8DspU8O35c+w1r+yiBStY2sudjyQvjfCcIyHLo5hnll3IHO+CQpwMvf5tLP7BTC1APvXXTPiN7E+8zwA3+3Lz8cxsIAWSstGOk77I45iNrVKS2eF1Lsn30HZQAspW7pEleMxtMAq6w1l5/f9f1Iy79zJ5rkVsPnPMpY/Qz3m6AG/KLW2VCjxBAhtL9k1Hupd1fpgQq8v29d/Ke9NAUO1sAWU4Ka32FC1oIAbjjR8Pd/d9w7lzj2g+8ZfXqRFIP7zfADaY2UG5+MyGAjCVPHvo/l8TvOpsSqCTt/e9ckG4/1EEJIFthe0Em4gNDwBGpZ22PjLGu/eBOnmUGu/oHJftd3neAI4Oay5plmnKEADJkJ1NTeiG9mxKoqBH2ruRbdsoSAshyQliMlDu3nhCAK4y+uHXlwN86eb5xtbkfpOslTfDuAxw4R3pG+SU81BLIWmn76Pntm3r+kBKoBIs3XfOO0jPjp1ACyFa+sygZto0BHHGwZL1+V394ZxegHrgifsJIH+X9B7ghOKNOAdv6AtmyVsmzo58hBFy3LI6DqafGPiTL3U9ApuOzs+vln1RDCMCZsZ7e+2B373Ou/vhOf9F3YiK8RdJzvAsBN0QdBcnjEzYgS8kL483tG9a+nxJw2dih3Z9P90zOoQSQId9TfjF3qAMOeTxvGz/m8i/g9ALUw2+74aCRenkfAo6ccFoi5c5vJASQsantB9cvi3uaKAEXLb1l8wnpk6N/TAkgW+H8ZpkGNpgEnGG1/r5Va5x+DJHzWx10PJp8SdJPeDcCbojaW2RqfEIAWY5PDpZyY/umvk4JuGjq2X3ftaMltuMCMmTmBAovayIE4M5Ru3VoZf9fuv5bOH9xj+P45S0IJR4SALhw6ox8hZe3EALIWPrkyIq2/vWXUAIuWTywfnmyY2QBJYBsRUsLMjnWeQFHlJIkXVcJv0hFnHW2rhx4RNJdvC8BN4QXNsprDQkBZMhOpSZ9ceyblIBTI+ynD91lEzoAWfJPyCt3dh0hAFcY+8ltVw38rBJ+lYpZ9jZTZoOkEd6dgAtnHqN851w6ABlLdo6e2b5pzf+gBFyw+IY11yXPjR9HCSDDOZOkqKMoGTaFARyxz/OD91TMNLBSfpHBq/uesUa38f4E3OCfXKPgdD59AzJlrZKnRz+mOOZ7Fihry+I/yU/tHH0vJYBsBec2yD8+TwjAlaGc1L/1is17KuX3qagB6cT+OR+UzHbepoAboo6CjM8ncECWkt2Tde2H9nyCEijzMdzX0pcmmRUDWcp5itpb6QA4w/5CUfLpSvqNKmoB6pHV68es0UbeqIAjJ6DGnHIXNxECyNjUk4f+f+3xdXzvFWXpD/quOWNq+8h/pgSQrejyFpk5ASEARxjPrBteHpcqav5XaS/ScFffN2T0N7xdAUcGQwsZDAFZs6OJb/eMfosSKEeje0vf0XjK7bBAlpO+xkC5S5oIATjCSN8ZXNF/f8WdiypyoG28HknsoQK4IOcpamuhA5Cxqe0jS5f0rl1CCZSTJb3XXF3aMXo+JYBsRR1FHnsAuGOy5GlDJf5iFbkANbyi9x+MzBd53wJuCM5rlH9cRAggSyWryefHv0YIlJOpZye+qNQSAshynHVyLRu/AA6x1n5424r+X1Xi71axu+IEptQraT9vX6D8GUlRJ1sCA1lLnxk7uX3TNWsogXLQdt27PpjsGueJyECmgyzz8hgLgCuer7HprZX6y1XsAtT9XfELxpibef8CbvBPqFFwFp/OAVkr7Rh7/9vjOKQEZtOy+J11pafGeigBZCu8sEFeK6d8wBXW2o33rYoPVOrv51Xyi9e6v/Qxyf4bb2PADfmlBZmcRwggQ+m+yZpnDuz+PCUwmyZe8u62B0o5SgDZMZGvcBE3GQIO+ftlP07/opJ/wYqe6W1ZHU8a413H+xhwZKBUFyh3WRMhgIxNbR/5r+03v+tUSmA2tMdrzp968tCVlACyFba1yuR9QgBusJ5sTxzHaSX/khV/q8FgV9+9kr7P+xlwQzS/WV49H4oDmY5wxhLP7rLfogRmQ/rc5Hc0mfLQPyDLSV5LqPD8BkIAzgzO9LWt3QMPVvy5qRpey8TXeklTvKsBB/iewsXcLg5kbWr7yPy2vjXdlMBMatu89r+Wdo6eQQkgW1FHUfJZ5wWcYDTmB8nmavhVq2IBatuV/b800id5ZwNuyM2rl39SDSGALCVW9tnxLxECMyaOvfTpsU8RAshWcHqdglNrCQG4wurWB66Md1bDr1o1T/udLAU3SdrNuxtwQ76zKD63A7JVem587uKN7+6nBGZC28HddyQvjvOdICBDxjOKlnInOeCQp+qmkg9Vyy9bNQtQD7110z5ZeyPvb8CRk1MxUnAe8xQga1PbR/sui2M+KkemlsXXFpIdY/8vJYBs5S5pktcUEgJwhr3u3qvj0aqZ41XTS1s4eM6nJf0Tb3LADWF7QSbyCAFkKN1fCsOXdn+VEsjS+J6xe9KRqYASQIYTu1pf4YIWQgCusHp4qKt/S1Wdp6rpl92yenXiKe3hnQ64NJBqJgSQsdKTh97WFl97DiWQhUX9axeWto8soQSQLT64A5ySWt/0yBhbVfO7anuVt3bfOGSNvYf3O+CG3CXN3EoOZMxOpibdNXo3JZDJ+2vX+LdUsoQAspzU8egCwDWfH17R93dVd66qxlc68NPrJI3zngfK38sP0ywQAshYsnP03CW9a99OCUynxb1r/mfyzPibKAFkK2LzFsAlB22SDFTjL16VC1APXBE/IaOP8L4H3BCcPofthIGsWaupp8c+TQhMl2VxHExtH/2QLHc/AVnKzatXcFINIQBXhlzSTcNXxbuq8Xev2i8J2zB5n6RnefsDbog6ipLPZ3tAlpIXxpvbrl9zGyUwHSYP7P5iuneSTw+ALPmewsWtdACcYX5dkzZ+olp/+6pdgBpeHh+yxmzmAAAcOVm1hAovaCQEkLHSjpGeZXFPEyVwLP6gd91JUztG/islgGxF85vl1ecIATjD9Ny3as1E1c7pqvmlH17R+xeSfsJBALghXNQik/cJAWTIHpwKxvdNfZMSOBaj+8e/a0cTtuMCspzG1gXKXdZECMAdDwx1936vmgNU98DAGGtTs1YSDycAXDhkI19RWwshgIyVnjh05aL+tQspgaPRtvld/ynZPnIZJYBs5ZcUZHKs8wKuDK+s8dZVe4SqP2MNr+p71Bh9leMBcEPugkZ5rSEhgGyHSNILE1wbcVSSXVN32YQOQJb8E2oUnF1HCMARVvYTw129/1ztHVgyl6RJs1HSIUIADjBGUWeRDkDGSk+NnbFw49p3UgJHYtENazakz41zkgayHApJL4+FDJuzAI7Y6wfBzWRgAUqSNHh13zPGmg9QAnBDcHKtgjP41A/IlLWyT43ctiyOA2LgcCyL/ySf7Bx5DyWAjMdB5zXIPy4iBOAII9u79YrNeyjBAtS/S/Ol2yWznRKAG6KlRRmfT/6ATK+NeydrJ0Ze/AQlcDgm9s/5un1pilkxkKWcp6itlQ6AO36eRunnyPAyFqBeMbw8HjdWGygBOHLyagyUu6SJEEDGSk+M/ukf9K47iRJ4PX/Qd80ZU0+O/B+UALIVLWyRmcONqYAzcxaTrhteHpco8UoPEvyHwZV9WyQNUwJwZBB2OYMwIGt2NPFGD0x+gxJ4PaN7Sn+piZTbUoEsJ26NOeUubiIE4M4o6u6tXTf+kA6/cR4jwe+9SXoksXcL4IKcp6id29CBrCVPHlzctvld/4kSeDXtvWveVto5ei4lgGxFHQUePwC4Y9Iq3UiG38YC1O8Y6h74R1nzeUoAbgjObZB/fJ4QQIZsIqUvlL5ECbya5JmJzyu1hAAy5J9co+B0NmABHBo93T7cHf+aDr+NBahXUbJen6SXKAGUPyMp6mArYiBryTNjJ7VvvOYGSuA3Ldpwze3J82PcigpkOmMzynfOpQPgjufzafoBMrzK6YwEv+/BVZtflDXvpQTgBv+EvHJn86kgkLWpHaM3LYv/hFsOIUlaGMcN6Y7RNZQAshVe2CivNSQE4Ay74b5V8QE6/D4WoF7DgWLx45L+lRKAG6KlBZkcpzQg0+HUS1PRxIHaL1ACkmT2vnB3emAqRwkgw+Ms7ym8vIUQgDse63w0/QoZXh2ztdd618x/x5Ss1lMCcGSANidQeFkTIYCMTT0x+v/p6FtzFiWq28LNay8s7RjlwfRAxqK2gkyNTwjADdZa0xPHcUqKV8cC1OsYWtn/11b2PkoAbgjnN8s0BIQAsjSRmsm9U98gRJXbM3GPJlMevgdkOVFriZQ7v4EQgDu+Mryy7yEyvM55jQRvJF0jaZIOgAN8T/nFBToAGSvtGL2kvXfN2yhRnRb2r/3jZOfo6ZQAshV1FCSPdV7AEaO+n/SR4fWxAPUGhrvjX8vqDkoAbgjOrpd/Ug0hgCylVsmz4zwLqhrFsacnRz9FCCDj8cwZdQpOrSUE4Ahr9L4Hrox3UuL1sQB1GPI2iSU9TwnAkWO2sygZPjEEspTsGm9ZtKEnpkR1aRvZ/alkzwTbjgIZMp5Rfgl3dAMOeap+MvkIGd4YC1CH4b5V8QEjyyAbcOXEVoyUO49nJgBZS3cc3LwwjjnYqsTCW9Yelzw58v9QAshWeFmzTBMbTAKusEbr7706HqXEYczTSHB4Oh5NPyPpMUoAjgze2lplIk5xQJbSA1M589LuL1OiOphdU99ORxK24wKyPM5qA+XmNxMCcMdDwyv67ibD4WF2dpjiOE6tNT2SLDUAB05utb7CBS2EADJWevLQ1Qs3r72QEpWtvXdtR2n7SDslgGzlF7fKhEzRAEekMrZHxrBGcLhzNBIcvuGVfQ8ZK1Y3AUfkLmmS1xwSAsjSZGrMvsmvE6KyJc+Pf00lxtdAlvy5efnn8q1mwBlGnx3qGuBbUkeABagjVPLMekl8vxNw4ZrgGUVLeYgnkPm1cfvIW9p71/w3SlSmxZvXrkueGTuJEkCWgxajqLMgtlABnHHAlpKYDEeGBagjtK2r7ykj8YR7wBHBaXMUvJltjIGsJU+NfUJxzLiiwrw9jsOpHaO3UALIeLwyr07+iTWEAFxhFA9fFe8ixJFhoHgU5kwl75O0kxKAG6KlRcnnM0UgS8mLEw1tI7tvp0Rleerg7i+leyeYFQNZ8j1F7dyxDbjD/LqwP7mDDkeOBaijcO/V8aiR6aME4MiJriVU7oJGQgAZS7aPrFkWX8ssqkK03/yuU5MnRlZTAshWeHmzvPqAEIAjjEnWbFkdT1LiKOZlJDg6g129X5HVw5QA3BAtapHJs3s4kKX0UOKP7Rv/BiUq5PV8Nr3HjieMFYEsJ7L1gcJLmwkBOHPQ6q8Hu268jxBHh0HFUb/xjJVn10pKiQE4cMhGvsK2VkIAGUseP/QHi+NrFlHCbQs3rV9V2jl6CSWAbEVLCzIBjwkAHDGlVOvJcPRYgDoGr2y5+BVKAG4IL2iQX4gIAWQpsSo9N/k1QrjN7jp0pxJLCCBD/ol55c6sIwTgztXx40Mr+/+VDkePBahjDRh4GyQdoATgAGMUdhbpAGQseWr8tIUb176TEm5atKEnTneNc7IEshySSMp3FCXD3U+AI160UfpeMhwbFqCO0dYrep+XzAcoAbgheFONAj5tBLJlrezTo7cti2OequuYy+K4Ntl5cBMlgIzHIxc0yDsuTwjAFcb2DS+PXyLEsWEBahoUDpRul8yvKQG4Ib+kIPG8BSBT6Z6J2okDu/+cEm7J7X/h63b/VEgJIMN5bOgpWsSGoYBD/rGw/5zPk+HYsQA1DV7ZgnEjJQBHBn6NOYWXsOMMkLWp7aP/4w96151ECTcsjK85N3li9K2UALIVLmqRqWVnXsAV1qpny+rVCSWOHQtQ02Sou+9uK/NDSgCODP7mN8urY/AHZGqs5I3sn9hCCEfsmrrbTqbcHgpkOflqyil3YRMhAFcYbRle2T9MiGk6B5JgOt+b6TpJJUoADhyvoaewjdvfgawlT460LR5YeyUlytvi3rX/Jdk5dg4lgGxFHUUZn3VewBHjNk02kGH6sAA1jYa6B35uZT5HCcANubfUyz+eB4ACmUqtSs+O3UmI8jb19Oify1pCABnyT6lVcNocQgCOsMbePrwy3k6J6cMC1DSLVOqVtIcSgAOMUdTJFshA1pJnxk9s27iGndXK1OIN13wkfWGiiRJAlrMuo3xHkQ6AM/MEPaMwZbf76T4VkmB6/aA73mtkbqYE4Ab/+LyCeXWEADJW2j5647L4T7jlsMy0xetaJp8ceTclgGyFFzXJa2WDScAVNrUbh5fHhygxvViAykAalT4h6Z8pAbghv6QgE3I6BDIdyO2fjCZfqruTEmU2Ztk3ucUeKgWUALJj8p7CBey+C7hz0OrR4e7+rxJi+jHjysDw8rhkpXWUABy5xswJlLuMgSGQtcnth1Z39K05ixLlYUn/tZelTx76A0oA2QrbCzI17LwLOMIaa9bKGB6MmAEWoDIy3N3/gGS/RwnADdGlzTKNOUIAWZpIzeS+yS2EKA9Tzx/6lp1ifA1kOtlqDRWe10AIwBVWfzHY3fcTQmR0TiRBlu/dtEfSBCUABwRG+cUFOgAZK20fu6itr+c/U2J2Ld209k+Tp8ffTAkgW1FHUfLY7ARwxKHATzaTITssQGVouDv+tZE+QQnADcFZdfLfVEMIIEupVfrMyOcJMYvi2Jt4euQjstz9BGQ6rjizTsEptYQAXGH1vh+uiJ8lRHZYgMrYxER4k6RdlADckF82l08qgYwluyZa2m+45r2UmB1tB3Z/Jt09OYcSQHaMbxRxZzXgDmuesPnkI4TIFgtQGXv4bTccNNIAJQBHToqtoXI8qwHIXGn76A0L45iDbYYtvGXtccnOkT+hBJCt3GXN8pp4tiTgCiNdN7w8HqdExnMtEmSv49Hk87L6O0oAbojaCzJ5To9AltIDUzlv/262OJ7pAfauye+kIwnbcQFZHme1gUJ21wWcYWWGBlf23UOJ7DHDmgFxHKfybY8kHrYAuDBwzHsKF7QSAsjY1OMHr1qwuediSsyMpe9Z11naPrqIEkC2oiUFmZBpFuCIxLemhwwzgzPjDBlaMfCwJLaeBhwRXtworzUkBJClKWuCveNfJ8TMmNw5epdKfBYGZMmfGyl4Sz0hAFcY8+mtK3v/iRAzgwWoGZQYc52kUUoALpwdzctbJwPI1NSO0XmLN63575TIVvvma65Nnhk7gRJAphNZRZ1FsZUJ4Ix9drJ0IxlmcIpFgpmzravvKUkfogTghuCUWgVvZqMoIGtTT499XHHMmCQjb4/jMNk+ejMlgGzl5tXLP7GGEIAjrHTT8NXxbkrMHAZ7M2z8wJxbJe2kBOCGqLMo4/NZJpCldPdEfdvY3g9TIhtPH3zxy8m+qTwlgOyYwChs5/mRgDPHrPTLg4W5n6TEzGIBaoY9snr9mDVmMyUAR06STTnlLmokBJCx0uOH3t0eXzeXEtPr8r53n1Z6YvQPKQFkK1zQIq8+IATgiFRa/9j8d0xRYobnViSYecMrer9mpQcpATgyqFzYKlPLruVAluxIyU/3jH2DEtM80NtXuseOJ4z3gCyPs/pAuUubCQE4wkh/Ndzd/31KzML5kgSz8Y431pPXIyklBuDAIRt6ihZxWz2QtdKTh5a19a5pp8T0uHyg56rSjrGLKAFkK+ooygR8XR9wxKS1uo4Ms4MFqFky2N3790bmLygBuCG4oFH+3IgQQJYSK/vi5NcIMU2eGr1TiaUDkCH/xBoFZ7BhCeAKa+3Hhlb2/yslZgcLULPIBGajpAOUABw4XiVFnXMlwyecQJZKT4+d2nbDmndR4ti033DNe9Nd4wVKAFkODozyy4qMDQB3vBAEIbvCziIWoGbR1it6nzfG3EoJwA3+iXkFZ/IpJ5Apa5U8PXrbsjjmab5HaVn8zrqp7aMbKAFkKzy/QV6Ru6MBZ4YYsr0PXLlxPyVmDwtQs6x1f+nDRvoVJQA35JfynAcga+neyZrxQ7s/Q4mjM7FPX7cHpkJKANkxkaewjedDAg75h+KBc75IhtnFAtQs27I6nkyN+JQScGXAWR8ovISdboCsJU+M/PeO3t6TKXFkFsbXnFvaPrKKEkC2woUtMjXskAs4I7U9W1avTggxu1iAKgPDXf3fkdX9lADckLu8RV493w4CsmTHEm9y/94tlDgy5vnSPXbScpsmkOUEqiVUeGETIQB3fGNo1cDfkKEMzp8kKJMXwvrrJJUoATgwwQuMonae7QtkrfTk6MKOvnUrKHF42jZe80el7SNnUwLIVrS0IPms8wJuDNw1Zm2ykRDlgQWoMrF11eZfSPo0JQA3BPPq5J9YQwggS6nVxLOjXyLE4UmeG/8UFYCMr/+nzVHwZjYkAZxh7W3DK+PthCgPLECVkalS0C9pDyUABxijqLMoPv8EspU8N3b8ohuu2UyJ17fo2nd9LH1hopESQIZ88/LdTwAcGa/rmZyp+SAhygcLUGXkobdu2idr3kMJwJFx6NxIwbkNhAAylu4YG7gsjmsp8era4nUt6c7x/0UJIFvhhU3ymtlgEnCGtRvu77p+hBDlgwWocjtG8qVPGqOfUQJwQ7S4VSbkVApkKd0/GYUHdt9JidcYO+yZvDs9NMXOCECGTI2vcGELIQBXro3SI0Nd/XdRorwwayozw8vjkk3TdZQAHBmQ1gYK5zcTAshY6fFDf7gkfhcP2P4d7f3vXJDsOLSMEkC2oraCTMTUCXBE6sn0yBhLivLCWbQMDa28caukv6QE4IbcZc0yTTlCABmyk6kpvZBuocTvjLCfT7fYKcbXQKYTpmKk3Pn1hADc8aXB7r6fkKEMz6ckKE8m1XpJE5QAHDhePaP8Yh5KCmSttH30wkWbev4vSrxs6aa1f1p6euxUSgDZyncWJcO2I4AjDpbk9ZKhPLEAVaYGV/U/LqOPUQJwQ3BmnYJTeUYykClrZZ8d/RwhpGVxHEw8NfIRWe5+ArKUO6te/kk1hABcGSpItzzY3fscJcoTC1BlbHI8fK8kDh7AEVFHQfL4hBTIUvLCeHPbhne/r9o7jB/a/Zl0z+Qc3hFAhgKjaAl3OAPOsOaJmrTxo4QoXyxAlbGH33bDQWvVTwnAkRNqS6Tw/AZCABkrbR+9bmEcV+3BtvSWzSckT47+d94JQLaiS5tlGthgEnCG0fr7Vq3hMTblPF8iQXlb9uPki1b6W0oAbgjbCjI1PiGADNmDpZx5affXq/X3n3pu3z12tMQYDshyHjsnUI5dbgGHBgcaHOru+y4hyhuDlzIXx3HqGdMjiYc8AC4MWPOeostbCAFkrPTEwe4Fm3surrbfe/HA+uXJ9pGFvAOAbOWXFGRyTJUARyRJanvIUP44qzpgsKvvR8bqG5QA3JC7sFFea0QIIEtT1nh7Jqru2lh6ZuRrNuHlB7LkH59XMK+OEIAjrMyntl018DNKlD8WoByR2uR6SSOUAFw4sxrlO3hoKZC1ZOfI2e2b1vyPavl92zdfc23y7NjxvPJAhoxR1FmUDJuKAI7Yp6nSTWRwZJpEAjcMr4qfNla3UwJwg39KrfzT2KAKyFrpmbE/UxxX/Hjm7XEcJttHb+YVB7IVvKVe/vF5QgCOMLIDw1fHuynhBhagHDJ2cM4HJO2gBOCGfGdRxucTVCBL6YsT9W0jez5W6b/n0/tf/Gqyb4pZMZDlRDb0FLVxBzPgzDEr/XJ/4bhPU8IdLEA55JHV68eMNZsoAThygm3MKXdxEyGAjJWeOPQ/2+Pr5lbq73d537tPm9o+8n/zSgPZChe0yKtjJ1vAFdam6x6b/44pSjg0PyKBWwZX9t0laRslADdEC1tkahnMApkOQEcTP907+s2KHaztTb6j8ZTbKYEsj7PGQCEfGgEuXf2/O7Tyxh/QwbFzLQnc88oWkyklAAfkPEVtrXQAMlZ6YqRzSe/aJZX2ey3pvebq0s7RC3mFgWxFS4tSwDov4IhJLwk2kME9LEA5aNuqgZ9K5k5KAG4Izm+UdxyPbgEylViVXhj/aqX9WlPPTXxBieX1BbK8Tp9cq+CMOkIAzrAf3XrV5n+jg3tYgHJUzpQ2SdpPCaD8GUn5zgJbOgMZKz09dkr75jXXVMrv03bDu29NnhvnichAphdpo7CDwwxwyAu+H76PDG5iAcpR93fFL0iGAw9whH9CjYIz5xACyFhpx+gH3h7Hoeu/x7L4nXWl7aPX8ooC2cpd0CC/EBECcIWxmx64ciM3YjiKBSiHFQ6UPipZbj0EHJFfWpTh+RJAptK9kzU7D+3+rOu/x/hL3jftgVKOVxTIcB4b+TynEXDpmJV+2vlIeicl3MUClMO2rI4nZc31lAAcuWjWB8pd1kIIIGPpEyN/3NHbe7KrP397vOb85MmD3bySQLbCRS0yeXaqBZwZS8uujeOYzbgcxgKU44ZW9v+lZNh+EnBEtKBJXj03NQBZsmOJN/nS3rtd/fmT5ya/bSctt0sCWU6CWkKFFzQSAnDHXVu7Bx4kg+PnXhK4L/HtOklTlAAc4HsKF3O7P5C10vbRBR1961a49nO3bbzmj5Kdo2fxCgLZyncUJZ91XsAJRmMmMZsI4T4WoCrAtiv7fymrP6cE4Ibc2XUKTqohBJCl1GriuZG/cOpnjmMvfW7iU7x4QLaC0+vkn1pLCMARVvrA4FV9OyjhPhagKsRUEtwoaTclAAe8suUzn7sC2UqeHT+u/Ya1fa78vG0jez6WvDDOd4KALC/BnlG0lDuRAYc8HSp/OxkqAwtQFeKht27aZ6WYEoAb/Ll5Bec2EALIWGnHSN9lcVz2tzq0xetaku2j7+AVA7KVu6RJXlNICMAR1trr7++6foQSlYEFqApSPDDvz43RzygBuCFa3CoTcRoGspTun4xyL+3+ctn/nHsn70kPTQW8YkCGE59aX+ECdqMFHPKj4e7+b5Chgs7DJKgcW1avTiT1UAJwg6kNFM5nIAxkLXny0P+5JH7X2eX687X3v3NB8uShDl4pIFthe4EPfgB3pJ61PTLGkqJycAauMINd/YNG+g4lADfkLm2SacoRAsiQnUxN6YX07rIdYe9KvqUS42sg00lPMVLu3HpCAK4w+uLWlQN/S4gKOxeToAJf1CC5VtIEJQAHrq2eUX5JgRBAxkrbR89v39Tzh+X2cy3edM07Ss+Mn8IrBGQr31mUDNt/AI44WLJePxkqDwtQFeiBK+InjPRRSgBuCM6oU8B20EC2rFXy7OhnyulHWhbHwdRTYx+S5e4nINPr7Nn18k+qIQTgzDVb732wu/c5QlQeFqAq1MREeIskDlrAEVFHQfL5ZBbIUvLCeHP7hrXvL5efZ+zQ7s+neybn8MoAGfI95RdzpzHgkMfztvFjZKhMLEBVqIffdsNBI/VSAnDkZNwSKXdeIyGAjE1tP7h+WdzTNNs/x9JbNp+QPjn6x7wiQLbCBU0yDWwwCbjCGLPuvlVreJxMpc55SFC5Oh5NviTpJ5QA3BC1t8jU+IQAMmQPlnITL5VmfUvnqWf3fdeOlhiHAVlOZOsChZc2EwJw56jdOtjVdy8dKhcDnwoWx/HLW1dKPFwCcOGSG/kKL28hBJCx0hOHrmzrX3/JbP37iwfWL092jCzglQCyFS0pyOSY7gCuXJ6TJF1HhsrGGbnCbV058IikuygBuCG8qFFea0gIIEN2KjX2hdEtszbCfvrQXTbhdQCy5J+QV+7sOkIArjD2k9uuGvgZISobC1DVcCxPmQ2SRigBuHDAGkWdRToAGSs9NXZG+6Y1/2Om/93FN6y5Lnlu/DheASDDS6mkqKMoGTb3AByx1/OD95Ch8rEAVQUGr+57RjIfpATghuDkWgWnszEWkClrlTw9+jHF8YyNhZbFf5Kf2jn6XuIDGV9Hz2uQf3yeEIA71+T+rVds3kOIyscCVJUYP1B7m2S2UwJwQ9RRlPH55BbIUrJ7sq7t4O47Zurfm9g/52vpS5PMioEs5TxFba10AJxhf2Hz6WfoUB1YgKoSj6xeP2aNNlICcOTk3JhT7uImQgAZK20f+dOFt6zN/Ctxf9B3zRlT20f+M8WBbEULm2XmBIQAHGE8s254eVyiRJXMcUhQPYa7+r4ho7+hBODKILqFQTSQMTua+GbX1Ley/nfG9pS+q/GU2xqBLCc2jYFyFzcTAnDlGmzsPYMr+u+nRBWdp0lQbQe51yOJvXcAF/A1AmBGlLaPLFnSu3ZJVn//kt5rrp7aOXoepYFs8fV1wCmTqTE3kKG6sABVZYZX9P6DpC9QAnBDcF6D/OMiQgBZKllNvTB+V1Z//dSzE19UaukMZHm9PLlWwel1hAAcYa398LYV/b+iRHVhAaoK5UzSJ2k/JYDyZyRFnXPZShrIWPL02JvaNvT0TPff23bduz6Y7BrnVkYg04ulUdRZpAPgjudrbHorGaoPC1BV6P6u+AVjzM2UANzgn5BX7mw+1QWyljwz8r63x3E4XX/fsviddaWnxnooC2QrvLBBXmtICMAR1tqN962KD1Ci+rAAVaVa95c+JulfKQG4IVpSkMlxygaylO6dqHnmwO7PT9ffN/GSd7c9UMpRFsiOiXyFi7jJEHDI3y/7cfoXZKjSczYJqteyH7z3rcbqXkoAbpj48R5NPrqXEECWA6MaP81dWnv6j/ru2HEsf097vOb8yZ8e+CdNsvMdkKVo2VyFFzUSAnCDtdZ0DK/se4gU1YmP06vYcFf/X0n6PiUARwbZ85vl1XMzBZDpyHgs8dJd6d3H+vekz01+h8UnIOOJTEuk8PwGQgDOXGT1NRafqvy8TYLqlvhaL2mKEoADfE/RYr5mAGSttH30sra+Nd1H+98v7F/7x6Wdo2dQEshW1FGQfNZ5AScYjflBspkQ1Y0FqCq37cr+Xxrpk5QA3BDMq5d/Ug0hgCwlVsmz40f3fIo49rRj7A4iAhlfD0+vU3BqLSEAV1jd+sCV8U5CVDcWoKDJUnCTpN2UANyQ7yzyAD8gY+lz48XFG9/df6T/XdvB3XckL47znSAgQ8YzipZyRzDgkKfqppIPkQEsQEEPvXXTPmM0QAnAkRN3MVJwHg9cBbI2tX2077I4PuxbLJbF1xaSHWP/L+WAbOUubZLXFBICcISx5tp7r45HKQEWoCBJat0/7zOS/okSgBvC9laZiFM4kKV0fykM97/4tcP98+N7xu5JR6YCygEZTmRrA4XzWwgBuMLq4cHu3m8RAhILUHjFltWrE09pDyUAR07etb7CBQzAgaxNPTHyf7THa85/oz+3qH/twtL2kSUUA7IVLeYDGMAhqfVNj4yxpIDEAhR+w9buG4ckfZsSgBtyl/AVBCBzk6lJdk19443+mN01/i2VGF8DmU5cipGCc3nEGuAMaz43vKLv7wiBfz+PkwC/KTG6TtI4JYDy9/JDWAuEALK+Nu4YOXdh/9o/fq3/fXHvmv+ZPDP+JkoBWV70jCI24QBcctCmpRvJgN/EAhR+y7au/idl9BFKAG4ITp8jn22ogeztGLtDcfx746ZlcRxMbR/9kCx3PwFZyp1dp+CkGkIAjrDSTcNXxbsogd/EAhR+/2QRJu+T9CwlADfkO4qSz2fCQJaSF8cb2kb2fuB3///jB/bcme6dZBUYyJLvKVzcSgfAGebXNWnjJ+iA38UCFH7P8PL4kDVmMyUAR07kLaHCCxoJAWQseXKkZ1l87b9/7/UPetedlOw49EeUAbIVzW+WV58jBOAM03PfqjUTdMDvzVtIgFczvKL3LyT9mBKAG8JFLTJ5nxBAhtKRqWB879hd//v/Ht0//l07mjCWArKcxtYFyl3WRAjAHQ8Mdfd+jwx4NQya8BpXe2Ntanok8VALwIVDNvIVtbUQAshY6cmRKxbH1yxq2/yu/5RsH7mMIkC28ksLMjmmLIArl0nJ9pABr4WzOV7T8Kq+R43RVykBuCF3QaP8QkQIINOhtVXpuamvJrum7rIJOYAs+SfUKDirjhCAI6zsJ4a6B35OCbwWFqDw+ibNRkkjhAAcYIyijiIdgIwlT42dnj43zsEGZHlJkxQtK0qGTTYAR+wulXLvIQNeDwtQeF2DV/c9Y6x5PyUAN/gn1yg4g0+LgUxZvp0OZC04r0H+XO7qBVxhZPsfeuumfZTA62EBCm8ozZdul/QkJQA3REuLUsAnxgAAR+U8RW2tdADc8fM0Sj9HBrwRFqDwhoaXx+PWaAMlAEdO7I2BokuaCQEAcFK0sEVmTkAIwJWxp0nXDS+PS5TAG75XSIDDMdzV/y1Jw5QA3JCb3yyvzicEAMCtyUljTrmLmwgBOMPevbXrxh/SAYd1jicBjuDk0iOJPX8AB5jQU9RWIAQAwClRR0HG52vkgCMmrNKNZMDhYgEKh22oe+AfZcR3ewFHBG+pl398nhAAACf4J9coOJ2NNAB32A8Nd8e/pgMOFwtQOCKhTTZL2ksJwAHGKOpgC2sAgAuzEqN8Z5EOgDuez6fpB8iAIzrVkwBH4gfd8V4Z3UwJwA3+CXkF8/g0GQBQ3nIXNsprjQgBOMNuuG9VfIAOOBIsQOHITzVh8nFJP6cE4Ib8koJMjtM9AKA8mbyn6PIWQgDueKzz0fQrZMCRYkaCIza8PC55Jl1HCcCRgf2cQLn5zYQAAJSlqK0gU8POrYAjrLWmJ47jlBQ4UixA4ahs7brxhzL6a0oAjgzuL22WaQgIAQAor8lIS6Tc+Q2EANzxleGVfQ+RAUd1zicBjpa1yVpJk5QAHBAY5ZfwcFcAQHmJOgqSx2YZgCNGfT/pIwOOFgtQOGrD3fGvZXUHJQA3BGfVyT+phhAAgPK4Lp1Rp+DUWkIAjrBG73vgyngnJXC0WIDCMcnbJJa0ixKAI8dsZ1EyfNIMAJhdxjPKLykQAnDHzvrJ5CNkwLFgAQrH5L5V8QFrFVMCcOSkX4yUO49nbQAAZlfu0iaZphwhAGeY9fdeHY/SAcc0FyEBjtWyHyeflfQYJQA3hG2tMhGnfwDALE1jawOFC1oIAbjjoaGu3m+TAceKGQiOWRzHqbWmR5KlBuDAib/WV3g5A38AwOyIFrfKhExDAEekMrZHxjDXw7HPQ0iA6TC8su8hY3U3JQA3hBc1yWsOCQEAmFH+3LyCc/kqOOAKK/OZoa4Bvu2CacECFKZNyTPrJfG9YMCJGYBRtJSHvwIAZpAxijoLYisMwBkvJak3QAZMFxagMG22dfU9ZY39MCUANwSnzVHwZra/BgDM0HVnXp38E2sIATjCyNz04KrNL1IC04UFKEyr+sn0Vkk7KQG4IVpalHw+iwYAZDyRDYyidu68Bdxh/2V/oXgHHTCdWIDCtLr36njUyPRRAnDkItASKrywiRAAgEzlFrTIqw8IATjCGLv+sfnvmKIEpnXuQQJMt8Gu3q9IeogSgBvChS0yNT4hAADZTGTrA4WXNhMCcIb93mDXjffRAdONBShkMMowVsb2SEqJAThwyEaewrZWQgAAMhEtLcgEfN0bcMSUrLmWDMgCC1DIxCtbdX6FEoAbwvMb5BUjQgAAppV/Yl65M+sIATjDfnxoZf+/0gFZYAEK2b25Am+DpAOUABxgjKKOIh0AANN3aZEUdc6VDHc/AY540Ubpe8mAzNYISICsbL2i93nJfIASgBuCN9Uo4FNqAMB0XVcuaJA/l7trAWcY2ze8PH6JEMgKC1DIVOFA6XYj/YoSgBvySwoSz+kAABzrPDb0FC0qEAJwxz8U9p/zeTIgSyxAIVNbVseT1mojJQBHJgyNOYWXsFMRAODYhItaZGrZYRVwRmp7tqxenRACWWIBCpkbWtn/bSvzQ0oAjkwa5jfLq2PSAAA4yglGU065C5sIAbjCaMvQqoG/IQQyvz6QADNzTkvXSSpRAnDgeA09he08kBwAcHSizqKMz9e5AUeM2zTZQAbMBBagMCOGugd+LumzlADckDunTv6JeUIAAI6If0qtgjfPIQTgjtuGV8bbyYCZwAIUZkyopE/SHkoADjBGUedc8fk1AODwZxZG+Q7uoAXcGe/pmZzJs2s5Zu4yQQLMlB90x3ut9F5KAG7w50YKzmkgBADgsIQXN8prDQkBOMKmduP9XdePUAIzhQUozKwouUPSPxMCcOSQXVqQCblUAABen8l7Che0EgJw5qDVo8Pd/V8lBGYSswrMqOHlcclK6ygBODI2qfUVXtZMCADA64raCzJ5phaAI6yxZq2MsaTATOIqgRk33N3/gJH+ihKAG3KXNctryhECAPDqE4rWULnz+Mo24Aoj86XB7r6fUAIzfr0gAWZFqh5JE4QAHBik+EbR4gIhAACvKuooSh7bVgCOOOR7pV4yYDawAIVZMbiq/3EjfYISgBuCM+sUnFJLCADAb18fzuL6ADjF6n0/XBE/SwjMBhagMGsmJsKbJO2iBOAGPuEGAPwm4xtF7dwhCzjDmidsPvkIITBbWIDCrHn4bTccNNIAJQBHLhitoUKe8QEAeAXPCATcYqTrhpfH45TArM0nSIDZ1PFo8nlZ/R0lADeE7HIEABC7pAKusTJDgyv77qEEZhOzCMyqOI5T45m1ktgCFHBhwpH3FC5oJQQAVLloaUEmZCoBOCLxrekhA2YbVw3MusGuvh9J2kIJwA3hxY3yWkNCAECV8udGCs7hK9mAM4z59NaVvf9ECMw2FqBQFhJjrpM0SgnAhSuHUb6jSAcAqM6JrKLlc8WWFIAz9tnJ0o1kQFlMI0iAcrCtq+8pyd5OCcAN/im1Ck6bQwgAqDK5c+rkH58nBOAKa+Lhq+PdhEA5YAEKZWP8QN37Je2gBOCGqKMo4/MZOABUCxN6Ctu5AxZw5piVfnmgWPwUJVAuWIBC2Xhk9foxyW6mBODIBaQpp9yFTYQAgCoRzm+WV+cTAnBEKq1/bP47piiBspk/kADlZKir/y4rPUgJwJHJyKIWmVomIwBQ6UxjTuElzYQAHGGtvXe4u//7lEA5YQEKZTa6MdaT1yMpJQbgwCEbeooWFQgBABUuv6QgBXztGnDEpJ8G15EB5YYFKJSdwe7ev5f0JUoAbgguaJA/NyIEAFTqef5NNQrOrCME4Ahr7ce2XrX53yiBcsMCFMrzjRl4myQdoARQ/oykqHOuZPhkHAAq7yRvFHXw4HHAIS8EQXgzGVCW83wSoBxtvaL3eWPMrZQA3OCfmFeOT8cBoOKEFzTIK3KXK+AKK9v7wJUb91MC5YgFKJSt1v2lDxvpV5QA3BAtLcjwfBAAqBgm8hS2tRICcOWYlX5aPHDOFymBcsUCFMrWltXxZGq0gRKAI4Oe+kDhpeyQBACVIlzYIpNnp1PAncGY6dmyenVCCJQrFqBQ1oa7+r8jmR9QAnBksnJ5s7z6gBAA4PokoSVUeGETIQB3fGOwq28bGVDW1xYSoOzfpKm3XlKJEoADfE9Re4EOAOC4aGlB8vlaNeAEozFrk42EQNnP7UmAcrd11eZfSPo0JQA3BPPq5J9YQwgAcPU8ftocBW+eQwjAESbVB4dXxtspgXLHAhScMFUK+iXtoQTgwijIKOosiM/NAcBBvnn57icArng68PK3kQEuYAEKTnjorZv2GaObKAE4Mn+Zm1dwbgMhAMAx4UVN8ppDQgCOMNZsuL/r+hFKwAUsQMEZrfvnfdIY/YwSgBuixa0yIZcZAHBmYlDrK7y8hRCAI6z0yGB379cpAWeuMySAK7asXp3YNF1HCcANpjZQuICJDAC4ImxrlYmYHgCOSD2ZHhljSQFXcIWBU4ZW3rhV0l9SAnBD7tImmaYcIQCg3CcFxUi58/jqNOAOc+dgd99P6ACnrjUkgHOn2lTrJU1QAnDgePWM8kt4mC0AlLt8Z1EybB8BOOJgSaaPDHANC1BwzuCq/scl+2eUANwQnFGn4NRaQgBAuZ6nz6qTf1INIQBHWOmWB7t7n6MEXMMCFJw0ORHdLImTLuCIqKMgeXyyDgBlx/eUX1KkA+AKa56oSRs/Sgi4iAUoOOnht91w0Fr1UwJw5GLTEil3Ps8WAYByE13WJNMQEAJwhdH6+1at4XEkcHNOQAK4atmPky9a6W8pATgyyWkryNT4hACAcpnHzgmUm99MCMAVVoND3X3fJQRcxQIUnBXHcepbu1YSW48CLkx08p7Cy1sIAQBlIr+kIJNjOgA4IklS20MGuIwrDpy2deXAI8bqG5QA3BBe2CivNSIEAMwy/4S8gnl1hAAcYWU+te2qgZ9RAi5jAQrOS21yvaQRSgAuXHXMy1t9AwBmjZEUdRQlw+YQgCP2aap0Exng/FSABHDd8Kr4aWN1OyUAN/gn1yg4nU/dAWDWzsPnNsg/Pk8IwBFGdmD46ng3JeA6FqBQEcYOzvmApB2UANwQdRRkfD55B4AZn8iGnqK2AiEAV45Z6Zf7C8d9mhKoBCxAoSI8snr9mLV2IyUARy4+jTnlLm4iBADMsNz8Znl17EgKuMLadN1j898xRQlUxByABKgUwysHvi5pGyUAN0QLW2TmBIQAgJka+DcGii5pJgTgDPvdoZU3/oAOqJjrEAlQSV7ZmjSlBOCAnKeorZUOADBDoqVFKeDrz4AjJr0k2EAGVBIWoFBRtq0a+KmMvkgJwA3BeQ3yj4sIAQBZn29PrlVwBhtAAK4w0ke2XrX53yiBSsICFCpOTslmSfspATgxuFLUyVbgAJDtydYo7ODB44BDXvD83K1kQKVhAQoV5/6u+AVZ3UIJwA3+CTUKzuJTeQDISu6CRvkF7jYFnGHspgeu3MgH6qg4LEChIhUOJn8mWW5ZBRyRX1qQyXFJAoBpn8dGvqK2FkIArhyz0k87H0nvpAQqEaN9VKQtq+NJWXM9JQBHBlt1gXKXNRECAKZZuKhFJu8TAnCDNbJr4zhmUyVUJBagULGGVvb/paTvUwJwQzS/WV59jhAAMF0D/ZZQ4QWNhADc8fWt3QMPkgEVe10iASpZ4mu9pClKAA7wPYWLW+kAANMk31GUfDZ5AJxgNGYSs4kQqGQsQKGibbuy/5ey+nNKAG7InV2n4KQaQgDAMQpOnyP/1FpCAI6w0gcGr+rbQQlUMhagUPGmkuBGSbspATjAGEWdRfF5PQAcw6nUM4qWFggBuOPpUPnbyYBKxwIUKt5Db920z0oxJQBHLkzFSMF5DYQAgKOUu6RJXlNICMAR1pjr7u+6foQSqPhxPglQDYoH5v25pH+iBOCGsL0gE3GJAoAjHtzX+goXtBACcMePhlf0fpMMqIprFAlQDbasXp0Yo3WUAByaQM1nAgUARypsb2UBH3BH6lnbI2MsKVAVY3wSoFoMdvUPGuk7lADckLuUr5AAwBEN7IuRgvMaCQE4wsh8YevKgb+lBKrmOkUCVNUbPkiulTROCcCBQZlnFC1tJQQAHKY8mzgALjk4JTNABlTVfJwEqCYPXBE/Ya39KCUANwSn1ylgG3EAeOPz5dn18k+qIQTgCGPMex7s7n2OEqgmLECh+uTTWyRxsgccEXUUJZ/P9AHgNfmeoiXcMQo45PEoafg4GVBtWIBC1RleHh8yUi8lAEcuVC2hwvMbCAEAryFc0CSvPkcIwBHGmHX3rVozQQlU3bieBKhGHY8mX5L0E0oAjkyu2lpl8j4hAOB3J7J1gcJLmwkBuHPUbh3s6ruXDqhGLEChKsVx/PKWpxJbngIuDNUiX+Eivl4CAL8rWlKQyTGkBxxRssb0kAHViqsVqtbWlQOPyOprlADcEF7YIK81JAQAvMI/Ia/c2XWEAFxh7CeHu3r/mRCoVixAobqvASVzg6QRSgAuHLBGUWeRDgAgyUiKOudKhk0aAEfs9fzgPWRANWMBClVt8Oq+ZyTzQUoAbghOrlVwOp/2A0BwXqP84yJCAK6wtn/rFZv3EALVjAUoVL3xA7W3SWY7JQA3RB1FGZ9P/AFUsZynqK2FDoAz7C9sPv0MHVDtWIBC1Xtk9foxKb2BEoAjF67GQLlLmggBoGpFC5tl5gSEABxhPLNueHlcogSqfhxPAkAa6h74poz+hhKAI5Ovy1uYfAGozsF7Y065i5sJATjCGnvP4Ir++ykBsAAF/MbFweuRlFACcEDOU9TWSgcAVYevIQNOmUyN4ZsWwCtYgAJeMbyi9x8kfYESgBuC8xrkH58nBIDqOe+dXKvg9DmEAFxh9KFtK/p/RQjgZSxAAb8hZ5I+SS9RAnBhTPfynQBsQQ6gOk56RlFnkQ6AO57PJ8n7yQD8BxaggN9wf1f8gpVupgTgBv+EvHJn1xECQMULL2qU1xoSAnCEtXbjfaviA5QA/gMLUMDvOFiY+zFJ/0oJwA3RkoJMjssZgMplIl/h5S2EANzx98t+nP4FGYDfxogd+B2PzX/HlDW6jhKAIxOzukDhpewIBaByRe0tMjU+IQA3WGvN2jiOU1IAv40FKOBVDHf1/5WVvY8SgBvCBU0yDQEhAFTeYL0lUu68RkIAjjBGXx1e2fcQJYBXuaaRAHitq0ewXtIUIQAH+J7yiwt0AFBxoo6C5LPZAuDG/EFjnpf0EgJ4dSxAAa9huGvzvxjpk5QA3BCcXS//pBpCAKic89oZdQpOrSUE4AqrWx+4Mt5JCODVsQAFvI7JUnCTpN2UANyQ7yxKhjsFALjPeEb5JdzZCTjkqbqp5ENkAF4bC1DA63jorZv2GaMBSgCOXNSKkXLn1hMCgPNylzbJNOUIATjCWHPtvVfHo5QAXmesTgLg9bXun/cZSf9ICcANYXtBJuLyBsDhiWxtoHB+CyEAV1g9PNjd+y1CAK+PETrwBrasXp14StdRAnDkwlbrK1zAxA2Au6LFrSykA+5IrW96ZIwlBfAG43QSAG9sa/eNQ5K+TQnADblLmuQ1hYQA4Bx/bl7BuQ2EAFxhzeeGV/T9HSGAN8YCFHCYEqPrJI1TAih/xjOKlrYSAoBjJy+jsKMgtlIAnHHApqUbyQAcHhaggMO0rav/Scl+mBKAG4LT6+SzfTkAh+TOrlNwUg0hAFdYc9PwVfEuQgCHhwUo4EiuMVF6q6RnKQG4Id9RlHzuJQDgAN9TuJg7NwF3mF/nbcMddAAOHwtQwBEYXh4fkuwmSgCOXORaQoUXNBICQNmLFjTJq88RAnCG6blv1ZoJOgBHMDYnAXBkhrr6vyzpx5QA3BAuapHJ+4QAUL7T2PpAucvYvRNwyAND3b3fIwNwZFiAAo54lGisTU2PJLZaBVw4ZCNfURtfawFQvvJLizIBXxcGHFGSbA8ZgCPHAhRwFIZX9T0q6SuUANyQu6BBfiEiBICy459Qo+DMOYQAHGFlPzHUPfBzSgBHjgUo4CiZKbNJ0iFKAC4csEZhZ5EOAMrr1CQp31mQDHc/AY7Y6wfBzWQAjg4LUMBRGry67xlr9H5KAG4I3lSj4Iw6QgAon/PS+Y3yjssTAnCEke3desXmPZQAjg4LUMAxqEkab5fMrykBuCFaWpR4zgqAcpDzeD4d4Jafp1H6OTIAR48FKOAY3LdqzYQ1dhMlAEcueo2BwoubCAFg1kULW2Rq2aETcGYMYdJ1w8vjEiWAYziOSAAcm+Gu/m9ZmR9SAnBDuKBFXh2TPgCzOABvzCnHYjjgEHv31q4bGe8Dx3r9IwFw7IzSdZL4RARw4XgNPYVtBUIAmDVRZ1HG5+vAgCMmrNKNZACOHQtQwDQY6h74uYw+TwnADbm31Ms/ngf/Aph5/im1Ck6bQwjAEUa6fbg75pmvwDRgAQqYJqFNNkvaSwnAhdGkUdRZZOtzADM88jbKd3AHJuCQXVGafJAMwDRdBkkATI8fdMd7ZXQzJQA3+MfnFcyrIwSAGZO7sFFea0QIwBFGZsN9q+IDlACmBwtQwDSyYfJxST+nBOCG/JKCTMilEMAMTGTznqLLWwgBuOOxjkdLXyUDMH0YdQPTaHh5XLJSDyUARyaEcwLlLmsmBIDMhW0FmRp24AQcYa01PXEcp6QApg8LUMA0G+7uf0BGf00JwA3Rpc0yDQEhAGQ34G6JFJ7fQAjAHV8eXtn3EBmAab4ekgCYftYmayVNUAJwQGAULeGhwACyE3UUJI9NDwBHjCbG9JEBmH4sQAEZeHmrVnsHJQA35M6ql/+mGkIAmHbBmXUKTq0lBOAIa/S+bV19T1ECmH4sQAEZyafpTZJ2UQJw5JjtKEqGOxQATB/jGeUXc4cl4JAnFSYfIgOQDRaggIzctyo+YK1iSgCOXBCLkXLn1xMCwLTJXdYs05QjBOAMc/3w8nicDkBG420SANlZ9uPks5IeowTghqitIBNxaQQwDdPY2kDhfHbZBFxhZYaGuvvupgSQHUbZQIbiOE7l2bWSLDUAByaMNb7ChS2EAHDMosWtMiFDbcARiVG6jgxAtrgqAhkbWjHwsIy+RQnADeGFTfKaQ0IAOGr+3EjBuQ2EABxhZT471D3wj5QAssUCFDADEplrJY1SAnBh5mhe3jIdAI6GMYo6i2JLA8AZLyWpN0AGIHssQAEzYFtX31PW2A9TAnBD8OY5Ct7MtukAjuL8Ma9O/ok1hAAcYWRuenDV5hcpAWSPBShghtRPprdK2kkJwA3R0qLkcw8DgCOYyAZGUTt3UALusP+yv1C8gw7AzGABCpgh914dj1preykBOHKBbAkVXtRICACHLbegRV59QAjAEcbY9Y/Nf8cUJYAZGl+TAJg5w939X5X0ECUAN4QLW2VqmUwCOIyJbH2g8NJmQgDOsN8b7LrxPjoAM4cFKGBGR6fGytgeSSkxAAcO2dBTuKiFEADeUH5pUSbga7uAI6ZkzbVkAGYWC1DADBvqGnhMVl+mBOCG3AWN8udGhADwmvwT8wrOnEMIwBFG+tjQyv5/pQQws1iAAmbjwMt5N0g6QAnAiUGqos6iZLizAcBrnSPmco4A3PFiGiU3kwGYhXkwCYCZt/WK3udl9X5KAG7wT6zh7gYAryrgLknALcb2DS+PXyIEMPNYgAJmSeFg8iEj/YoSgBt4vguA35vHhp6iRa2EANzxD4X953yeDMDsYAEKmCVbVseT1mojJQBHJpr1gXLscAXgN7y8U6ZPCMAVqe3Zsnp1QghgdrAABcyioZX935bV/ZQAHJlsLmiRVx8QAoC8ppxyFzUSAnCF0ZahVQN/QwhgFq+dJABm+SC0/jpJJUoADoxdA6Owna/bAHh5cwLj87VcwBHjNk02kAGY5bkvCYDZtXXV5l9I+iwlADfk5tXLPzFPCKCKBafUKngzGxMADrlteGW8nQzA7GIBCigDoZI+SXsoATjAGEWdc8V9D0C1jp6Noo4iHQBnrtt6JmfyHyAEUAaXUBIAs+8H3fFeK72XEoAb/LmRgrfUEwKoQuHFjfJaQ0IAjrAyN9zfdf0IJYDZxwIUUC6i5A5J/0wIwJFDdklBJuQyClQTk/cULuA5cIA7B60eHV7R+zVCAOWBkTNQJoaXxyXZtIcSgCNj2tpA4fxmQgBVJGovyOQZPgOOsMaatTLGkgIoD1xBgTIytPLGrUb6K0oAbshd1iyvKUcIoBoGza2hcuc1EAJwhJH50mB3308oAZTRtZQEQJlJ1SNpghCAA4NbzyhaXCAEUAXyy+ZKHtsPAI445HulXjIA5YUFKKDMDK7qf9xa+3FKAG4IzqxTcEotIYBKPs7PqpP/phpCAI4wxtzywxXxs5QAygsLUEAZmpqM3iPpOUoAbog6itwZAVSqwCjPnY6AO6x5Ig1LHyUEUH5YgALK0MNvu+GglR2gBODIxbQ1VMizYYCKFF3SLNPIs94AVxjpuuHl8TglgDIcM5MAKE/LHk2/IKu/owTghrC9IFPjEwKopInsnEA5drsE3GE1OLiy7x5CAOWJBSigTMVxnBrPrJXE1rGACxPVvKdwARNVoJLklxRkQobLgCMST946MgDliysqUMYGu/p+JOmblADcEF7UJK81IgRQAfzj8wrm1RECcIUxn966svefCAGULxaggDJn0+Q6SaOUAFy4qhrlO3hYMVABE1lFnUXJsLkA4Ih9drJ0IxmAMh8qkwAob8Or4qclezslADf4p9QqOG0OIQCH5d5SL//4PCEAV1gTD18d7yYEUN5YgAIcMH6g7v2SdlACcEPUUZTxuXMCcJEJPYVt3MkIOHPMSr88UCx+ihJA+WMBCnDAI6vXj0l2MyUARy6uTTnlLmoiBOCgcH6zvDp2tARckUrrH5v/jilKAA6MkUkAuGGoq/8uKz1ICcAN0aIWmVomsYBLTGNO4SXsZgm4wlp773B3//cpAbiBBSjAmVGxsWlq10pKiQE4IOcpamulA+CQ/JKCFPD1WcARk34aXEcGwB0sQAEO2bZq4KeSvkQJwA3B+Y3yjuNBxoATx+ubahScWUcIwBVGf7b1qs3/RgjAHSxAAa4dtIG3SdJ+SgAujI2lfAdbuQPlf7AahZ1FOgDueMH3creQAXBsLksCwC1br+h93kq3UgJwg39iXsGZcwgBlLHwggb5hYgQgCOsbO8DV27kA1nAMSxAAQ4qHkg+YqRfUQJwQ35pUYbnygBlyUS+Qp7XBrhzzEo/LR4454uUANzDAhTgoC2r48nUaAMlAEcGy/WBwkvZWQsoR9GiFpk8O1YC7lxUTc+W1asTQgDuYQEKcNRwV/93JPMDSgBuCC9vllcfEAIop4FwS6jcBY2EABxhrL4+2NW3jRKAo9ddEgAOH8Cpt17SFCUAB/ieovYCHYAyEi0tSD5fjwWcYDSm1GwkBODw/JUEgLu2rtr8CyvzaUoAbgjm1Sk4qYYQQBnwT5uj4M1sEAC4wqT64OBVfTsoAbiLBSjAcaWSPyBpDyUAF0bPRmFHQdxvAczyoegZ5ZdyRyLgkKcDL38bGQC3sQAFOO6ht27aZ4xuogTgBn9uXv65DYQAZlHukiZ5zSEhAEcYazbc33X9CCUAt7EABVSA1v3zPmmMfkYJwA35xa0yIZdgYFYGv7W+wgUthAAcYaVHBrt7v04JoAKuwSQA3PfKVrQ9lADcYGoD5eY3EwKYBWFbq0zEEBhwROrJ9MgYSwrAfVx9gQox2NU/KOkvKQE4Mgm+rFmmKUcIYCYHvsVIufP4CizgDnPnYHffT+gAVMh1mARABV2iU62XNEEJwIHj1TPKL+EhyMBMyncWJcM2AIAjDpZk+sgAVA4WoIAKMriq/3HJ/hklADcEZ9QpOLWWEMBMHG9n1ck/qYYQgDPMzQ929z5HB6BysAAFVJjJiehmSVysAUdEHQXJ444MIFO+p/ySIh0AV1jzRD5t4ENVoMKwAAVUmIffdsNBGcvtyoArF+KWSLnzGwkBZCic3yzTEBACcIXR+vtWreGxEkCljXtJAFSezkfSO630t5QA3BC1t8jU+IQAspjHzgkUXtZECMAVVoND3X3fJQRQeViAAipQHMepb+1aSWxZC7gwQY58hZe3EALIQLS0IJNjyAs4IklS20MGoDJxNQYq1NaVA49I+jolADeEFzbKaw0JAUwj/4S8cmfXEQJwhJX51LarBn5GCaAysQAFVPJFPE02SBqhBODCFdko3zmXDsA0MZKijqJkeMg/4Ih9mirdRAaggoe7JAAq1/Cq+GlrdBslADf4J9coOH0OIYBpEJzbIP/4PCEARxjZgeGr492UACoXC1BAhZvYP+eDknZQAnBD1FGU8bljAzgmOU9ReysdAGfYX+wvHPdpOgCVjQUooMI9snr9mLV2IyUARy7MjTnlLm4iBHAMostbZOYEhABcYe36x+a/Y4oQQIWPc0kAVL7hlQNfl7SNEoAjk+eFTJ6Box7cNgYKWcQFHGK/O7Tyxh/QAaiCazQJgOrwypa2CSUAB+Q8RW0tdACOQrS0KAV8jRVwxKSXBBvIAFQHFqCAKrFt1cBPZXQnJQA3BOc1yj8uIgRwJMfNybUKzqgjBOAII31k61Wb/40SQHVgAQqoIjklmyXtpwTgxKBcUSdbyAOHf9CYl48ZAK543vNzt5IBqB4sQAFV5P6u+AVZ3UIJwA3+CTUKzuJuDuBw5C5olNcaEgJwhJE2PXDlRj4YBaoIC1BAlSkcTP5MstzqDDgiv7Qgk+NyDbzuRDbyeW4a4NIxK/2049HkS5QAqgsjWqDKbFkdTxrjXUcJwJFBel2g3GVNhABeR7ioRSbvEwJwgzWya+M4TkkBVBcWoIAqNNjVd6+k71MCcEM0v1lefY4QwKsNZltChRc0EgJwx11buwceJANQhddsEgDVKfG1XtIUJQAH+J7Cxa10AF5F1FGUfB7WDzjBaMwkZjMhgOrEAhRQpbZd2f9LGfspSgBuyM2rl39SDSGA3xCcPkfBqbWEAFxhzfsHr+rbQQigOrEABVSxqalcLGk3JQA35DuL4j4P4GXGM4qWFggBuOPpnIk+RAagerEABVSxh966aZ+svZESgCMX7WKk4LwGQgCScpc0yWsKCQE4whpz3f1d149QAqjisSwJgOpWOHjOpyX9EyUAN4TtBZmIyzeqfABb6ytc0EIIwB0/Gl7R+00yAFV+/SYBUN22rF6dGKN1lABcmng3EwJVjYVYwCmp9cxaGWNJAVT5OJYEAAa7+getsfdQAnBD7pJmvnqE6h288lVUwClG5gvDK/r+jhIAWIACIEkK/PQ6SeOUABwYzPPwZVQxHsYPOOXglMwAGQBILEABeMUDV8RPWGs/SgnADWw/j2qUm1cv/6QaQgCOMMa858Hu3ucoAUBiAQrAb8qnt0h6lhCAG6KOouRzLwiqhO8pXNxKB8Adj0dJw8fJAOB/YwEKwL8bXh4fstb2UgJw5CLeEiq8oJEQqArhgiZ59TlCAI4wxqy7b9WaCUoA+PexKwkA/Kbh7v4vSfoJJQBHJuWLWmTyPiFQ2RPZukDhpez+CDh01G4d7Oq7lw4AfhMLUAB+Z7xgrGdtjyS2ygVcOGQjX1FbCyFQ0fJLCjI5hq2AI0rWmB4yAPhdXMkB/J6tKwcekdXXKAG4IXdBo7zWkBCoSP4JNQrOriME4Agj3THc1fvPlADwu1iAAvDqg4eSuUHSCCUAFw5Yo6izSAdU4kT25fe24WH7gCP2msB/LxkAvBoWoAC8qsGr+56R9AFKAG4ITq5VcAZ3iaDC3tfnNco/LiIE4Apr+7desXkPIQC8GhagALz2GCJKbpPMdkoAboiWFqWAO0VQIXIezzcD3Bo5/sLm08/QAcBrYQEKwGsaXh6PS+kNlAAcuag3BgovbiIEKkK0sEVmTkAIwBHGM+uGl8clSgB4zbEqCQC8nqHugW/K6G8oATgyab+cSTsqYIDamFOOxVTAGdbYewZX9N9PCQCve30nAYA3HlR4PZISSgAOyHmK2lvpAKdFHUUZn6+TAo6YTI3hjnkAb4gFKABvaHhF7z9I+gIlADcE5zbIPz5PCDjJP7lGwelzCAG4wuhD21b0/4oQAN4IC1AADkvOJH2SXqIE4MJc4OU7SNi6Hu6NTI3ynXPpALjj+XySvJ8MAA7rMk8CAIfj/q74BSvdTAnADf4JeeXOriMEnBJe2CivNSQE4AhrzA33rYoPUALA4WABCsBhO1iY+zFJ/0oJwA3R0oJMjks93GAiX+HlLYQA3PH3yx4pfZkMAA4Xo1IAh+2x+e+YkrxrKQE4MqGfEyi8rIkQcELU3iJT4xMCcIO11qyN4zglBYDDxQIUgCMy1N37PSt7HyUAN4Tzm2UaAkKgvAekLZFy5zcSAnCEMfrq8Mq+hygB4Iiu9yQAcOSjjmC9pClCAA7wPeWXFOmAshZ1FCSPh+YDjhj1vKSXDACOFAtQAI7YcNfmf7Gyd1ACcENwVp38k2oIgfJ8f55Rp+DUWkIAjjDW3PrAlfFOSgA4UixAATg6UXqTpBcJAbgh31mUDHeYoMwmsp5RfkmBEIA7nppTKn2YDACOBgtQAI7K8PL4JSM7QAnAkQt+MVLuvAZCoKyElzXLNOUIATjCWHPtvVfHo5QAcFTjURIAOFqtB875rKR/pATgyGS/rVUm4tKPMpnI1gbKzW8mBOAKq4cHu3u/RQgAR4tRKICjtmX16sRTuo4SgCMX/Vpf4eUthEBZyC9ulQkZigKOSOXZtTLGkgLAUY9FSQDgWGztvnFIsndTAnBD7uImec0hITCr/Ll5+efylVDAGdZ8bqhr4DFCADgWLEABOGaJMddLGqcEUP6MZxQt5aHPmM03oVHYURCPxAecccCmpRvJAOBYsQAF4Jht6+p/UrLsiAI4IjhtjoI3s+09Zun9N69OwUk1hABcYc1Nw1fFuwgB4FixAAVgesYmUXqrpGcpAbghWlqUfO5BwQzzPUXt3IEHuMP8Om8b7qADgOnAAhSAaTG8PD4k2U2UABwZALSEyl3QSAjMqPDyZnn1ASEAV1i79r5VayYIAWBaxp8kADBdhrr6vyyrhykBuCFa1CKT9wmBGWHqA4WXNhMCcMcDQyv7/5oMAKYLC1AApnF2Yaw8u1ZSSgzAgUM28hW2tRICMyK/tCgT8LVPwBElyfaQAcB0YgEKwLR6ZYver1ICcEN4QYO8YkQIZMo/Ma/gzDmEAFxh9fGh7oGfEwLAdGIBCsD0j1mSZIOkA5QAHGCMoo4iHZDdW0xSvqMoGe5+AhyxNzTJzWQAMN1YgAIw7YavindZow9SAnBD8KYaBWfWEQLZvL/Ob5R3XJ4QgCOs1eYfdMd7KQFgurEABSATNUnj7ZL5NSUAN+SXFCSez4PplvMU8ZwxwCU/Vz75PBkAZIEFKACZeGXL3o2UANxgGnMKL2GHMkyvaFGLTC07LQLOTA5Num54eVyiBIBMzjEkAJCVoe6+u63MDykBuCGc3yyvjsUCTNMgsymn3EVNhAAcYay+tbXrRsZtALIbG5AAQKaDGaXrJPFJGuDC8Rp6CtsKhMC0iDqKMj5f6wQcMZGaZBMZAGSJBSgAmRrqHvi5lfkcJQA35N5SL/94HhiNY+OfUqvgtDmEABxhpNuHu2Oe3QkgUyxAAchcpFKvJHZTAZyYhRhFnUXJcOcKjnZ0aZTv4E46wCG7ojRh92IA2Q8RSAAgaz/ojvfK6GZKAG7wj88rN6+eEDgq4UVN8lojQgCOMDIb7lsVH6AEgKyxAAVgRtgw+bikn1MCcEO0pFUmZJiAI5zI5j2FC9hNEXDIYx2Plr5KBgAzgZElgBkxvDwuWamHEoAbzJxAuctYSMCRCdsLMjXspAg4wsrYd8VxnJICwExgAQrAjBnu7n9Ast+jBOCG6NJmmcYcIXB4g8rWUOF5DYQA3PHloa6BH5MBwIyNFUgAYCZZpT2SJigBOCAwyi/mYdI4PFFHUfJ4eD3giEOBl2wiA4CZxAIUgBn18ha/9g5KAG4IzqqTf0otIfD675Mz6xTwPgEcYm794Yr4WToAmEksQAGYcfk0vUnSLkoAjhyz3NmC15vGekYRd8oBLnnSRqUPkwHATGMBCsCMu29VfEDG3kgJwJHBQmuoHM/2wWvIXdYsr4lnhQHuMNcPL4/H6QBgxseUJAAwGzofST8n6TFKAG6I2gsyeYYN+J1pbG2gcD67JQKusDJDQ919d1MCwGxgJAlgVsRxnMqzayVZagDlz+Q9hQtaCYHfEi0pyIQMJwFHJEbpOjIAmC2MGADMmqEVAw/L6FuUANwQXtworzUkBCRJ/txIwVvqCQE4wsp8dqh74B8pAWC2sAAFYFYlMtdKGqUE4MKowSjqKNIBkjGKOovi0fSAM15KUm+ADABmdShJAgCzaVtX31OSPkQJwA3BKbUK3jyHEFUuN69e/ok1hAAcYWRuenDV5hcpAWA2sQAFYNaNH5hzq6SdlADcEHUWZXzufanaiWxgFLbzPDDAHfZf9heKd9ABwGxjAQrArHtk9foxa20vJQBHBg9NOeUuaiRElQoXtMirDwgBOMIYu/6x+e+YogSAWR9DkgBAORju7v+qpIcoAbghXNgqU+sTotomsvWBcpc2EwJwhv3eYNeN99EBQDlgAQpAmcxqjDXy1kpKiQE4cMiGnqJFfA2r2uSXFmUCvn4JOGJK1lxLBgDlggUoAGVjsLv372X1ZUoAbgguaJQ/NyJElfBPrFFwJg+gB1xhpI8Nrez/V0oAKBcsQAEor5NSzrtB0gFKAE5MbhR1zpUMd8RUx2td5LUG3PFCGiU3kwFAWc31SACgnGy9ovd5Wb2fEoAb/BPz3BVTBXLc7QY4xUh9w8vjlygBoJywAAWg7BQOJh8y0q8oAbiB5wJV+EQ29BQuaiEE4I5/aD0w7wtkAFBuWIACUHa2rI4nZc0NlADcYOoDhZewM1qlennHw4AQgCtS27Nl9eqEEADKDQtQAMrS4Mq+e2R1PyUAN+Qub5FXzyJFxQ0Um3LKXdxICMAd3xxaNfA3ZABQluMKEgAo2xOU9ddJKlECKH8mMIraC4SoMFFnUcbj65WAGydijVmbcAc5gPKd35EAQLnaumrzL2TMZygBuCGYVyf/xBpCVMrr+eY5Ct7MA+YBZ1jdPrwy3k4IAOWKBSgAZS20pX5JeygBOMCYl++YoYT7fKOogzvaAHfOv3omZ/IfIASAcsYCFICy9oPueK+seQ8lADf4cyMF5zYQwnHhhU3ymkNCAI6wMjfc33X9CCUAlDMWoACU/6AqX/qkpH+mBOCGaHGrTMgQw1Wmxle4sIUQgCvjJOmR4RW9X6MEgHLH6BBA2RteHpdk0x5KAG4wtYHCBSxguCpqK8hEDBEBR1hPpkfGWFIAKHeMLgA4YWjljVuttfdSAnBD7tImmaYcIVwbGBYj5c6vJwTgCCPzpcHuvp9QAoAT4wwSAHDmhGXNOkkTlAAcmBR5RvnFPMTaNfmOomR4jDzgiEO+V+olAwBn5nMkAOCKwVX9j1trP04JwA3BmXUKTq0lhCNyZ9XLf1MNIQBHGGNu+eGK+FlKAHAFC1AAnDI1Gb1H0nOUANwQdRQkjztqyl5gFC3hjjXAGdY8kYaljxICgEtYgALglIffdsNBKztACcCRgUZLpPD8BkKUueiSZpmGgBCAI6xnrx1eHo9TAoBT40ISAHDNskfTL1jpbykBuCFsK8jU+IQoU2ZOoNz8ZkIArrAaHO7q/w4hALiGBSgAzonjOPWM6ZHElsOAA0zeU3R5CyHKVH5JQSZkSAg4IvHkrSMDABcx2gDgpMGuvh9J+iYlADfkLmyU1xoRosz4x+cVzKsjBOCOP9+6svefyADARSxAAXCWTZPrJI1QAnBhxGGU7yzSoZwYo6izKBkeEg84Yp+dSmIyAHB2OEgCAK4aXhU/baxupwTgBv/kGvmnzSFEmci9pV7+8XlCAK6wJh6+Ot5NCACuYgEKgNPGDs75gKQdlADckO8syvjccTPbTOgpbCsQAnDlmJV+eaBY/BQlALiMBSgATntk9foxyW6mBODIwKMxp9zFTYSYZeGCFnl17EwIuCKV1j82/x1TlADg9DiQBABcN9TVf5eVHqQE4IZoYYtMLYsfszb4awwUsggIuOQvh7v7v08GAM6PQUgAwHnG2DS1ayWlxAAckPMUtbXSYZZES4tSwNcgAUdMeol/PRkAVAIWoABUhG2rBn4qmTspAbghOL9R3nE8AHvGu7+pRsEZdYQAXGH0Z1uv2vxvhABQCViAAlAxcqa0SdJ+SgAuzKmkfGdBMtyJM3PRjcLOIh0Ad7zge7lbyACgUrAABaBi3N8Vv2ClWykBuME/oUbBWdyNM1NyFzTIL0SEABxhrTY/cOVGPlgDUDFYgAJQUYoHko9IllvVAUfklxZkeB5R5kzk89wtwKVjVvrpsh8nX6QEgErCAhSAirJldTwpeRsoATgyyaoLlLushRAZixa1yOTZeRBw5+RoeuI4ZnMVABWFBSgAFWeou++7kvkBJQA3RAua5NXnCJHVYK8lVO6CRkIAjjBWXx/s6ttGCQAVNyYhAYCKPLml3npJU5QAHOB7Chfz9bCs5DuKks/XHAEnGI0pNRsJAaAi52gkAFCJtq7a/Asr82lKAG7InV2n4KQaQkyz4PQ6+afWEgJwhEn1wcGr+nZQAkAlYgEKQMUqlfwBSbspAbgw6zIKOwriPp1pTOoZRUu5swxwyNOBl7+NDAAqFQtQACrWQ2/dtM/I3kQJwA3+3LyCcxsIMU1ylzTJawoJATjCWLPh/q7rRygBoFKxAAWgorUeOOdTxuhnlADcEC1ulYkYnhzzAK/WV7iA3QUBV1jpkcHu3q9TAkBFj09IAKCSbVm9OpHUQwnADaY2UDifhZNjFbYXWMgD3JH61q6VMZYUACoZIxMAFW+wq39Qst+lBOCG3KVNMk05Qhzt4K4YKXduPSEAZ5g7t64c+Fs6AKj4MQoJAFQDP0jXS5qgBODAVMwzyi8pEOIo5TuLkuFx7oAjDpZk+sgAoBqwAAWgKjxwRfyEZP+MEoAbgjPqFJxaS4gj7XZ2vfyTaggBOMPc/GB373N0AFANWIACUDUmJ6KbJTHIAxwRdRQknzt5DpvvKb+YO8cAhzyeTxv4cAxA1WABCkDVePhtNxyUsdzmDrgySGmJlDuvkRCHKVzQJNMQEAJwhdX6+1at4fEAAKpnbEcCANWk85H0Tkk/oQTghqi9RabGJ8QbMHMChZc2EwJwhdXg0Mr+vyQEgGrCAhSAqhLHcepZ2yOJrY4BB5jIV3h5CyHeQLS0IJNjWAc4IklS20MGANWGkQqAqrN15cAjkr5OCcAN4UWN8lpDQrwG/4S8cmfXEQJwhdUnt1018DNCAKg2LEABqM6xX5pskDRCCcABxijqLNLh1dJIijqKkuFh7YAj9nk5/yYyAKhGLEABqErDq+KnrdFtlADcEJxcq+D0OYT43S7nNsg/Pk8IwBFW6t96xeY9lABQjViAAlC1JvbP+aBktlMCcEPUUZTxudPn3+U8Re2tdACcYX9xsDD3M3QAUK1YgAJQtR5ZvX7MGm2kBODIoKUxp9zFTYR4RXR5i8ycgBCAK6xd/9j8d0wRAkDVjuVIAKCaDXf1fUPSNkoAbogWsugiSV5joNwlTbwhAEcY6TtDK2/8ASUAVPX4hQQAqt0rWyEnlAAckPMUtfG1M76OCDhlsuRpAxkAVDsWoABUvW2rBn5qZL5ICcANwXkN8o+Lqvf3P7lWwel1vBEARxjpI9tW9P+KEgCqHQtQACApMKVeSfspATgxmVPUOVcyVXgHkDGKOou8CQB3PO/5uVvJAAAsQAGAJOn+rvgFY8zNlADc4J+QV+7s6rsLKLywQV5ryBsAcISRNj1w5UY+4AIAsQAFAP+udX/pY5L9N0oAboiWFGRy1TOUMZGvcBHPvwIc8vcdjyZfIgMAvIwFKAB4xZbV8aQx3nWUANxg6gKFlzZXze8btrXK5H1eeMAN1pPtieM4JQUAvIwFKAD4DYNdffdK+j4lADeEC5rk1ecqf8DWEio8v4EXHHDHXVu7Bx4kAwD8xniGBADw2xJf6yVNUQJwgO8pWlz5X0uLOoqSb3i9ARcYjZnEbCYEAPw2FqAA4Hdsu7L/lzL2U5QA3BDMq5d/Uk3l/n6n1yk4tZYXGnCFNe8fvKpvByEA4LexAAUAr2JqKhdL2k0JwA35zqJkKu8OIeMZRUt58DjgkKfrpkq3kwEAfh8LUADwKh5666Z9svZGSgCODGiKkXLnVt4zknKXNMlrCnmBAUdYY6679+p4lBIA8CrjNRIAwKsrHDzn05L+iRKAG8L2VpmocoY2Xq2vcEELLyzgjh8Nr+j9JhkA4DXGNiQAgFe3ZfXqxFPaQwnAkUFNhS3YhO2FilpQAypcaj2zVsZYUgDAa4zVSAAAr21r941D1th7KAG4oVK+suYVIwXnNfCCAu74/PCKvr8jAwC8zviGBADw+gI/vU7SOCWA8lcpD+2OOosyvJyAKw7aJBkgAwC8PhagAOANPHBF/ISMPkIJwA3B6XXyT6119ufPzatXcFINLyTgCGPMe4avindRAgBeHwtQAHAYbJi8T9KzlADckO8oSr6D9xD5nsLFrbyAgDsej5KGj5MBAN4YC1AAcBiGl8eHrLW9lAAcGeC0hAovaHTu547mN8urz/ECAo6wRj33rVozQQkAOIzxGQkA4PAMd/d/SdJPKAG4IVzUIpP3nfl5TV2g3GVNvHCAO0ft1uGu/r+iAwAcHhagAOCwx5nG2tSslcQWy4ALh2zkK2pz5+ts+aUFmRxDM8ARJWtMDxkA4PAxygGAIzC8qu9RWX2NEoAbchc0yC9EZf9z+ifUKDirjhcMcISR7hju6v1nSgDA4WMBCgCOdNBZMjdIGqEE4MIBaxR2FMp9IquosygZw+sFuGGvCfz3kgEAjgwLUABwhAav7ntG0gcoAbghOLlWwRnle3dRcF6D/OMiXijAEcaob+sVm/dQAgCODAtQAHAUbJTcJpntlADcEC0tSkEZ3mGU85x6ThUA+4s0TD5LBwA4cixAAcBRGF4ejxurDZQAHBnwNAaKLmkuu58rWtgiMyfgBQIcYTyzbnh5XKIEABzFeIwEAHB0Blf2bZHR31ACcENufrO8Or98BmGNOeUubuKFAdzx7cEV/feTAQCOcuxDAgA4etZ4PZISSgDlz4SeorbyeSB51FGQ8XnwOOCIycTTRjIAwNFjAQoAjsHwit5/kDWfpwTghuAt9fKPz8/6z+GfXKPg9DpeEMAVRh/atqL/V4QAgKPHAhQAHKOS9fokvUQJwIVJpFHUWZTMLN555BnlO4u8FoA7ns8nyfvJAADHOAQiAQAcmwdXbX5R1ryXEoAb/OPzCubN3t1H4YWN8lojXgjAEdaYG+5bFR+gBAAcGxagAGAaHCgWPy7pXykBuCG/pCCTm/lhkMl7Ci9v4QUA3PHYskdKXyYDABw7FqAAYDpGp/PfMSV511ICcIOZEyg3v3nG/92orSBT4/MCAG6w1pqeOI5TUgDAsWMBCgCmyVB37/es7H2UANwQXdos0xDM3KCrJVLu/AbCA44wRl8dXtn3ECUAYJrGQiQAgOkcrQbrJU0RAnBAYJRfMnMPA486CpJn6A64YdTzkl4yAMD0YQEKAKbRcNfmf7Gyd1ACcENwVp38k2qy/3fOqFNwai3BAUcYa2594Mp4JyUAYPqwAAUA0y1Kb5L0IiEAN+Q7i5LJ7s4k4xnllxQIDbjjqTml0ofJAADTiwUoAJhmw8vjl4zsACUARwZDxUi58+sz+/tzlzbJNOUIDTjCGq2/9+p4lBIAMM1jLhIAwPRrPXDOZyX9IyUAN0RtBZlo+odFpjZQuKCFwIArrB4eXtF3NyEAYPqxAAUAGdiyenVirXm3JEsNoPyZGl/h5dO/UJRf3CoTMtwCHJHKs2tlDNduAMgAIyIAyMjLWzfbb1MCcEN4UZO85nDa/j5/bl7+uQ2EBVxh9NmhroHHCAEA2WABCgAy5Pvpekk8RwJw4oA1ipZO08PCjVHUWZChKuCKA7aUxGQAgOywAAUAGXrgyninkT5CCcANwWlzFLy59tj/nnl18k+sISjgCmtuGr4q3kUIAMgOC1AAkLE5U8n7JO2kBOCGaGlR8o/h3iXfU9ReICTgDPPrvG24gw4AkC0WoAAgY/deHY8amT5KAI4MjlpChRc2HfV/H17eLK8+ICTgCmvX3rdqzQQhACDjMRYJACB7g129X5HVw5QA3BAubJGp8Y/4vzP1gcJLmwkIOMLK/HBoZf9fUwIAsscCFADMBGOsPLtWUkoMwIFDNvIUtrUe8X8XLS3IBDx6HHBEyShdRwYAmBksQAHADHlla+evUAJwQ3h+g7xidNh/3j8xr9yZdYQDXGH18aHugZ8TAgBmBgtQADCTJ93A2yDpACUABxijqKN4eH9UUr6jKBnufgIcsTc0yc1kAIAZnAuRAABmztYrep+3Rh+kBOCG4E01Cg7jrqbgggZ5x+UJBjjCWm3+QXe8lxIAMHNYgAKAGVaTNN4umV9TAnBDfklBep3nOpnQU7SoQCjAHT9XPvk8GQBgZrEABQAz7JWtnjdSAnCDacwpvOS1d7YLF7XI1PqEAlyZAJl03fDyuEQJAJjh8y8JAGDmDXX33W1lfkgJwA3h5S0y9cHvD6Sacspd2EQgwBHG6ltbu27k+gsAs4AFKACYrUHwy1s/8wks4MLxGhhFbb//Nbuooyjj8+BxwBETqUk2kQEAZgcLUAAwS4a6B35uZT5HCcANuXPq5J/4Hw8a90+pVXDaHMIAjrDG3jbcHfMMRgCYJSxAAcAsilTqlbSHEoADjFHUOVdGkjyjfEeRJoAzx6+eUZh+gBAAMHtYgAKAWfSD7nivkbmZEoAb/LmRgnMaFF7UJK81JAjgCGPNpuHl8SFKAMDsYQEKAGZZGpU+IennlADcEC4uKFzYTAjAFUaPDnb1foUQADC7WIACgFk2vDwuWamHEoAjg6c6XybyCQG4wUq2R8ZYUgDALI+hSAAAs2+4u/8ByX6PEgAATKsvD3UN/JgMADD7WIACgDJhlfZImqAEAADT4lDgJZvIAADlgQUoACgTw93xr430CUoAADAdzK0/XBE/SwcAKA8sQAFAGZmYCG+StIsSAAAckydtVPowGQCgfLAABQBl5OG33XBQxt5ICQAAjoHVdcPL43FCAED5YAEKAMpM5yPp5/7/7d1pm111nf/776+qCKG1jzcAz0PQB+B1/ne6IXWdJDWENOd//ueqp+Cdc0glQkhStYuVToRmEBUVp1bUttu2002j2B0SU1XbAgwOOKGiDSqDqNAMpgJkqr1+54Y4AUkqSQ1reL3uBULV3u+V1F77w6pakePbSgDAucuRZmdHOncrAVAtBiiAiimKooz+PB4RbhkNAOeml6LcKgNA9RigACpoduPUg5HiX5UAgHPyidnhqe/LAFA9BiiAiupFek9EvKoEACzKS/lUb0oGgGoyQAFU1NzQ5NMR8T4lAODscsTu7ubieSUAqskABVBhx+ffclNEPKUEAJxJ/snRy95+pw4A1WWAAqiww2PbjuWUdikBAKeXUt728LvefUoJgIweJhAAAChNSURBVAp/rZYAoOJyToMH9s5FxF+JAQBveEPzlZnhzmYlAKrNFVAAlT+zTjlF35aIKMUAgD9zKue4VgaA6jNAAdTAzPDEd1KkzykBAH+UIu6YHen8VAmA6jNAAdTlJHsg7YiIeSUAICIinisv7u2VAaAeDFAANTG9fuLZlNJNSgBARIqY7A4Wv1UCoB4MUAA1cumRhdtTxGNKANBy37t0/h2flgGgPgxQADWyb6w4GTldrwQArVbm8X1jYz0hAOrDAAVQMzMjk/8eOQ4qAUBL/cvs6NTXZACoFwMUQB2/eOf+rRGxoAQArZLiWM49VwID1PE9jAQA9TM9uuvHkdInlACgVXK+tTtSPCEEQP0YoABqak1e6ETEC0oA0AopnrkoXXKLEAD1ZIACqKkDw8WLkdPfKgFAG+RI1x8cuu4VJQDqyQAFUOeT8bULd6YUjygBQKNf7yIOdzdO/JMSAPVlgAKose5gsZDLcqsSADRY2RdpPFLKUgDUlwEKoOZmR26YzjnfqwQADfXZmeHJb8oAUG8GKIAmfDHPaWtEnFACgIZ5eSH6JmQAaMB7FgkA6m9mtPOzSHGHEgA0SUrpvfcPT/xaCYD6M0ABNMTJ42v2RISTdACaIaefl2sWPiAEQDMYoAAa4sGrrz+aI08pAUAT5L78nu5gcVwJgGYwQAE0yLqHyk/niG8pAUCt5ZjpDnXuEQKgOQxQAA1SFEXZl9J4RLhVNQB11euLvq0yADSLAQqgYWaGJr+ecnxRCQBq6mPTIxM/kAGgWQxQAA1U5t51EfGKEgDUzEv5VK+QAaB5DFAADdQdLX6ZctymBAB1klLc0N1cPK8EQPMYoAAa6tjRt9wcEU8qAUAdpIhHj1z69o8pAdBMBiiAhjo8tu1YymmnEgDUQRmx7eF3vfuUEgDNlCQAaLZ19+2ZSxF/rQQAFfbl2eHO1TIANJcroAAarizzlogolQCgok729fqvkwGg2QxQAA03Nzr13Yj0GSUAqKQUH5zetOu/hABoNgMUQAtclBZ2RsQRJQComOf6+y56rwwAzWeAAmiBg0PFcxHpRiUAqJKcY9ehDTv8DxKAFjBAAbTEZfMLH4jIvsUBgEpIEd9d943eXUoAtObrPgBtMXjf3qsj8j1KALDqb0RSunJmaHJOCYB2cAUUQIvMDk9+KSIdUAKA1ZRy/LPxCaBdDFAALdPrz1sj4pQSAKyKFMeiTDuEAGgXAxRAy8xt6DyaI31cCQBWQyrjlplNk08qAdAuBiiAFlpY6J+KiOeVAGCF/XKgb+2tMgC0jwEKoIUeuGrnSynybiUAWEk55+sODl33ihIA7WOAAmipS+ff+dGU4hElAFgJOeJwd7jzRSUA2skABdBS+8bGehExrgQAK6Dsz3lLpJSlAGgnAxRAi80MdWYi8peUAGBZpbhremTqW0IAtJcBCqDl+gfKbRFxQgkAlsnRhdzXkQGg3QxQAC13aH3x8xTxASUAWB5p7/3DE7/WAaDdDFAAxIkTa94bEd4cALDUfra2/N8+KAMABigA4sGrrz+aIiaUAGBJ5di2f/Qa3+YNgAEKgN+54qHeZyPim0oAsDTS9OxI58s6ABBhgALgNUVRlH05j0eEW2QDcKF6vV65VQYAfs8ABcAfTI9MHY6ILygBwAXJcefcpqlHhADg9wxQAPyZdCptj4hXlADgPL3Ud1H/bhkA+FMGKAD+zMzmyWci0i1KAHA+ckRnev2uF5QA4E8ZoAB4g+Pzf3FrRHpCCQDOTf5xXNz7uA4AvJ4BCoA3ODy27VhOsUMJAM5Jztu6g8WCEAC8XpIAgNMZPLCnGzmuVAKARbyxuGdmuPM/lQDgzbgCCoDTyqlvPCJ6SgBwFicX+mK7DACcjgEKgNPqbpz4Xop0lxIAnEnO+fa5jZ3HlADgdAxQAJzRQFqYiIgjSgBwGs9eksubZADgTAxQAJzRwaHiuZTSXiUAeDMpYuf+0WJeCQDOxAAFwFldemThjoj4qRIAvM53rnio91kZADgbd8EDYFHWHdhzVcpxrxIAvCb3Rb5yenjqfikAOBtXQAGwKN2hzlci4j4lAHjNF4xPACyWAQqARev1x7aIOKUEQMulOJZ6aZcQACyWAQqARZvb0Hk0RdypBEDL5fR3M5smnxQCgMUyQAFwTk4uDOyOiOeVAGitp996auE2GQA4FwYoAM7JA1ftfClyvkEJgLbK1967uXhVBwDOhQEKgHN22dF3fjwifqAEQOt8fXaos08GAM6VAQqAc7ZvbKzXF+W4EgCtUua+tCVSylIAcK4MUACcl+nhG2Yj4m4lAFrjU92Nk9+WAYDzYYAC4Lz1UlwbEceVAGi8o7nXm5IBgPNlgALgvM0NdX4RKd6vBECz5Yjd3U3Fb5QA4HwZoAC4sDcla3o3RsSvlABorJ9dUr7twzIAcCEMUABckO5g8XJOaZcSAM2UU4zvH73mhBIAXIgkAQAX/u4kp8EDex+KiP9DDIBGOTQ73NkgAwAXyhVQAFy4lHIu05aIcGtugOZYyKlvqwwALAUDFABLojs6+VBK8Y9KADRDivhId2jih0oAsBQMUAAsnZNpR0S8LARA7b2YBvr3yADAUjFAAbBkZjZPPpNyulkJgHpLKSan1+96QQkAlooBCoAlVa5duC0iPaEEQG39qFzT+6QMACwlAxQAS6o7WBxPObYrAVDTNwip3NodLBaUAGApJQkAWA6D9+2ZjYh1SgDUyt2zw53/JQMAS80VUAAskzweET0dAGrjZK8vdsgAwHIwQAGwLGaHp74fOX1KCYC6yLfNbew8pgMAy8EABcCyWch9kxHxWyUAKu/ZtWXpLqYALBsDFADL5v7RXf8dOe1RAqDackrX7x8t5pUAYLkYoABYVvOXX/6hiPipEgCV9fC6wwv/IAMAy8ld8ABYdoP794xGiv9QAqBycs7piu7I5ANSALCcXAEFwLKbHen8Z468XwmAyvm88QmAlWCAAmCFlNdExEkdACrj1f7+3qQMAKwEAxQAK6I7XDweOT6iBEA1pJxuOrSheEoJAFaCAQqAFbM294qI+I0SAKvu6bcsLNwuAwArxQAFwIrZP1rM5xyFEgCrK6fYdu/m4lUlAFgpBigAVtS6b/Q+GREPKwGwSnI82N04+W9CALCSDFAArKiiKMqc03hEZDUAVlwZfXlLpORrMAArygAFwIrrjkw+kHL4v+8AKy3FJ2eHplyFCsCKM0ABsCoW+tK2iPDzRwBWznxe6BUyALAaDFAArIq5ocmnU8T7lQBYISmK7qbCnUgBWBUGKABWzVtO9W6MiKeUAFhu6fHLjvQ+ogMAq8UABcCquXdz8WqKNKkEwDLLecu+seKkEACsliQBAKv8pigNHtg7FxF/JQbAMnyZjfTV7vDkRiUAWE2ugAJgdaWUI+XxiCjFAFhyCynKrTIAsNoMUACsutduCf55JQCWWI4PzQ5P/UgIAFabAQqAarwgDfRtj4h5JQCWzItrUm+vDABU4nxfAgCqYHr9xLMR6WYlAJZGzrHrwHDxohIAVIEBCoDKuGx+4baI9LgSABfs+5cffcffywBAVRigAKiM124RvkMJgAuTc4zvGxvrKQFAVRigAKiU2eHJf8uRvqoEwPlJOf61O9LpKgFAlRigAKjem6ff3TJ8QQmAc3Z8oS+2ywBA1RigAKic124Z/kklAM5NTvm2uaHOL5QAoGoMUABU0proTUbEC0oALFKKZ2JN6W6iAFSSAQqASjowXLyYIu1VAmBxcpl3dAeLl5UAoIoMUABUVnnxwocj4odKAJxFioe6w51/FAKAqjJAAVBZ3cFiIUdsVQLgjHJEHo+UshQAVJUBCoBK6w53DkXk/1AC4DRyfG52aOobQgBQZQYoAGrw3qocj4gTSgC8wcsD/b1dMgBQdQYoACqvO1w8niI+rATA6+S48asbi18JAUDVGaAAqIUTJ9bsjojfKAHwB7/Ia3vvlwGAOjBAAVALD159/dEUMaUEwGtyXNsdLI4LAUAdGKAAqI0rHup9KnJ8Wwmg7XKk2dmRzt1KAFAXBigAaqMoijL683hEuNU40Ga9/pzGZQCgTgxQANTK7MapByNinxJAi31iemTiBzIAUCcGKABqp5fStRHxqhJAC72UT/X8PDwAascABUDtzA1NPh0R71MCaJscsbu7uXheCQDqxgAFQC0dn3/LTRHxlBJAe+SfHL3s7XfqAEAdGaAAqKXDY9uO5ZR2KQG0RUp528PvevcpJQCo5euYBADUVs5p3YG9X0sRfy0G0PCT9q/MDHc2KwFAXbkCCoAavyNLuS/6xiOiFANosJM5x7UyAFBnBigAam1meOI7KdLnlACaKud8x+xI56dKAFBnBigAai8NpB0RMa8E0EDPDQys2SsDAHVngAKg9qbXTzybUrpJCaBpUsTkoQ07jigBQN0ZoABohEuPLNyeIh5TAmiQ7106/45PywBAExigAGiEfWPFyTLFdiWAxijz+L6xsZ4QADSBAQqAxugOde6JHAeVABrgX2ZHp74mAwBNYYACoFkvbLl/a0QsKAHUVopjOfeuFwKARp2nSwBAk0yP7vpxRHxcCaC2cr61O1I8IQQATWKAAqBxTi0MdCLiBSWA2knxzEXpkluEAKBpDFAANM4DV+18KaXYrQRQOzlvPzh03StCANA0BigAGqlc0/toSvGIEkBd5IjDs0OdLygBQBMZoABopO5gsZDLcqsSQE2UfZHGI6UsBQBNZIACoLFmR26YjogvKwHUwGdnhie/KQMATWWAAqDRUhnbIuKEEkCFHV2IvgkZAGgyAxQAjTYz2vlZpLhDCaCqcsR77x+e+LUSADSZAQqAxjt5fM2eiPDmDqienH4eF/c+KAQATWeAAqDxHrz6+qM5R0cJoGpyX35Pd7A4rgQATWeAAqAV1n2jd1eO+JYSQGXkmOkOde4RAoA2MEAB0ApFUZT9OW+JCLc4B6qg1yvzuAwAtIUBCoDWmB6ZOpxyfFEJoAI+Nrdp6hEZAGgLAxQArVLm3nUR8YoSwCp6KZ/qFTIA0CYGKABapTta/DLluE0JYLWkFDd0NxfPKwFAmxigAGidY0ffcnNEPKkEsNJSxKNHLn37x5QAoG0MUAC0zuGxbcdSTjuVAFZazuXWh9/17lNKANA2SQIA2mrwvj1fi4grlABWyJdnhztXywBAG7kCCoDWeu0W6KUSwAo42dfrv04GANrKAAVAa82NTn03In1GCWD55Q9Mb9r1XzoA0FYGKABa7aK0sDMijigBLKPn+vvX3CgDAG1mgAKg1Q4OFc9FJG8MgeWT8s5DG3YYugFoNQMUAK132fzCByKyb40BllyK+O6Vh8vPKAGA10QAIAb37/mbSPElJYAlPdlO6cqZock5JQBoO1dAAUBEzI50vhyRDigBLKEvGJ8A4HcMUADwml5/3hoRp5QALliKY6mXdgoBAL9jgAKA18xt6DwaOT6mBHChUhm3zGyafFIJAPgdAxQA/IlTvYEbIuJ5JYAL8MuBvrW3ygAAf2SAAoA/8cBVO1/KEYUSwPnKOV93cOi6V5QAgD8yQAHA61w+/46PpRSPKAGcqxxxuDvc+aISAPDnDFAA8Dr7xsZ6ETGuBHCOyv6ct0RKWQoA+HMGKAB4EzNDnZkUcY8SwKKluGt6ZOpbQgDAGxmgAOB0L5IDvfdExHElgEU4upD7OjIAwGnOrSUAgDd3aH3x8xTxQSWAs8qx5/7hiV8LAQBvzgAFAGdw4sSa90aEN5XAmfxsbX7bHTIAwOkZoADgDB68+vqjKWJCCeC0cmzbP3rNCSEA4PQMUABwFlc81PtsRHxTCeCN0vTsSOfLOgDAmRmgAOAsiqIo+3Iejwi3Vgf+1EKvV26VAQDOzgAFAIswPTJ1OCK+oATwBzk+Ordp6hEhAODsDFAAsEjpVNoeEa8oAUTES30X9e+WAQAWxwAFAIs0s3nymYh0ixJAjuhMr9/1ghIAsDgGKAA4B8fn/+LWiPSEEtBm+cdxce/jOgDA4hmgAOAcHB7bdiyivF4JaK/Ul7Z2B4sFJQDgHF4/JQCAczd4YE83clypBLTu5PmemeHO/1QCAM6NK6AA4Dzk1DceET0loFVOLvTFdhkA4NwZoADgPHQ3TnwvIj6tBLRHzvn2uY2dx5QAgHNngAKA83RR6k1GxBEloBWevSSXN8kAAOfHAAUA5+ngUPFcSmmvEtB8Oecd+0eLeSUA4PwYoADgAlx6ZOGOiPipEtBo31n3jfJzMgDA+XMXPAC4QOsO7Lkq5bhXCWik3Bf5yunhqfulAIDz5wooALhA3aHOV3Lk/UpAA+X4J+MTAFw4AxQALIU0sC0iTgkBTfp7Hcf6B3q7hACAC2eAAoAl0B3a9ZMUcacS0CA5bjq0oXhKCAC4cAYoAFgiJxcGdkfE80pAIzz91lO998kAAEvDAAUAS+SBq3a+lFJMKQFNkK+9d3Pxqg4AsDQMUACwhC498o5PRMQPlIAay/Hg7FBnnxAAsHQMUACwhPaNjfX6ohxXAmqrzP1pPFLKUgDA0jFAAcASmx6+YTYi7lYCaulT3Y2T35YBAJaWAQoAlkEvxbURcVwJqJWjudfzc9wAYBkYoABgGcwNdX4RkW9XAuojR+zubip+owQALD0DFAAs15vZi8ubIuJXSkAdpMcvKd/2YR0AYHkYoABgmXQHi5dzSruUgDpI4/tHrzmhAwAs0yutBACwjHJOgwf2Ho6I/yEGVNah2eHOBhkAYPm4AgoAllNKOZdpPCLc0h2qaSGnvq0yAMDyMkABwDLrjk4+lFL8oxJQPTnyh7tDEz9UAgCWlwEKAFbCybQjIl4WAirlxf6Bgb0yAMDyM0ABwAqY2Tz5TMrpZiWgOlKKyen1u15QAgCWnwEKAFZIuXbhtoj4hRJQCT8q1/Q+KQMArAwDFACskO5gcTyn2K4EVOAkOJVbu4PFghIAsDKSBACwsgbv2zMbEeuUgFVz9+xw53/JAAArxxVQALDi8v8bEa68gNVxstcXO2QAgJVlgAKAFTY7PPWjSPEpJWA15NvmNnYe0wEAVpYBCgBWwZrc2xURLyoBK+rZtWXpbpQAsAoMUACwCg4MFy9Gir1KwErK2/ePFvM6AMDKM0ABwGq9FV7T+1BE/EgJWBEPX/lQ+XkZAGB1uAseAKyi//PA7g1l7juoBCyrnHO6ojsy+YAUALA6XAEFAKtoeuiGr0aK/1QCltXnjU8AsLoMUACwynLubYmIE0rAsni1v783KQMArC4DFACssu5w8XjkuFMJWHo5xY2HNhRPKQEAq8sABQAVsDb3ioj4jRKwpJ7+y5O998sAAKvPAAUAFbB/tJjPOQolYOnkFNvu3Vy8qgQArD4DFABUxLpv9D4ZEQ8rAUvige7GyX+TAQCqwQAFABVRFEUZfXlLRGQ14IKUkfJ4pOTvEgBUhAEKACpkduPUgymHqzbgQqT45OzQlKsJAaBCDFAAUDELfWlbRPi5NXB+5vNCr5ABAKrFAAUAFTM3NPl0Tvl2JeA8pCi6mwp3lASAijFAAUAF/eXJ8qaIeEoJOBfp8cuO9D6iAwBUjwEKACro3s3FqynSpBKweCn1rtk3VpxUAgAq+DotAQBUVM5p8MDeuYj4KzHgLH9dIn21Ozy5UQkAqCZXQAFAVaWUI+XxiCjFgDM6lXL+/2QAgOoyQAFAhc0OTT0cOf5BCTiT/KHZkc5PdQCA6jJAAUDVX6wv6rs+IuaVgDf13/nico8MAFDxc1oJAKDaptdPPBuRblYC3kTKk93B4rdCAEC1GaAAoAYum1+4LUU8pgT8me9fduSdn5IBAKrPAAUANbBvrDiZc+xQAv4o5xjfNzbWUwIAqs8ABQA1MTvSuTtH+qoSEBEp9nVHOl0hAKAeDFAAUKv33OXWiFhQgpY7nsvedhkAoD4MUABQI7PDUz+KiE8qQZvllG/rjhRPKAEA9WGAAoCaWRO9yYh4QQlaKcUzsaZ0V0gAqBkDFADUzIHh4sUcsUcJ2iiXeUd3sHhZCQCoFwMUANTRxb2PRMQPhaBVUjzUHe78oxAAUD8GKACooe5gsZAjtipBi+SU05ZIKUsBAPVjgAKAmuoOdw6liK8oQSvk+NzM8OQ3hQCAejJAAUCdlTEeESeEoOFeHujv7ZIBAOrLAAUANTYz2vlZiviwEjRajhu/urH4lRAAUF8GKACouRMn1uyOiN8oQUP9Iq/tvV8GAKg3AxQA1NyDV19/NEVMKUEj5bi2O1gcFwIA6s0ABQANcMVDvU9Fjm8rQZPkSLOzI527lQCA+jNAAUADFEVRpr60JSLcop6m6PXnNC4DADSDAQoAGmJmaPLrEbFPCRriE9MjEz+QAQCawQAFAA3SS+naiHhVCWrupXyq5+eaAUCDGKAAoEHmhiafjsi3KUGd5Yjd3c3F80oAQHMYoACgYY7Pv/XvIuJJJaijFPHo0cvefqcSANAsBigAaJjDY9uOReRdSlBHZcS2h9/17lNKAECzJAkAoIFyTusO7P1aivhrMajRielXZoY7m5UAgOZxBRQANPKdfMp90TceEaUY1MTJnONaGQCgmQxQANBQM8MT34mIzypBHeSc75gd6fxUCQBoJgMUADT5hX6gb2dEHFGCintuYGDNXhkAoMHnpRIAQHNNr594NkfcpARVliNPHNqww1AKAA1mgAKAhrt8vvf+FPGYElTU9y6ff+ddMgBAsxmgAKDh9o0VJ8sU25Wgkso8vm9srCcEADSbAQoAWqA71LknIh1Qgor54uzo1NdkAIDmM0ABQFte9Mu+bRGxoASVkOJYzr0dQgBAS85FJQCAdpge3fXjiPi4ElRCzrd2R4onhACAdjBAAUCLnFoY6ETEC0qwqlI8c1G65BYhAKA9DFAA0CIPXLXzpZRitxKsqpy3Hxy67hUhAKA9DFAA0DKXHnnHnSnFI0qwGnLE4dmhzheUAIB2MUABQMu8dsv7cSVYBWVfpPFIKUsBAO1igAKAFpoZ6sxExJeVYIV9dmZ48psyAED7GKAAoKVSGdsi4oQSrJCjC9E3IQMAtJMBCgBaama087OI/EElWAk54r33D0/8WgkAaCcDFAC02MkTF++NCKMAyyunn19Svu0DQgBAexmgAKDFHrz6+qM5R0cJllWKbftHr/HtngDQYgYoAGi5dd/o3ZUjvqUEyyLHzOzw5JeEAIB2M0ABQMsVRVH257wlIrIaLLFer8zjMgAABigAIKZHpg5HxD8rwVLKkT46t2nqESUAAAMUABAREbnsbY+IV5RgibwUpxZ2ywAARBigAIDXdEeLX6YctynBUkgpbuhuLp5XAgCIMEABAH/i2NG33BwRTyrBhUgRjx659O0fUwIA+D0DFADwB4fHth3LOe9QgguRc7n14Xe9+5QSAMDvJQkAgNcbvG/P1yLiCiU4d/lLs8NT/5cOAMCfcgUUAPAGvTKPR0SpBOfoZF9vYLsMAMDrGaAAgDeYG536bqS4SwnOTf7A9KZd/6UDAPB6BigA4E1dFL1dEXFECRbpuf7+NTfKAAC8GQMUAPCmDg4Vz0WO9yrBoqS889CGHQZLAOBNGaAAgNO67GjvgxHZt1RxRiniu1ceLj+jBABwhvMFAIDTG9y/528ixZeU4LQnlCldOTM0OacEAHA6roACAM5odqTz5Yi4TwlO4wvGJwDgbAxQAMBZ9fpjW0ScUoI/k+JY6qWdQgAAZ2OAAgDOam5D59HI8TEl+FM54uaZTZNPKgEAnI0BCgBYlFO9gRsi4nkleM0v18Ta22QAABbDAAUALMoDV+18KUcUShARkXO+7uDQda8oAQAshgEKAFi0y+ff8bGI+IESrff17nDnizIAAItlgAIAFm3f2FgvpdiqRKuVfTmPR0pZCgBgsQxQAMA5mRnqzKSIe5RoqRR3TY9MfUsIAOBcGKAAgHM/gRjovScijivROkcXcl9HBgDgnM8fJQAAztWh9cXPc84fUKJlcuy5f3ji10IAAOfKAAUAnJ+15Xsj4ldCtMbP1ua33SEDAHA+DFAAwHnpDhYv55wnlGiHlNLW/aPXnFACADgfBigA4Lyt+0b5uYj4phJNl6Znhibv1QEAOF8GKADgvBVFUfblPB4RWY3GWuj1yq0yAAAXwgAFAFyQ6ZGpw5Hjn5RoqJTvnNs09YgQAMCFMEABABcsLaTrI+IVJRrnxb7+gb+VAQC4UAYoAOCCzWyefCYi3aJEw+TcmV6/6wUhAIALZYACAJbE8fm/uDUiPaFEU+Qf57XlJ3QAAJaCAQoAWBKHx7YdiyivV6IZUl/a2h0sFpQAAJbk3EICAGApDR7Y040cVypRXznlf+8OTf3fSgAAS8UVUADAksqpbzwiekrU1skyJVeyAQBLygAFACyp7saJ70XEp5Wop5zz7XMbO48pAQAsJQMUALDkLkq9yYj4rRK18+wlubxJBgBgqRmgAIAld3CoeC5H7FWiXnLOO/aPFvNKAABLzQAFACyLo5e9/Y6I+KkStfGddd8oPycDALAc3AUPAFg26w7suSrluFeJyss5pyu6I5MPSAEALAdXQAEAy6Y71PlKjrxfiYrL8U/GJwBgORmgAIDllQa2RcQpIap6fOJY/0BvlxAAwHIyQAEAy6o7tOsnOfJHlKioHDcd2lA8JQQAsJwMUADA8ru43B0RzwtROU+/9VTvfTIAAMvNAAUALLvuYPHblGJKiarJ1967uXhVBwBguRmgAIAVcemRd3wiIr6vREXkeHB2qLNPCABgJRigAIAVsW9srNcX5VYlKqHM/Wk8UspSAAArwQAFAKyY6eEbZiPibiVWWU5/3904+W0hAICVYoACAFZUL8W1EXFciVVzNJcLN8gAAKwkAxQAsKLmhjq/iMi3K7E6csTu7qbiN0oAACvJAAUArLh8cXlTRPxKiZWWHr+kfNuHdQAAVpoBCgBYcd3B4uWIvFOJlZbG949ec0IHAGDFz0IkAABWRc5p8MDewxHxP8RYEYdmhzsbZAAAVoMroACA1ZFSzmUaj4gsxrJbyKlvqwwAwGoxQAEAq6Y7OvlQRHxeieWVI3+4OzTxQyUAgNVigAIAVlXu9bZHxLwSy+bF/oGBvTIAAKvJAAUArKrupuI3OcUtSiyPFHliev2uF5QAAFaTAQoAWHWX9N52W0R6XIkl96Py4vLvZQAAVpsBCgBYdftHrzmRU96pxBKf6KVya3ewWFACAFhtSQIAoCrW3bf3YIq8QYmlkP9tdnjq/9EBAKgCV0ABAJWRotwaEa7YuXAncpQ7ZAAAqsIABQBUxuzw1I8ixaeUuFD5fd3hws/UAgAqwwAFAFTKmtzbFREvKnHenl1bljfLAABUiQEKAKiUA8PFi5FirxLnK2/fP1rM6wAAVIkBCgConLym96GI+JES5+zhKx8qPy8DAFA17oIHAFTSuvv2rE8RX1Vi0XLO6YruyOQDUgAAVeMKKACgkrrDnUOR4j+VWLTPG58AgKoyQAEAlZVzb0tEnFDirF7t7+9NygAAVJUBCgCorO5w8XhE/ogSZ5ZT3HhoQ/GUEgBAVRmgAIBKW1uWuyPiN0qc1lN/ebL3fhkAgCozQAEAlbZ/tJiPlG9Q4nTStns3F6/qAABUmQEKAKi8Kw+Xfx8RDyvxBg/MDk3cLQMAUHUGKACg8oqiKKMvb4mIrMYflJHyeKSkCQBQeQYoAKAWZjdOPRgp/lWJ38mRPjE7NOWqMACgFgxQAEBt9CK9JyL8vKOI+f6BVMgAANSFAQoAqI25ocmnc8q3tz5EimJ6/cSz/kQAAHVhgAIAauUvT5Y3RcRT7S2QfzJ/6ds/7E8CAFAnBigAoFbu3Vy8mnOeaOvzTylve/hd7z7lTwIAUKtzGAkAgNrJOQ0e2DsXEX/Vsif+H7PDU1f5AwAA1I0roACA+kkpp+jbEhFli571qcjpPQ4+AFBHBigAoJZmhie+Ezn+oT3POH9odqTzU0ceAKgjAxQAUN8TmYv6ro+I+RY81f/OF5d7HHEAoLbnbRIAAHU1vX7i2cjxd41/oilPdgeL3zriAEBdGaAAgFq77GjvfSnisQY/xe9fduSdn3KkAYA6M0ABALW2b6w4mXPsaOrzyznG942N9RxpAKDODFAAQO3NjnTujhwHG/fEUuzrjnS6jjAAUHcGKACgGSc1uX9rRCw06Ckdz2VvuyMLADTiXE0CAKAJpkd3/TgiPtmgp3Rrd6R4wpEFAJrAAAUANMaa6E1GxAu1fyIpnrkorb3ZEQUAmsIABQA0xoHh4sUcsafuzyOXecfBoetecUQBgKYwQAEAzXJx7yMR8cPaPv4UD3WHO//oQAIATWKAAgAapTtYLEQux2v68HPKaUuklB1JAKBJDFAAQOPMjtwwnSK+UrsHnuNzM8OT33QEAYCmMUABAM1UxnhEnKjRI355oL+3y4EDAJrIAAUANNLMaOdnOecP1eYB57jxqxuLXzlyAEATGaAAgMY6dfLiv42IX1f+geb087y2935HDABoKgMUANBYD159/dEcearqjzNFXNsdLI47YgBAUxmgAIBGW/dQ+enI8e2qPr4caXZmZPLfHSkAoMkMUABAoxVFUaa+tCUicgUfXq8/p3FHCQBoOgMUANB4M0OTX4+If6ncA0vp49MjEz9whACApjNAAQCtkMvetRHxSoUe0kv55MINjgwA0AYGKACgFbqjxS8j8vsq84ByKrqbi+cdGQCgDQxQAEBrHJ9/699FxJOr/ThSxKPzl1/+UUcEAGgLAxQA0BqHx7Ydi8i7VvtxlBHbHn7Xu085IgBAWyQJAIBWyTmtO7D3aynir1fn0+d7uyNTf+NAAABt4gooAKBdUsplmbdERLkKn/1kfzlwrYMAALSNAQoAaJ250anvRsRnV/rz5pzvmN60678cAQCgbQxQAEA7T4IG+nZGxJEV/JTPDQys2as8ANDKcy8JAIA2ml4/8WyOuGmlPl+OPHFow44jygMAbWSAAgBa6/L53vsj8rJ/S1yK+O7l8++8S3EAoK0MUABAa+0bK05G9G1f9k+U0vi+sbGe4gBAWxmgAIBWmx2e/FJEOrCMn+KLM0OTc0oDAG1mgAIAnBCVfdsi4tSSf+AUx3Lu7VAYAGj9+ZYEAEDbTY/u+nGO9PGl/ripjFu6I8UTCgMAbWeAAgCIiIWF/qmIeGHJPmCKZwb61t6qLACAAQoAICIiHrhq50spxe4l+4A5bz84dN0rygIAGKAAAP7g0iPvuDOleORCP06OODw71PmCogAAv2OAAgB4zb6xsV5EjF/ghyn7Io1HSllRAIDfMUABAPyJmaHOTET+0vl/hPSZmeHJbyoJAPBHBigAgNfpHyi3RcSJ8/hPjy5EmlQQAODPGaAAAF7n0Pri5xH5g+f63+WI994/PPFrBQEA/pwBCgDgTZw8cfHeiFj8mJTTzy8p3/YB5QAA3sgABQDwJh68+vqjkfLiv50uxbb9o9ecUA4A4I0MUAAAp3Hl4fIzOeJbZ/2NOWZmhye/pBgAwJszQAEAnEZRFGV/zlsiIp/ht/V6ZR5XCwDg9AxQAABnMD0ydTgi/vl0/z5H+ujcpqlHlAIAOD0DFADAWeSytz0iXnmTf/VSnFrYrRAAwJkZoAAAzqI7Wvwyp7j19f88RZ7qbi6eVwgA4MwMUAAAi3DiyFtuiYgnf//rFPHokcv+948rAwBwdgYoAIBFODy27VjOecfvf51zufXhd737lDIAAAAALKnB+/Z8bfC+v71HCQCAxRuQAABg8VL0bV3oK48qAQCweP8/rvn7MpAAfygAAAAldEVYdGRhdGU6Y3JlYXRlADIwMjMtMDgtMzBUMjM6NTY6NDIrMDA6MDBc5+YGAAAAJXRFWHRkYXRlOm1vZGlmeQAyMDIzLTA4LTMwVDIzOjU2OjQyKzAwOjAwLbpeugAAAABJRU5ErkJggg==;" vertex="1" parent="c13vq_cIt79_5pJQ8C5g-19">
          <mxGeometry x="54" y="20" width="46.12" height="40" as="geometry" />
        </mxCell>
        <mxCell id="c13vq_cIt79_5pJQ8C5g-27" value="Vue + Typescript" style="text;strokeColor=none;align=center;fillColor=none;html=1;verticalAlign=middle;whiteSpace=wrap;rounded=0;fontSize=13;" vertex="1" parent="c13vq_cIt79_5pJQ8C5g-19">
          <mxGeometry x="104" y="25" width="110" height="30" as="geometry" />
        </mxCell>
        <mxCell id="c13vq_cIt79_5pJQ8C5g-28" value="" style="shape=image;imageAspect=0;aspect=fixed;verticalLabelPosition=bottom;verticalAlign=top;image=data:image/png,iVBORw0KGgoAAAANSUhEUgAAAlgAAAE7CAMAAAA2MA+HAAADAFBMVEVHcExtsz9tsz9tsz9tsz9tsz9tsz9tsz9ssT9tsz9tsz5tsz9tsz9tsz9tsz9tsz9tsz9tsz9ssz5tsz9tsz9tsz9tsz9ssz5ssD1tsz9tsz9tsz9tsz9rsj1tsz9tsz9tsz9tsz9qsjxtsz9tsz9ssj5tsz9ssz5tsz9tsz9ssz5tsz5tsz5tsz9tsz5tsz9ssj5qsjxtsz9tsz9rsj1ssj5rsTxpsDltsz9tsz9tsz9rsj1tsz9tsz9tsz9tsz5ssj5tsz9tsz9ssz1tsz9tsz9rsT1rsj1tsz9rsj1ssz5psTptsz9tsz9ssj5tsz9tsz9tsz9ssj5tsz9tsz5qsDptsz5ssz1tsz9ssj1tsz9ssz5tsz9tsz9ssz5tsz9tsz9tsz9tsz9tsz9ssj1tsz9tsz9nsDhtsz9psTptsz5tsz9tsz9ssj5tsz9tsz9tsz9tsz9tsz5tsz5tsz9tsz9ssj1tsz9qsDttsz9ssz5tsz5ssj5tsz9qsjxtsz5rsD1tsz9tsz9tsz9tsz9tsz9tsz9psDptsz9rsT1tsz9tsz9psTptsz9rsDxtsz9ssz5ssj5rsT1tsj9tsz9tsz9tsz9tsz9tsz9tsz5tsz9tsz5tsz9tsz9osTttsz5ssj5tsz9ssz5tsz9ssj5ssT1rsj1ssT5tsz5ssj5msDhtsz9qsTttsz9osDhtsz9tsz9tsz9tsz9ssj5tsz9tsz9tsz9ssj5rsj1tsz9tsz5ssj5ssz5tsz9rsj1ssz5tsz9ssj1tsz9ssj5osDlrsDxpsTplsDZqsTxirzJosTptsz9rsT1ssT1ssj5rsDxrsT1psDprsT1ssj5psTpkrzRtsz9psTxrsj1osTpssT5ssD1qsjtrsj5rsj1psTxrsj1qsDxtsz9ssj5tsj5rsT1osTpssz9ssD5lsDZrsT1rsj5nsThqsDtnsDhssj5msDZrsj1msDZnsTlosTpssj5ssT9us0BuskBkrzNssT1ssz5ssj5tsz9ts0Bus0AbYLRfAAAA/XRSTlMAEAlH0PDgwK+AIfJgQJSgKucgMH5Q+QNspGvtigL9ZPzuB/awEZAL/voOOcxwBgErDPH4IhMUAfvl6SPi6NuDXPPYHvXWmCXeBBgWqy4FCvfjGzOMCc8PVii5CLVZOmjv1G16JsfsKeZen11mNWFa38LOUco3pVMKt048P0Q+Qnmo68W+poU3w5uXSVyBWo6amZXTvcS7iK52kTKc1aBNY8gtnhqhs8EXQTt8ekhC2aN5dTFys7IcRtdMquRstelL1bi6QHRuVsYGgZioo9xWhWR9yUMD0rrSfrBqq9S/vZ1yb4/hZhDie1BokoRISvJYslyOidnF/fQwf/P0gnA/jQAAJvtJREFUeNrtnXlAVlXexy/IwzNsoiCQCggKCMgqhgiIC5gr7iYqKrllijomirmLZS5ZueGSpmWWZqZmpo626Uw5Y9nu29tU0zTNVNPsM828M+/7wAvI8tyz3Ps7956HZ+n3/ZPnnnPPPefDWX7n9ztHUVAoFAqFQqFQKBQKhUKhUCgUCoVCoVAoFAqFQqFQKBQKhUKhUCgUCoVCoVAoFAqFQqFQKBQKhUKhUCgUCoVCoVAoFAqFcrZGrWxbfWpX2xUTsSpQEjUuznZL9wdhZaCkaUmurUlF87E6UJK01mJrUU4lVghKiuJTbPYqOI9VgpKhRTa1XsAqQUlQxF4CLB+sE5QEZfYhwLIMw0pBSZhiEVzZBjyJlYIyL68sEqx2WCko85qSQoBV5YWVgjKv9OsEWFewTlAy1CZGDVYYVglKhkZ1VHdY3lglKCkadtCOqyEZWCEoSZpV2szVhsewOlDyRsPpFQ1Y3ZmajZWBkqn44sr+JeNux4pAoVAoFAqFQqFQKBQKhUKhUCgUCmVU8ZPe27bskx/J1yfLth2eFO+IIqd5JzdoSlo64OlRycmZI3k/Du1+bOnxhTM6vbYyI7Mr9P1d63JkP5xW97JkhmdMWianDFHeyZlpvPdEdO1e/5mZXUcaq6co7+xp82d0qteK4om8TIYe67Fm8CjJTTT07BvPdIu2OUrR3T5/4+xQmQUeVbzVb97sgqzweg3asH78wqDBWi5O6VuvD8kK72mdUcj40X/1xslzk6IT64uaGFN077zpSwHbxI/1S+kWXpTSgfJUGHwocnd+eHhWwZatauDbndjQM3zO/TMpn5nsRXsLwssqNi5l/L8vnbqxNGVM/Wf2TNl1vfx4iGBNZfdIHVGQ1Ny2MRbrtuOMCKH4hbvqaiAnP1JmkMdHD32aZHO0wj99OEpWgadtq+5MvcB38vipT3ESjD3d9NTAqeS/c9iRAiqvmIr9q3R6yw4Bjc+WnVDhc3Keb0s+6+2b8MX2Tf7uZ9R5ra1o/GH0dmKDenXkbrJlCtaXCzhHTNtTkUi3hc/+lcRz4zY1/Tb3RWlcVV6rtbWGaq9J8cf1XrK7jPOGmPz7+h9jJBk22+7YhIWqzOZXZLHz6rm4f6ZGD3jE7tHxLZSu3lCkymVTCwQH7FPYs/haQMsPk+3mDN6LKgYwizZkGwytKSuqeTVlmbxGxd8Yu986yMHKf1mirbWUuMzfbHGjwjZpv6P9ltXkRGHKelXg1Va7HmGDVlYHF3XnFeMF1YMzG/86aT2VR9umSVgn1Z/3tZD1ZF/7H15qnrSt3c0vWd8XkvWr6sJirY/LOTCrZbj0sf8l6zUZXP3lhq01deNNc8XN6wh4SXWgetBdou6UdjeBFz8+XC+nHuxiTFIHNg/o1fDXwB/TORQ1TsEK1b917tXcL11S/+81dqjJ40drluz+cTo11et0ls7HDWk+TGmf+oddyaaxiugXbmtdhfczM9OqvAzrGS+W2w1jI8lzEy40zr436OfUswNznTSTeCyyftYVyVz9NM6nZhB/bh5violJVEVE/V9nzdYrWaz2GVvzxwDWVFtufVwUMclMNH0wXNfNttbXo2mGy7sPvsZY3PIfHW8hfttya5bdB5RR9WDGzP0l4qE7pyjJI9jpSxtWw0OvEH8e1JQXSVxO/bp1bYF+wWLO8CvKaz+slkobVjvTsiQfhbP8UZszdMdyo1zFCLyl7+rmcYuqzvq/lscCMypYTRVkuA/5TLYSzEnu09ArjNpJ/Lmsaf7dluxtS+q4qgKVbB/XxHAftJYq6idaU8mu9lGTYEXanKN3jRV3uthbfty0wLpAoVKfGXzJEkBNZv3nkgHz7cp5qe9qWAB4kygGZHDAsk1XVpbBCpZTwq6oWTfhtZRSZxcrIf9hHzDH1d9szpKhGfzqIsG39GtM2Ib8IV9RVnQTyKhsKwlWe+KJMV24U5oNU9hgteOBtajwIrRgY5jhiZMOitSSNZ4Gq6Mprs5XOQ2s/LHixR3rI/qWgxEcsHyVHmLfHrtVDyz+XHt7uhhYOalx8IKxToDIvilWTXHKErlgbbc5T1taY9weU8gBa+Axwbq35RZrg8UfVxP7K2JgJQ0UKVg5vdlVLVpPJ7YmyQTr+QFOBCvguGhxZwUIv2TOOA5Yc0cI53VzmCZYGrPjeEGwBHtl0gafLv4PWDaiSCJYE562OVN/nSBY3kcYc9fLIx6p27Pf2HF2UQ7rHZfHcsAyonnGwCpqozgUrMQZRD2VGDFMJkoEq3+0U8GKeVjQqYeyjHY+MK3JIBbhtXJmdT71jicUIFi5FXH7N85/MfKB3UP4D803AlZZF8WxYNluqh2SxvItyAW7xndauHDh4Q4PpOjNME2AlXzQ5lztzBQq7yJyGrB7GvFERvmIcHLdDgEr8aWXFzTvz+VN3ZLLea7PMXGw1jfv9BoE6+ClyH379s28Xsq3ox9S1cI83vLj+tQWhyHvpalWR4H1ixong1Xz30LlJU25GxiegyOLN9o3+GRvAFijOy4lXPX8Z+SzH70uBFbRoOAXQyMUM2DlR/YY1ujE5l249dIAAAQn2QNhQCS5fZB5crFDwLq7vc3Zuny3SAdLVEPPUM5WxovN670rzSYNDbAWr2TZYR5l7hxZVoLBit7Uj/CXEwdrrt9wwmWKbYbItfPA6LqLvXGzgFVXncbIB6v3HTbn647eAmtCohcZwX1y2PQGt5qDM1u6NC5Y0ds4bjElc1mPP5AGBGvvIWo7VBis3WfpYn3JMhHH2NnYVrD2vMK3cZyRM6qlgxXU0wXA6rkGXuAFRJUGavVu7VYsGWy/CueB1ZnvHzAuhTVstgOB5bOVscsuClYwM0igkrVfsLHl9yss8Lpwv7J7gmSwel+1uYIEDg7eSiSdKvK5HLDmrNby+2KR1RYAVnRb5qpEEKyXprCLdZjRJU1u9hlcwFjpd9Pyrol4RC5Y99S4BFg1D4FL/BP5YOVs1UzUjjEa5t6uC1bRdI4/tRBYO3n3oUScph9OmchyfiaXxhzP/WCZYA3/zEXA+ni4UbC2mAaLsiySeo2xwOqiB1YfnoucEFgxfObz6Bl3ftNO9FMMJ679Ol+ZuUEiWM/ZXEXrjIJVNsssWOt13Q0ZeyMjdMCK5U4bhcAK1ijVHnqu2hRPtIRezKYc0/vK4lxpYE0a4zJgfT3LIFi2ijxzYFUV6hv7d1KpfPM0wcrhrylEwBodqlEqf2plGN1oIk1nIPoT/drpIA2szTbX0XXoqpCyDlb0MAXWDEC6+XSyEk2wxitSwIrTDO2N42023e7D7WE1B8NTksBaE+5CYI1+1pgdq75l/I4ZB6tgIiQi4F7e0p4N1mxvKWAlas+3aVfVlxsHNaphk6Ypxv5/jIDV9Vc1LgRWzX/9HFRqb5Ytb5DfeaNgpYISBlLpqr35YOUsVaSAlRuqWailFD+dbv0wlVdaHWWfkgLWPUk2V1I40OQwnpl6wOnVw4yANQY2twuh4gRzn+KDpblSFQDrXu1DSfwLOGBRGUW/DKvbfjLAyk6xuZZSYNHia3nhm/eOP5ksDNYI2AEl6bSvwGNcsHLbSQJrr3ahJlo5YN1P/r0v8HyP40USwPrG5mqCmRwi+IH1RQO3r+0uBFZiObC2DlMux5VcsLQbQwCs32iXKWovByzKolsRAfvKiRXmwcrLldPN7PDz+84qB6y+vYwZHFQaMn6JPxysMujdWwuo2MOZPLASe8gCS2cASz/NBmtsgMAiVa1g82A9LmPm/vGhBov579pI2XKseRzWZZXq5HPqwIpRQLAuA/+VlSlUYMN2Hlh3RcgC67BOofawwRpXxLGN6Otl02BJCaCY13ybcdT7o2V4OfwUVPYndY9tyLrYLy8KAtZ94AqjFqPneGDpnP0jAFYX0R2BW2BVkvvTiUuhX3nSbJTO8lckcHDUPgzifRme88DAikpAwGr4A8cBYP0GXGPU7L2UA1biNGeDRcXJx4CdvzMCTIIlI4DiM1Vx034lASxoYMX8LEBm4evX6oK1DVxjfpTtjAPWkPPOBquEbNzOYLC85pgDS0oABbEddjxHQp7QwIr5oCD7ouA8HbAWgqvsRWp6xgFLz4DheLBmCNrD7NXXHFgyAii+J0/53CRj/g4NrAi6E5Rf/mFtsJaAq+wFKmsOWJGKs8GizJwpcLByTYElJYDibdJR/X0ZK0NwYMVT12EZbslsZbCmOx2sbZQZq5XAkhJAUfsHMttfSjFmwQMr1lpBg++m8xpgzQBXWiqZtA8brJxKp4O1iJxjHZwC/cqoKjNgHQ+QAdb7ZLa3SQGr5yr4h5SUQvwzKnrJmLxT3cBONlhVS50OVonxVWGhxQRYkgIoOjgGLJHACiWtx37AKURxo7hgwQ+sCwaaG+b0cDpYlLkhB+z4Pc7MoSCCARS1psDqVmYTPDpeILCiXsMXlubrZbmHC1Y1+D1UAGicy4J1gezH4UfUTjVxPpZgAIVl868XHf5HiiGwki7dtnXNw38vEAMLHljRtO1Z/qj2K2JW8sBqD70xpjv1hgSXBSuDssWkQqtyo4ktHbEAirdv7dIe6zJHHKyPL9zaNQsRPKhpnSKswiC/gxpG0108sHqOA77gsc7ATWgXAGsUtWE+D1qPLxkHSyiA4n9va0n3vShYm1oMXe/MFRkPv56lGNDQ4jOLeZuIWSd5/ljQ62IOUykPuSxYCrVhfhO4LAwpMA7WAYEWzr9gl7BHXzGw5k6y++3fH4iMv9sVgyqefh/bBPFoFAesONj9bFG0o98k1wWLum4lADjJoqZYcLBEAig2qZ2V/l4rBNbP1DM7kV1vaGAFq9lCI/sycjw4lgPWnMdgQy11DlufYa4L1kzqM/vB/n3ogzOhYIkEUNxPBNw9OEcELAvhgu4tcEUBNLCCs5G6kUYraQEHLOAFV4vori7NdcGiP/NO0PWjGUmGwRIIoHjrdySUKSJg/ZO0oC//Ak5W+EOKGT22i7NjzgDLF1Ll6bt5fYBLghVCrbRge1eM/30gWAIBFG/RrlGLRcD6gko+RYCslGxTZHmdY6/hWAGrEOP7EipV4hIXBmsUfc9JBSBoZOkAw2DBAyiuMtYRQmAtY9jJBUbDdYo5snYyF9wssHrqz7Im0v+PA8e6MFjKGfoz9U1ZU1jX7sDAggdQzGbcNyw2FH7PuPV7+SUwWMDACq7IoN4jXLBsk3V30k7QbpHrFVcGayl97VSubgTYy+GGwQIHUBSwLElik/ck1mmXXovB8/fHzYE1mDipMJgPlu6SaTWjxhe5NFjpDN+4Uh3fmbXMO4VAYIEDKCzPs5ILmhuOMtv7MpQsbmDFuPIZMwJ1o7Z6EQ2+RQMsHReqdowj34d4uzRYtL9rndpqRg89yd4Vg4AFDqCofY+V/GRnMQNpAHMh8lPwmafswIqQIw3D+ZgjT2l/rD9hcjijBVaR1rGAxQO1trVdFKxsljHvEY2sznIuTICA9TA0gIIZuhKUK7qlE/tHVj4vQodjZmBFr+ZW8e2iec7FNCJyuVwLLFviC9xbhB87yOrS81wcLPYJF/u5RxC8xruIAwBW8l3AFr32O0bqwFjxTejo51id71vQLosRWBFvP3coPaTxtVuIzFZqgmWznQ7hWEaZx3G3+LW7KlizmH5qVvbxNWkvcCdJALCgARRljP2U5X+oMeSPxTpKuvAGdP5OB1ZMVW8t39eGN20oJkbcORk6YNVd5M7YNTwfzOzl+2a4PFjpG5lf2X4m3c9HBe3mV4s+WOAACoYFacKyWkP+WDbbK4xzFAKhXdblSWRS8hSMxMmVTOetEPJwi+pMPbDqbIglaqtsRHEHjnuq3XnqrgqWcv4UZ8Ffrl7xZ68+pzVF0gULHEDxAd0JTGCOXjAP0jsZZH0K9aHZQW4LMWYCFZFtqHV05U7OZFvn9q+KyJKm/VHvcV/utXAes79my2XBYh3P1/j/Oi917a1/x5EZ8x95QrtKdMEKAgZQjKaih5VMtlkT6PPuM5i2OUBvy6UCK5imlqJBBxYVTkxrNMh2zQ6spjZEB0wDgVXnHZ7vs/fAvCOnNwycw30muo3iDmCl7+V/ZsCQm/fWaVBf3SZYr9dhTQa25WZqebScM9uGBlNco5ci+6CD4RX9Hqtp2lMd7HfixIkORxazYqQ3RAHBgkgVkeq6YCmFBRI+Vu8YfWgAxatUvOhHb9vMgVX7NGWQGn4n8LPIwIr1Bqunaf1IgZUjfujOZC83AUtZWyT8cVWkn+QL2iWABlDU/p1KynWRh4d/fUettwKB7oZkYMUhY1xZR/LAKugkmtdAtZeaK4PFOFZZR8FtyYML92mXABpAMfd2ymEkyTxYiVQFdf0AOn9Xr1G7xxnhKrY5hpQCa4iSIJZXe2IL1KXBUjaKfVyFFzUkaF9VNAsaQPEc5Q/xlc08WLY/U54pb0LBIgIrCncZAGumwgXLV8kMFsmqL3ldJgVW52kuBFbaIyIf9+M8hXISuKBZAOgNFO3JGVbyX2tkgGVbTBpKfw6eWBKBFd5nLKJcrY/QAktJOwLP6vIqvT1JW9UCUbAGPMkDq1wULOrQ0vSZMeCPK+ihTCJjf7XD49ZkwXKupexGgRodi1CIPWV1/S30c6nAiqWlYlyNsNsZYoGljAKTVUF7Ex0jTWYFY/XAukluPA7jbEMl6h0dOh5AYv850I+r6ziXkLbSAq2LisABFD3JNiyca5ME1qukEd0f6j9DB1ak9R8owNUD9tYOJliKtx8sqyOMKwqmkJj76N0lNpI8zfRU0y/kSUnRxTpZkSfgJL3GeGgBbAkeN4zVBWreaAEOoLhKdlg7bLLAojyVI7ZAyWAEViSnQtGyzFTZ5dhg1e1BAjDPZ5/+d4J4TP+YETI4q9mZ5CzRXxToHWtF7ogOYl7O4bW/m+7HFc2sny9MpPwUtEKo4QEUvyVS9rDIA8tG3t+3FWxkYQVWxL+4G2RnIOZEPLCUWR11ckoK5gwK/n3ULaR/cPwstQNSt+ZpTCbR++lHaZ9jblxR2qp3EL/1VqT4auoHLWsDOIAilrgH66OjNRLBeoXYg5xwJ3g0W8f6rPhDHfWmjhcXkjd7ccFSoipvauQUU7qWW78vaNcKQ+pQhz0tferKMtWKR/9esgzV0mEg9xK05EVaX9envPFN1Oy1SOOwMngABdntPajt7CkI1v+RC9fv4Gt8TmBF4cvVvtxEnTdNp0+S4YNVN3Wb/gSnE83vGBSl0br77adhoEMS7Jd/R+ytxwvtTsuv8AfkVGmHYpVWHP3IylL2Dm10xZdNS/YV1PEEpzQGY3AARe23REod06HowWtvE43zIPhEcI3AirxFkdWMndT252YyzUlaYNWtzS8k0DdIzu04fbDObPxMkxNk7BnYYZ8RZ5r+Z4s2qkk81NyzjPAHZRXU7PpYrXeU4IJ9l8iqik5pW9lc5OH0nEnj5mD4DRRVRP1lW+SCZSGMZCNvgLsszRsrMvN6vBw5Ynef2FvaWb1lxqpenI5DG6x668Fj04MrYgd0q1dR7M24bcd7peu37qw9N+vefOcJ+Ck5Gf0G1aVImXmW/GFY+ZW+sbEFp9sMBebkVRLXOTY2t2MJ4DjIoXmrvtxu9b1VUTdf2l9SnK1lvLDZVnOzmgA/i2MEsaN3W61csIhTQnTWnGoBbqyIirglTQ50wbrVoYwNLa5TRkQ6GJT0ujcrQuKniIoQeHFDeSMimEN1/LSf/GRlPK+myHccpkcQXz6s8+E3UJCH1X4uG6ydREV+Cz8zC3pjhZ5gYHmG0lN3123152x6GXS5qrKQsRTaw306GT7cjCauOc941SYZrOgHiTeUwbusgkwES0y3N5siBnbRX14OPcEwdlbxbw7+B7xTGEKEqbxRKxssMqws+X44WPSp8giW9saR/UEMd5W307G0jmBVOt/J7+5X4U23QT1MD9WN0hIH6wPCsn+HwCl/r96NYIloIWExmTeVf62xfz/m1l0Rdy0SdVSg5QgvgvMD5YM1l4DjZwJbfjXzohAsuEZSBtGYMadLChlj4vBVRzghCPxrWT/sJtByxDE3C2Lkg5VD7PqtyBIoX9FxBAuuScyjWLMqtn85dU3GsO6Z9eqet2DF9CPcMIIC7hFlUc8ItFs0sTF+2CYfLHKi1GOOQAFtz/RGsMBayvf9Dsi/OfuJes0u0IqWGr2Cm/k9Is0WniG64WLgypO31MNZ9vdCjlX9ESywxiXZTGojN2/6qntNa4PajSjqPkeANVvtUj8yRehTP0hGsKCKLzLJ1Qj+lR0Px4hk9LF6C2Hk644A6zLherJY6Ftj3kGwwCo1x5WVf+RvxNtCOT2hNot3LXIEWBZivA0W+9qjUQgWVKtMjYVWDf/qEF+hrD5RN9rYLEeAZSNiXHaIfe6QELPVfZLyiPFYy/sME1d0r9c61e5DsdvcdqhTPxjjgmDVPm+2tikXyRSPBUtZeNkgVjHbNJ1/fiaWG2Ef7eEYsO5Rp/i14Cf/2mxlDyP35Pd6LljK2G0XjXB1cIV2tg+YAstBPdYv1Sl+K/jNy8zWdSZZ1dsUT9bYTotFsSrrN0wn02ccDRZ1J/QvHQ7WM2ZrOn2POsPEs4pnK3n1A50FKjh2v/7x+jsdDdbm3uKDLwHW7wXB+th0RQ9WRwBsj1A8XiGp5/rAqjdlD+TWhixHz7E2kAeIAK6dIHy+3hUEa7T5au5if5zKxaeUH4RCuwTr3pt9sW0l7P4iQdPrZnXqYn0zSDgRN/1UrP5biJNY7hAEq0jGMrwlCOCJScoPRenDx3Uacaov0ysha87F9TNC46FZCYL1T/Wg0B1wgNUl9QsBB5uQ16DscAJYyqr7bqE1cNtE5Qemp06W9zuwt9p6amCDTj0xufRI5JeHxG5KzjIFVte5+kn+pbrA4gLgkNMq4hPOtf5QWL9dNW16v377SvyVH6i6Zvbyb1Cv29MM7GUITt6r1JvQQ2dDOpC/2NljvwIkeP28uoyzBcHaqaCcLkFzQxYxxm4HpXq3cRlxrNOfIY9fWa4ebz8WBOsqNqvzJWggzTlryCj+1W8Ce0x75z8w/5daYt+o148FwZqHzep8CW7pJBKRex/CB9HO0NjFGmJLJkj0cL5fY7M6X4Kb0ORtkIPn2qQr4EP1OxYKpje/CY2SYHAVc5uxfaJOPqFUPlgDiXncuzVi6c27zaDMS9DRz7aTsOr8Rz5Yf1W/YehbgumPRmGzuoDEXJOp035fy5IOFnFx6/mBYskluCajJEgsmMKWSBwU+buPayVzVUbsRT37L7H0EoIpUDJ0j1i7EbYA5R81ksH6EfGCNwTT98cmdQ1FidlIidgs5cloyWD9iSjfXwWdsXpjk7qKxWG0kO2dOGVIeVouV/cS4A7rKZS823FsUJfpsjYLNR159PKf5IJFHuj3jljyO3BJ6DoC3wN9a3JMjDXJn8vk6gaxAQ3xC7RTn0nYnC6kXwhNwJ8kUv8tXCJYpIv84D4iqakb7UMC/fz8AtFi6iQl3yXSevuJ1F2vybM43CBtBb9PFDLfqo+K9GqKoQ5GtJyj/iJLuxvDidSrkmRxVTOfyHp5tZBtVL1FHtqye20Jdf9G8gqr633DvNyqzMtfEWi+f71HJt8hiavap8nDaZ8VGmbVx3F72R/zb3H3Pqup97UkuBVaz4vcpv0rcrwqHCQHrFjSlKEI7WQSFwiob4ELdm+u7HpfX7fqfR8Xmb9TtqLKGClgpZL59hLJl7zyhPDb8HJnrkLsfdLcalyHX9JUp6ep5OOlbOZQNqgdIssC4pKmUOLnQHcGS33hm9Wdiv6NQBMmUteITbCa5yqFOg4g41WR9OvUicl7Rf3ceSAkviXIjcqeLXAgY+016gSbwTfkT7DEtgTIizDJi3atbgwW+S1uNWG8R8BoEH4Plfzfuea4+p83qSxXBgikp67ujfMgsKzu/C3gy8br9Rl9is0f/2yGqyKaq95XRGbu1GXjVg8Ci7wf0eJWpV8j4gz6Lp3+jxapXCnviSxURz+reDBY1Oe6V/E3m2rIOj+HrySOg8rgyyJLwu0KguWymjVGxOGP4QH87++NcTXmW0ZpTovk8PUsBMuF9ZzIpOYfjAzGnjPCVcoC1lpCKIt1CoLlwhr+mcC0ZsBrjBymvNtNmKsvhrMsNyJHF9Z8PBzBcm2Tg8h8+QbzhJ8/HRTDqiqQ5fM5UeiEmZqHFATLpdV7skhzfs68KHf4+AD4rDv8SB4rj4+OCsF5RUGwXFxBIjZJ2xH2EfIffgrs+Gqvfmt+slfn1bAKwXL5LkvsvM/n2Ll89MfPATdpRG/4lnM3eBcxz8EdvREsl5dYYIXtNk42Uc9eGqM5INZWPf2noZzEKwYIleEyO4BCC6ygIL8GBQYZcKZpSlyX2qj3oGgWHgCWYGBFUiduRhlvfNqZx1bO1V88yK/1MUJcUQEUOmCFJqg2SHyDw+CV4xUYrPbyslj9BJ2jDGXhCWCJBVbYwvlkKR/d/bcvbpD7RIlJvm/9/mwmP9XaKrFl5c5MEbACGf49lgRYzxPI9g3yTYB3XAayqHd1pxI0dHep7uXI/7BgzPxtmrmlFb6zbnv1htcvDhp08fXZi4++vyQjTTPBilfFXk8EUGiDFcpzG9N3JPfy09gKhUUBGckiJE7r433D3AgsocCK+tFwHSD4OD67TpDD58tFj0VSB1Bog5XAz8ai00SpOjvswfqTNSNZ6B6T6U6eWc8PEGzb77pLe/cfRINfiQAKLbBCfDRzStAoVoi+g6wemYayCNF3GHGnPutx0ZOJrkqKrco+KvhiKoBCAyxf4//8YSCHIM1Oy1gWgEuL3elW4TxhZ9DX28h47zTRmwKoAAotsADNyptxA9P78MkymAWERneawX8j3CYD3u1q2jb7+87Cr2V5NRgHizMawu8655JlNAtICk8NrGjSMw+a7Cb3GnG4yZYKFnPCEiiQnkOW4Sw8DSyhwIrmqef7JkJCf37b1wY4CH9IkQsWIxA/TCiDOOb8ynAWnjYUigVWtPyzvWP01LMPrxlxEKQDKMyCRYMRIujIz4heNJGFh03e67TG2JlX910wMtUKPWrsHFOW371JsKiBRTiXUPMFCfVUc0O9DhjzXrd9skL0TSu3Bxh813bFIFjWBD8/K7vNrKDZUUMG7Ds9fIATLFgWulYKtzs4YNIYg62ddf98gV7r5ytKYw2+iBVAAQHLN7BxLhhm1e2yvFgtb23qJEISLPpNbTKLUK3+zuKOB8o9ZzMs3/8sWA55xYTQN3YmGn/NOsUIWPaToFQ9Y5YfozFTdczpxKTHdBb1p10yN6HD3PMwOaHACmr/8JVvgobqmUN/9rSZ61KYARS6YBG7Jqxhyn5tS/c25BFCwXpdloQsPMNtpsXkYO7KCcu9pw8P5gyKdS4P333Q2VT27AAKXbDIFkvVfCQQMDeP055lScjC08DqfdVmVuFfXdrzlzXFecOzG3ympmRnh2RMe+f9S59JOGf5imIArATAU3FaLU5bE7wsmuRIyMLTwFKOB9gkqNb2f19XPHH17bffPnrug9k3ymxyxA6g0AHLlzbhhtBdbUuDg4xGgVr4SsjC88ASDKxoXd3R2wBYrLV5HL+3CIQt7n012JGQheeBJRpY0Zq6fLciDpYFtt+Syp1VW4A7gSGKxCw8ECzBwIpWFC+AQhsstvOChfuYD8yvxkvDGi4hC08EK/mgi4K1M9MIWGw/gDiu8R26fWLlz88lZOGJYIndWNF64gZQaIPFfs6Pt9YP0jRxaeXQjKaELDwTLNHAilYSN4BCEyxOKHQQr9XCoI4EYVwzlIQsPBMs8cCK1hA/gEITLI7ncSiv1fyAZPLRlJGFh4IlHljRCjP3xxVDYPEOegeDxY3jgYMlnoWngpWX63JgaQRQyAHLi0OFn3mw/BCsJn3jcmCtU4yBlQpt0yDOchFORZAiLQuPBctIYIVDpRVAoQlWkGCbWs1TYUWw+LonyaW4Cn9IURw8FCrYY7WGjAVWOGzmrhlA4djJO5wKL3lZeC5YRgMrHCPtAAojYIXgqtBZ2uxCYF1XDIMVJ2hCQjuWo2U4sEK+dAIoNMHyYT+Xymt8tLw7XM+5DFjrFONgcVqDuwmNe4UOl6nACpkzd70ACm2w2J4FFu5cDL0bHG9ycBGwHlLMgBUMGoRafDzRH8vhkhBYIUNXFFNgWbwgI2GL8yZ6kDpeQT1dwathjTmwWAYH2rfBAunM7OWrMfGWkIVng+USgRX6ARQ6YDFO7PDRGDBdOErHy2PIcoHACkAAhR5Y1MFo2lHIrhtXGOQxYDk/sAISQKEHFkkWgyv7iVgYoM+jX+OjvTYQzsLDwXJ6YAUkgEIXLJuvXZN4sc41C9ac+7jK2Q3BngOWswMrQAEU+mDVtUkjWl6BzNOpgrQnP8RRMYyj43315k/CWTC+pbFfDQpzt3tPGJrwtFPBAgVQQMCqvxYpwS+B87NVZ7lmEz0fS0YWjG/xTfCLa0TS6u5oPV/kRK4CfqpIA0tLQXqbw01kgk/0k5CFzlmkFncn6wvnzd9rNiutApZV336qo1DFAVn4aSfwdXOwCqucBlb+2NYBi2pTL1+xDBg2WAlZ6B3oHejmZP3NaWC9qbQKWCzTvMVUjycnixCdNHHuPoGPdBJX7yqtApYVto/Hl+ybKTRXAHoFdyctf9Q5eznLDZQ1Qfg1vmax4N6lYzoLPw8HS+nqDDflR9OMFJVsCx+913AXV4EWk1yZzyLEw4dCRYno19qhFeH9jF2kQk54gwINcgWdJGneV2g2Cz+Pnrw36C83WpWrG28aLaiF9IbR7DZ8tLDw0jcZWFK1S2M2C60O18cz9nb8lyW2GlaJy/wNlzOBWvCF8lsnQa//05k+x+nfEWEuCy8fzzWQNqvyWm2rYFV7zcwVRCr70a1/ai/OiGIFeAukanBhhXkbmMqC2+X5egxXivLRQ586PvA+/NOHo0yV0m5e0zzQhQQbxkIJZDetbwL8RhtTWTB3zS1+nuP0V6+hZ994ppvj/B2iu33+xtmhZgvZ5BejqnyvwDj7uZY1VeCiI6/AYF9iy89PsL8wlUUYkdY3OEzxPMVPem/bsk9+JF+fLNt2eFK8lDLW33DkF0b9T4cE+TUozIjDXFBjYr/AIKOXb5nIIiQosDFtUJCCQqFQKBQKhUKhUCgUCoVCoVAoFAqFQqFQKBQKhUKhUCgUCoVCoVAoFAqFQqFQKBQKhUKhUCgUCoVCoVAoFAqFQqFQKBQKhUKhUCgUCoVCoVAoFAqFQqFQKBQKhUKhUCgUCoVCoVAoFAqFQqFQKBQKhUKhUCgUCoVCoVCO0v8DvS0oXe2lGdEAAAAASUVORK5CYII=;" vertex="1" parent="c13vq_cIt79_5pJQ8C5g-19">
          <mxGeometry x="52" y="93" width="102.85" height="54" as="geometry" />
        </mxCell>
        <mxCell id="c13vq_cIt79_5pJQ8C5g-29" value="Java" style="text;strokeColor=none;align=center;fillColor=none;html=1;verticalAlign=middle;whiteSpace=wrap;rounded=0;fontSize=13;" vertex="1" parent="c13vq_cIt79_5pJQ8C5g-19">
          <mxGeometry x="162" y="105" width="70" height="30" as="geometry" />
        </mxCell>
        <mxCell id="c13vq_cIt79_5pJQ8C5g-6" value="" style="rounded=0;whiteSpace=wrap;html=1;dashed=1;fillColor=none;" vertex="1" parent="1">
          <mxGeometry x="270" y="407" width="530" height="61" as="geometry" />
        </mxCell>
        <mxCell id="c13vq_cIt79_5pJQ8C5g-12" value="Test" style="text;strokeColor=none;align=center;fillColor=none;html=1;verticalAlign=middle;whiteSpace=wrap;rounded=0;fontSize=14;" vertex="1" parent="1">
          <mxGeometry x="280" y="424" width="60" height="30" as="geometry" />
        </mxCell>
        <mxCell id="c13vq_cIt79_5pJQ8C5g-13" value="Build" style="text;strokeColor=none;align=center;fillColor=none;html=1;verticalAlign=middle;whiteSpace=wrap;rounded=0;fontSize=14;" vertex="1" parent="1">
          <mxGeometry x="350" y="424" width="60" height="30" as="geometry" />
        </mxCell>
        <mxCell id="c13vq_cIt79_5pJQ8C5g-14" value="Generate image with jar only" style="text;strokeColor=none;align=center;fillColor=none;html=1;verticalAlign=middle;whiteSpace=wrap;rounded=0;fontSize=14;" vertex="1" parent="1">
          <mxGeometry x="600" y="422.5" width="190" height="30" as="geometry" />
        </mxCell>
        <mxCell id="c13vq_cIt79_5pJQ8C5g-31" value="Generate jar with front and backend artifacts" style="text;strokeColor=none;align=center;fillColor=none;html=1;verticalAlign=middle;whiteSpace=wrap;rounded=0;fontSize=14;" vertex="1" parent="1">
          <mxGeometry x="420" y="422.5" width="160" height="30" as="geometry" />
        </mxCell>
      </root>
    </mxGraphModel>
  </diagram>
</mxfile>
